<svg xmlns="http://www.w3.org/2000/svg" xmlns:svgjs="http://svgjs.com/svgjs" xmlns:xlink="http://www.w3.org/1999/xlink" width="288" height="288"><svg xmlns="http://www.w3.org/2000/svg" width="288" height="288" enable-background="new 0 0 32 32" viewBox="0 0 32 32"><path fill="#17b978" d="M18.5,0.5h-14c-1.1,0-2,0.9-2,2v27c0,1.1,0.9,2,2,2h19c1.1,0,2-0.9,2-2v-10v-12L18.5,0.5z" class="colorfff svgShape"/><path fill="#a7ff83" d="M25.5,7.5h-5c-1.1,0-2-0.9-2-2v-5L25.5,7.5z" class="colordad9db svgShape"/><circle cx="24.5" cy="25.5" r="6" fill="#086972" class="color406fb5 svgShape"/><polygon fill="#335fe2" points="11 10.5 11 14.6 9.5 13.6 8 14.6 8 10.5" class="colore23342 svgShape"/><path fill="#6cfd31" d="M13.8,7.5c0,0.5-0.7,0.9-0.9,1.4c-0.2,0.5,0,1.3-0.3,1.6s-1.2,0.1-1.6,0.3c-0.5,0.2-0.9,0.9-1.4,0.9	s-0.9-0.7-1.4-0.9c-0.5-0.2-1.3,0-1.6-0.3S6.3,9.4,6.1,8.9C5.9,8.4,5.2,8,5.2,7.5s0.7-0.9,0.9-1.4c0.2-0.5,0-1.3,0.3-1.6
	s1.2-0.1,1.6-0.3C8.6,3.9,9,3.2,9.5,3.2s0.9,0.7,1.4,0.9c0.5,0.2,1.3,0,1.6,0.3s0.1,1.2,0.3,1.6C13.1,6.6,13.8,7,13.8,7.5z" class="colorfdd331 svgShape"/><path fill="#071a52" d="M23.8,27.4c-0.1,0-0.3-0.1-0.4-0.1L22,25.9c-0.2-0.2-0.2-0.5,0-0.7c0.2-0.2,0.5-0.2,0.7,0l1.1,1.1l2.5-2.5
	c0.2-0.2,0.5-0.2,0.7,0c0.2,0.2,0.2,0.5,0,0.7l-2.8,2.8C24.1,27.4,23.9,27.4,23.8,27.4z" class="color000 svgShape"/><circle cx="9.5" cy="7.5" r="1" fill="#6af531" class="colorf59831 svgShape"/><path fill="#071a52" d="M26.3,23.7l-2.5,2.5l-1.1-1.1c-0.2-0.2-0.5-0.2-0.7,0c-0.2,0.2-0.2,0.5,0,0.7l1.4,1.4c0.2,0.2,0.5,0.2,0.7,0l2.8-2.8
	c0.2-0.2,0.2-0.5,0-0.7C26.8,23.5,26.5,23.5,26.3,23.7L26.3,23.7z M26,19.2V7.5c0,0,0,0,0-0.1c0,0,0,0,0-0.1c0-0.1-0.1-0.2-0.1-0.2
	l-7-7C18.8,0.1,18.7,0,18.6,0c0,0,0,0-0.1,0c0,0,0,0-0.1,0h-14C3.1,0,2,1.1,2,2.5v27C2,30.9,3.1,32,4.5,32h21c0.1,0,0.3-0.1,0.3-0.1
	c3.5-0.8,5.7-4.2,5-7.7C30.3,21.7,28.4,19.8,26,19.2z M19,1.7L24.3,7h-3.8C19.7,7,19,6.3,19,5.5V1.7z M4.5,31C3.7,31,3,30.3,3,29.5
	v-27C3,1.7,3.7,1,4.5,1H18v4.5C18,6.9,19.1,8,20.5,8H25v11c-0.2,0-0.3,0-0.5,0c-3.6,0-6.5,2.9-6.5,6.5c0,2.2,1.2,4.3,3.1,5.5H4.5z
	 M24.5,31c-3,0-5.5-2.5-5.5-5.5s2.5-5.5,5.5-5.5s5.5,2.5,5.5,5.5l0,0C30,28.5,27.5,31,24.5,31z M9.5,9C10.3,9,11,8.3,11,7.5
	S10.3,6,9.5,6S8,6.7,8,7.5S8.7,9,9.5,9z M9.5,7C9.8,7,10,7.2,10,7.5S9.8,8,9.5,8S9,7.8,9,7.5S9.2,7,9.5,7z M5,16.5
	C5,16.8,5.2,17,5.5,17h16c0.3,0,0.5-0.2,0.5-0.5S21.8,16,21.5,16h-16C5.2,16,5,16.2,5,16.5z M15.5,22h-10C5.2,22,5,22.2,5,22.5
	S5.2,23,5.5,23h10c0.3,0,0.5-0.2,0.5-0.5S15.8,22,15.5,22z M5.5,26h9c0.3,0,0.5-0.2,0.5-0.5S14.8,25,14.5,25h-9
	C5.2,25,5,25.2,5,25.5S5.2,26,5.5,26z M17.5,19h-12C5.2,19,5,19.2,5,19.5S5.2,20,5.5,20h12c0.3,0,0.5-0.2,0.5-0.5S17.8,19,17.5,19z
	 M15.5,28h-10C5.2,28,5,28.2,5,28.5S5.2,29,5.5,29h10c0.3,0,0.5-0.2,0.5-0.5S15.8,28,15.5,28z M5.6,9.1c0,0.2,0.1,0.4,0.1,0.5
	c0,0.5,0.1,0.9,0.4,1.3c0.4,0.3,0.8,0.4,1.3,0.4c0.1,0,0.1,0,0.2,0c0,0.1,0,0.1,0,0.2v3.1C7.5,14.8,7.7,15,8,15c0.1,0,0.2,0,0.3-0.1
	l1.2-0.8l1.2,0.8c0.1,0.1,0.2,0.1,0.3,0.1c0.1,0,0.2,0,0.2-0.1c0.2-0.1,0.3-0.3,0.3-0.4v-3.1c0-0.1,0-0.1,0-0.2c0.1,0,0.1,0,0.2,0
	c0.5,0,0.9-0.1,1.3-0.4c0.3-0.4,0.4-0.8,0.4-1.3c0-0.2,0-0.4,0.1-0.5c0.1-0.2,0.2-0.3,0.3-0.4C14,8.4,14.3,8,14.3,7.5
	c0-0.5-0.3-0.9-0.6-1.2c-0.1-0.1-0.2-0.3-0.3-0.4c0-0.2-0.1-0.4-0.1-0.5c0-0.5-0.1-0.9-0.4-1.3c-0.4-0.3-0.8-0.4-1.3-0.4
	c-0.2,0-0.4,0-0.5-0.1c-0.2-0.1-0.3-0.2-0.4-0.3C10.4,3,10,2.7,9.5,2.7C9,2.7,8.6,3,8.3,3.3C8.2,3.4,8,3.5,7.9,3.6
	c-0.2,0-0.4,0.1-0.5,0.1c-0.5,0-0.9,0.1-1.3,0.4C5.8,4.4,5.7,4.9,5.7,5.4c0,0.2,0,0.4-0.1,0.5C5.5,6.1,5.4,6.2,5.3,6.3
	C5,6.6,4.7,7,4.7,7.5C4.7,8,5,8.4,5.3,8.7C5.4,8.8,5.5,8.9,5.6,9.1z M10.5,13.6l-0.7-0.5c-0.2-0.1-0.4-0.1-0.6,0l-0.7,0.5v-1.8
	c0.3,0.3,0.6,0.4,1,0.5c0.4,0,0.7-0.2,1-0.5L10.5,13.6z M6,7c0.2-0.2,0.4-0.4,0.5-0.7C6.7,6,6.7,5.7,6.7,5.4c0-0.2,0-0.4,0.1-0.6
	C7,4.7,7.2,4.7,7.4,4.7c0.3,0,0.6,0,0.9-0.1C8.5,4.4,8.8,4.3,9,4c0.2-0.2,0.4-0.4,0.5-0.4S9.8,3.9,10,4c0.2,0.2,0.4,0.4,0.7,0.5
	c0.3,0.1,0.6,0.1,0.9,0.1c0.2,0,0.4,0,0.6,0.1c0.1,0.2,0.1,0.4,0.1,0.6c0,0.3,0,0.6,0.1,0.9C12.6,6.6,12.7,6.8,13,7
	c0.2,0.2,0.4,0.4,0.4,0.5S13.1,7.8,13,8c-0.2,0.2-0.4,0.4-0.5,0.7c-0.1,0.3-0.1,0.6-0.1,0.9c0,0.2,0,0.4-0.1,0.6
	c-0.2,0.1-0.4,0.1-0.6,0.1c-0.3,0-0.6,0-0.9,0.1c-0.3,0.1-0.5,0.3-0.7,0.5c-0.2,0.2-0.4,0.4-0.5,0.4S9.2,11.1,9,11
	c-0.2-0.2-0.4-0.4-0.7-0.5c-0.3-0.1-0.6-0.1-0.9-0.1c-0.2,0-0.4,0-0.6-0.1C6.7,10,6.7,9.8,6.7,9.6c0-0.3,0-0.6-0.1-0.9
	C6.4,8.5,6.3,8.2,6,8C5.9,7.8,5.7,7.6,5.7,7.5S5.9,7.2,6,7z" class="color000 svgShape"/></svg></svg>