<svg xmlns="http://www.w3.org/2000/svg" xmlns:svgjs="http://svgjs.com/svgjs" xmlns:xlink="http://www.w3.org/1999/xlink" width="288" height="288"><svg xmlns="http://www.w3.org/2000/svg" width="288" height="288" viewBox="0 0 64 64"><path fill="#071a52" d="M62.6 35.15c-1.92-2.23-5.14-2.4-5.17-2.37a4.01 4.01 0 0 1-.59-.13s-.01 0-.01-.01c-.59-.19-.87-.49-.87-.93 2.27-2.14 2.59-5.54 2.6-5.66.09-.77.1-1.47.03-2.08-.39-4.46-4.09-5.5-5.92-5.44-.1 0-2.56-.07-4.32 1.64-1.15 1.12-1.72 2.69-1.71 4.68.01.37.03.77.07 1.16.02.15.33 3.56 2.61 5.7-.04.28-.2.62-.89.84-.01 0-.01.01-.01.01h-.01c-.17.06-.35.09-.55.12-.56.04-3.9.35-5.61 2.94-.77-.13-1.32-.17-1.5-.18-.46-.07-.87-.16-1.22-.28h-.02c-.68-.22-1.22-.86-1.61-1.89l-.01-.01c-.52-1.35-.59-2.89-.58-3.3.01-.08.01-.16.02-.23 4.23-3.72 4.81-9.99 4.83-10.25.15-1.31.17-2.53.07-3.59v-.01s-.01 0-.01-.01v-.07c-.84-9.57-10.16-9.33-10.19-9.33-.18-.01-4.39-.13-7.41 2.81-1.96 1.9-2.94 4.62-2.91 8.06.01.67.05 1.39.13 2.11.02.27.61 6.55 4.84 10.29 0 .04.01.09.01.15-.03 1.43-.15 3.29-.25 3.62-.01.01-.01.01-.01.02-.34.66-1.01 1.15-1.99 1.46 0 0 0 .01-.01.01-.33.11-.71.19-1.18.26-.19.01-.78.05-1.59.2-1.85-2.63-5.4-2.8-5.51-2.8-.22-.03-.41-.07-.57-.13h-.02s0-.01-.01-.01c-.59-.19-.86-.49-.87-.93 2.27-2.14 2.59-5.54 2.6-5.67.09-.76.1-1.46.04-2.07-.4-4.46-4.07-5.51-5.92-5.44-.11 0-2.57-.08-4.33 1.64-1.15 1.12-1.72 2.69-1.7 4.68 0 .37.02.77.07 1.16.01.15.33 3.56 2.6 5.7-.03.28-.2.62-.89.84l-.01.01c-.16.05-.34.09-.54.12-.46.02-3.4.27-5.2 2.37-1.12 1.3-1.57 2.99-1.34 5.03l.34 3.11c.04.36.27.67.6.8.18.07 4.04 1.57 10.17 1.57.2 0 .41-.01.62-.01-.06.84-.04 1.72.06 2.64l.64 5.79c.03.35.27.66.6.79.43.17 7.42 2.88 18.47 2.88 5.51 0 12.03-.68 19.25-2.67.38-.1.66-.43.7-.83l.63-5.78c.11-.94.13-1.84.07-2.69h.24c3.47 0 6.98-.48 10.45-1.43.38-.11.66-.44.7-.83l.34-3.12c.23-2.04-.22-3.74-1.34-5.03zm-13.95-9.32c-.04-.35-.06-.69-.07-1-.01-1.43.36-2.52 1.11-3.26 1.16-1.13 2.9-1.1 2.98-1.1.38-.01 3.67.01 3.99 3.69.05.48.05 1.04-.03 1.69 0 .03-.3 3.29-2.44 4.82-.03.02-.06.04-.08.05-.05.04-.1.07-.15.1-.83.52-1.82.52-2.65.01-.05-.04-.1-.07-.15-.11-.02-.02-.05-.03-.08-.05-.07-.05-.13-.1-.19-.15h-.01c-1.94-1.58-2.23-4.64-2.23-4.69zM37.87 36.47l-2.28 3.93-2.21-2.25 3.31-2.97c.34.53.74.97 1.18 1.29zm-5.86 3.05 1.37 1.4-1.3 1.44c-.03.03-.05.06-.08.1-.02-.04-.05-.07-.07-.1l-1.23-1.35 1.31-1.49zm-3.63-5.92c.12-.69.18-1.66.21-2.54 1.08.56 2.24.86 3.41.86s2.34-.3 3.42-.87c.07.66.2 1.47.45 2.27l-3.9 3.48-3.59-3.2zM32 43.99l1.52 7.64L32 52.79l-1.52-1.16L32 43.99zm-6.04-33.31c2.41-2.36 5.97-2.28 6.07-2.27.3-.01 6.95-.16 8.12 6.64-4.66.32-10.76-2.87-10.83-2.9a.947.947 0 0 0-1.01.06l-4.54 3.17c.27-1.96 1-3.54 2.19-4.7zm-2.19 8.59c-.05-.51-.08-.98-.1-1.45l5.28-3.69c1.68.82 6.94 3.16 11.38 2.84.02.72 0 1.47-.1 2.32-.01.06-.61 6.53-4.91 9.57-.04.02-.07.04-.11.07-.1.08-.21.15-.32.22-1.81 1.12-3.97 1.12-5.79 0-.11-.07-.22-.14-.32-.22a.673.673 0 0 0-.11-.07c-.15-.11-.3-.22-.44-.34h-.01c-3.88-3.16-4.44-9.17-4.45-9.25zm3.7 16.12 3.13 2.79-1.93 2.2-2.51-4.01c.51-.27.95-.6 1.31-.98zM7.76 27.48c-.32-.97-.39-1.75-.39-1.77-.04-.36-.06-.69-.07-1.01-.01-1.42.37-2.52 1.11-3.25 1.16-1.14 2.91-1.1 2.99-1.1.15-.01 3.65-.09 3.99 3.68.05.49.04 1.05-.04 1.7 0 .03-.31 3.3-2.44 4.82-.03.02-.06.04-.08.05-.05.04-.1.07-.15.1-.83.52-1.82.52-2.64.01-.06-.04-.11-.07-.16-.11-.02-.02-.05-.03-.07-.05-.07-.05-.14-.1-.2-.15-.98-.79-1.54-1.95-1.85-2.92zm4.32 16.01c-4.94.13-8.52-.83-9.82-1.24l-.27-2.5c-.17-1.48.12-2.67.87-3.54 1.36-1.6 3.85-1.72 3.87-1.72.03 0 .07 0 .1-.01.32-.04.63-.11.91-.2 0 0 .01-.01.02-.01 1.11-.36 1.66-.98 1.94-1.58.54.22 1.1.33 1.66.33.55 0 1.09-.11 1.62-.31.33.76 1.02 1.35 1.98 1.66h.02c.28.1.58.17 1.01.22.02 0 2.15.11 3.55 1.39-1.77.57-3.83 1.59-5.4 3.4-1.01 1.18-1.69 2.55-2.06 4.11zm38.14 4.55-.56 5.12c-18.51 4.93-32.45.85-35.31-.12l-.57-5.18c-.33-2.99.28-5.41 1.82-7.2 1.66-1.93 4.09-2.78 5.79-3.16.02-.01.03-.01.05-.01 1.12-.25 1.92-.29 1.94-.29.03 0 .07-.01.1-.01.29-.04.56-.09.81-.15l3.43 5.47c.16.26.43.43.74.45h.08c.28 0 .54-.11.73-.32l.14-.17.75.83-1.7 8.55c-.07.36.07.73.36.96l2.59 1.97c.18.13.39.2.59.2.21 0 .42-.07.59-.2l2.58-1.97c.3-.23.44-.6.37-.96l-1.7-8.55.9-.99.36.36c.18.19.43.29.69.29.04 0 .08 0 .12-.01.3-.03.57-.21.72-.47l3.06-5.26c.26.05.54.11.83.15h.1c.05.01 4.97.22 7.77 3.46 1.54 1.79 2.16 4.22 1.83 7.21zm11.8-8.07-.27 2.46c-3.28.84-6.58 1.22-9.84 1.17-.38-1.53-1.06-2.88-2.05-4.04-1.61-1.86-3.72-2.88-5.52-3.44 1.4-1.38 3.64-1.5 3.66-1.5.05 0 .09-.01.13-.01.28-.05.58-.11.86-.21h.02c.01 0 .02 0 .02-.01h.02c1.1-.36 1.65-.99 1.93-1.58.53.22 1.09.34 1.66.34.55 0 1.09-.12 1.61-.32.34.75 1.02 1.34 1.97 1.65.01.01.02.02.03.02.29.09.6.15 1.02.21.03 0 2.51.13 3.86 1.71.75.87 1.05 2.06.89 3.55z" class="color2a2f63 svgShape"/><path fill="#086972" d="m37.87 36.47-2.28 3.93-2.21-2.25 3.31-2.97c.34.53.74.97 1.18 1.29zm-7.27 1.71-1.93 2.2-2.51-4.01c.51-.27.95-.6 1.31-.98l3.13 2.79zm2.78 2.74-1.3 1.44c-.03.03-.05.06-.08.1-.02-.04-.05-.07-.07-.1l-1.23-1.35 1.31-1.49 1.37 1.4zM33.52 51.63 32 52.79l-1.52-1.16L32 43.99z" class="colord6e9f2 svgShape"/><path fill="#8bf161" d="m50.22 48.04-.56 5.12c-18.51 4.93-32.45.85-35.31-.12l-.57-5.18c-.33-2.99.28-5.41 1.82-7.2 1.66-1.93 4.09-2.78 5.79-3.16.02-.01.03-.01.05-.01 1.12-.25 1.92-.29 1.94-.29.03 0 .07-.01.1-.01.29-.04.56-.09.81-.15l3.43 5.47c.16.26.43.43.74.45h.08c.28 0 .54-.11.73-.32l.14-.17.75.83-1.7 8.55c-.07.36.07.73.36.96l2.59 1.97c.18.13.39.2.59.2.21 0 .42-.07.59-.2l2.58-1.97c.3-.23.44-.6.37-.96l-1.7-8.55.9-.99.36.36c.18.19.43.29.69.29.04 0 .08 0 .12-.01.3-.03.57-.21.72-.47l3.06-5.26c.26.05.54.11.83.15h.1c.05.01 4.97.22 7.77 3.46 1.54 1.79 2.16 4.22 1.83 7.21z" class="colorf16e61 svgShape"/><path fill="#a7ff83" d="m35.87 33.32-3.9 3.48-3.59-3.2c.12-.69.18-1.66.21-2.54 1.08.56 2.24.86 3.41.86s2.34-.3 3.42-.87c.07.66.2 1.47.45 2.27z" class="colorffe4aa svgShape"/><path fill="#4ee5a8" d="M40.15 15.05c-4.66.32-10.76-2.87-10.83-2.9a.947.947 0 0 0-1.01.06l-4.54 3.17c.27-1.96 1-3.54 2.19-4.7 2.41-2.36 5.97-2.28 6.07-2.27.3-.01 6.95-.16 8.12 6.64z" class="color4ebce5 svgShape"/><path fill="#17b978" d="M19.54 35.98c-1.77.57-3.83 1.59-5.4 3.4-1.01 1.18-1.69 2.55-2.06 4.11-4.94.13-8.52-.83-9.82-1.24l-.27-2.5c-.17-1.48.12-2.67.87-3.54 1.36-1.6 3.85-1.72 3.87-1.72.03 0 .07 0 .1-.01.32-.04.63-.11.91-.2 0 0 .01-.01.02-.01 1.11-.36 1.66-.98 1.94-1.58.54.22 1.1.33 1.66.33.55 0 1.09-.11 1.62-.31.33.76 1.02 1.35 1.98 1.66h.02c.28.1.58.17 1.01.22.02 0 2.15.11 3.55 1.39z" class="color53be9e svgShape"/><path fill="#4ee5a8" d="m62.02 39.97-.27 2.46c-3.28.84-6.58 1.22-9.84 1.17-.38-1.53-1.06-2.88-2.05-4.04-1.61-1.86-3.72-2.88-5.52-3.44 1.4-1.38 3.64-1.5 3.66-1.5.05 0 .09-.01.13-.01.28-.05.58-.11.86-.21h.02c.01 0 .02 0 .02-.01h.02c1.1-.36 1.65-.99 1.93-1.58.53.22 1.09.34 1.66.34.55 0 1.09-.12 1.61-.32.34.75 1.02 1.34 1.97 1.65.01.01.02.02.03.02.29.09.6.15 1.02.21.03 0 2.51.13 3.86 1.71.75.87 1.05 2.06.89 3.55z" class="color4ebce5 svgShape"/><path fill="#a7ff83" d="M15.35 25.73c0 .03-.31 3.3-2.44 4.82-.03.02-.06.04-.08.05-.05.04-.1.07-.15.1-.83.52-1.82.52-2.64.01-.06-.04-.11-.07-.16-.11-.02-.02-.05-.03-.07-.05-.07-.05-.14-.1-.2-.15-.98-.79-1.54-1.95-1.85-2.92-.32-.97-.39-1.75-.39-1.77-.04-.36-.06-.69-.07-1.01-.01-1.42.37-2.52 1.11-3.25 1.16-1.14 2.91-1.1 2.99-1.1.15-.01 3.65-.09 3.99 3.68.05.49.04 1.05-.04 1.7zm24.98-8.76c.02.72 0 1.47-.1 2.32-.01.06-.61 6.53-4.91 9.57-.04.02-.07.04-.11.07-.1.08-.21.15-.32.22-1.81 1.12-3.97 1.12-5.79 0-.11-.07-.22-.14-.32-.22a.673.673 0 0 0-.11-.07c-.15-.11-.3-.22-.44-.34h-.01c-3.88-3.16-4.44-9.17-4.45-9.25-.05-.51-.08-.98-.1-1.45l5.28-3.69c1.68.82 6.94 3.16 11.38 2.84zm16.3 8.88c0 .03-.3 3.29-2.44 4.82-.03.02-.06.04-.08.05-.05.04-.1.07-.15.1-.83.52-1.82.52-2.65.01-.05-.04-.1-.07-.15-.11-.02-.02-.05-.03-.08-.05-.07-.05-.13-.1-.19-.15h-.01c-1.94-1.58-2.23-4.64-2.23-4.69-.04-.35-.06-.69-.07-1-.01-1.43.36-2.52 1.11-3.26 1.16-1.13 2.9-1.1 2.98-1.1.38-.01 3.67.01 3.99 3.69.05.48.05 1.04-.03 1.69z" class="colorffe4aa svgShape"/></svg></svg>