<svg xmlns="http://www.w3.org/2000/svg" xmlns:svgjs="http://svgjs.com/svgjs" xmlns:xlink="http://www.w3.org/1999/xlink" width="288" height="288"><svg xmlns="http://www.w3.org/2000/svg" width="288" height="288" enable-background="new 0 0 64 64" viewBox="0 0 64 64"><path fill="#17b978" d="M64,32c0,1.23-0.07,2.45-0.21,3.65c-0.98,8.65-5.41,16.25-11.88,21.41C46.44,61.4,39.52,64,32,64
		C14.33,64,0,49.67,0,32c0-2.44,0.27-4.82,0.79-7.1C4.02,10.64,16.77,0,32,0c7.27,0,13.97,2.43,19.35,6.51
		c7,5.32,11.74,13.47,12.53,22.74C63.96,30.15,64,31.07,64,32z" class="color7ca2c1 svgShape"/><path fill="#a7ff83" d="M43.78 13.78l-.9 1.65c-.81 1.49-2.68 2.03-4.15 1.2l-6.37-3.55c-1.65-.85-3.63-.63-5.06.55-2.63 2.17-6.6 5.8-7.53 8.6-1.44 4.28-3.48 3.77-5.41 3.17-1.94-.62-2.66-1.33-2.86-2.66-.2-1.33-2.75-2.45-3.88-.61C7.28 22.69 7 23.24 6.75 23.74c-.46.94-.71 1.94-.9 2.96-.09.47-.31.99-.88 1.14-.73.2-2.84-.89-4.18-2.94C4.02 10.64 16.77 0 32 0l1.61 3.52c.25.56.71.99 1.27 1.21l6.8 2.71c.65.26 1.14.8 1.35 1.47l.94 3.12C44.14 12.62 44.07 13.25 43.78 13.78zM63.88 29.25l-3.45.47c-1.39.19-2.61-.94-2.53-2.33l.05-.93c.03-.67-.2-1.32-.65-1.81-1.71-1.87-4.04-5.07-5.92-7.76-1.96-2.81-2.16-6.49-.51-9.51l.48-.87C58.35 11.83 63.09 19.98 63.88 29.25zM63.79 35.65c-.98 8.65-5.41 16.25-11.88 21.41h-.03l-1-5.37c-.17-.9-.69-1.7-1.45-2.22l-1.07-.75c-.76-.53-1.11-1.5-.83-2.4l.69-2.24-.35-1.95c-.19-1.13.45-2.22 1.53-2.58l3.22-1.09c.53-.17 1-.47 1.38-.87l2.38-2.47c.99-1.01 2.48-1.34 3.81-.85l3.59 1.37C63.78 35.64 63.78 35.65 63.79 35.65zM40.3 27.08l1.28 2.98c1.18 2.75.2 5.94-2.33 7.55l-3.43 2.19-3.37 5.66v4.36l-1.91 6.27c0 0-4.21 2.83-6.73-1.61v-1.63c0-.75-.37-1.46-.98-1.89l-.58-.41c-.81-.57-1.32-1.46-1.42-2.44l-.43-4.59c-.07-.78-.38-1.53-.89-2.13l-1.66-2c-.75-.9-.59-2.25.36-2.95l.74-.54c.48-.36.89-.81 1.19-1.33l3.9-6.71 3.22-1.46c.54-.24 1.14-.28 1.7-.09l1.36.44c.8.26 1.68.08 2.3-.49l.71-.63c.43-.39.99-.6 1.57-.6h2.28C38.54 25.03 39.77 25.84 40.3 27.08z" class="colorbdd64d svgShape"/></svg></svg>