<svg xmlns="http://www.w3.org/2000/svg" xmlns:svgjs="http://svgjs.com/svgjs" xmlns:xlink="http://www.w3.org/1999/xlink" width="288" height="288"><svg xmlns="http://www.w3.org/2000/svg" width="288" height="288" enable-background="new 0 0 512 512" viewBox="0 0 512 512"><polygon fill="#a7ff83" fill-rule="evenodd" points="119.048 90.004 392.953 90.004 446.501 421.996 65.499 421.996" class="colorf1ba84 svgShape" clip-rule="evenodd"/><polygon fill="#086972" fill-rule="evenodd" points="376.178 90.004 392.953 90.004 446.501 421.996 65.499 421.996 68.725 401.995 426.501 401.995" class="colore3a76f svgShape" clip-rule="evenodd"/><path fill="#ebffe3" fill-rule="evenodd" d="M255.584,200.046c17.397,0,31.5,9.915,31.5,32.78c0,22.865-14.103,41.401-31.5,41.401
				c-17.397,0-31.5-18.536-31.5-41.401C224.084,209.961,238.187,200.046,255.584,200.046z" class="colorffece3 svgShape" clip-rule="evenodd"/><path fill="#dcffce" fill-rule="evenodd" d="M255.584,200.046c17.397,0,31.5,9.915,31.5,32.78c0,22.865-14.103,41.401-31.5,41.401
				c-1.702,0-3.372-0.18-5-0.521c15.021-3.149,26.501-20.252,26.501-40.88s-11.48-30.715-26.501-32.491
				C252.212,200.143,253.882,200.046,255.584,200.046z" class="colorffddce svgShape" clip-rule="evenodd"/><path fill="#a4fb80" fill-rule="evenodd" d="M195.612,378.276h119.945c5.523,0,10.027-4.505,10.027-10.027v-53.561c0-15.577-13.875-24.423-29.661-28.339
				c-26.507-6.575-53.379-7.019-80.678,0c-15.749,4.049-29.661,12.753-29.661,28.339v53.561
				C185.584,373.772,190.089,378.276,195.612,378.276z" class="color80b4fb svgShape" clip-rule="evenodd"/><path fill="#17b978" fill-rule="evenodd" d="M305.556,378.276h10c5.523,0,10.027-4.505,10.027-10.027v-53.561c0-15.577-13.875-24.423-29.661-28.339
				c-15.109-3.748-30.337-5.503-45.695-5.02c11.974,0.375,23.871,2.087,35.694,5.02c15.786,3.916,29.661,12.762,29.661,28.339
				v53.561C315.584,373.772,311.079,378.276,305.556,378.276z" class="color61a2f9 svgShape" clip-rule="evenodd"/><path fill="#ebffe3" fill-rule="evenodd" d="M427.69,289.426c17.397,0,31.501,9.915,31.501,32.78c0,22.865-14.104,41.401-31.501,41.401
				c-17.397,0-31.5-18.536-31.5-41.401C396.19,299.341,410.293,289.426,427.69,289.426z" class="colorffece3 svgShape" clip-rule="evenodd"/><path fill="#dcffce" fill-rule="evenodd" d="M427.69,289.426c17.397,0,31.501,9.915,31.501,32.78c0,22.865-14.104,41.401-31.501,41.401
				c-1.702,0-3.371-0.18-5-0.521c15.021-3.149,26.501-20.251,26.501-40.879c0-20.628-11.48-30.715-26.501-32.491
				C424.319,289.522,425.988,289.426,427.69,289.426z" class="colorffddce svgShape" clip-rule="evenodd"/><path fill="#a4fb80" fill-rule="evenodd" d="M367.718,467.656h119.945c5.523,0,10.027-4.505,10.027-10.027v-53.561c0-15.578-13.875-24.423-29.661-28.339
				c-26.507-6.575-53.379-7.019-80.678,0c-15.749,4.049-29.661,12.753-29.661,28.339v53.561
				C357.69,463.151,362.195,467.656,367.718,467.656z" class="color80b4fb svgShape" clip-rule="evenodd"/><path fill="#17b978" fill-rule="evenodd" d="M477.663,467.656h10c5.523,0,10.027-4.505,10.027-10.027v-53.561c0-15.578-13.875-24.423-29.661-28.339
				c-15.109-3.748-30.337-5.503-45.695-5.02c11.974,0.375,23.871,2.087,35.694,5.02c15.786,3.916,29.661,12.762,29.661,28.339
				v53.561C487.69,463.151,483.186,467.656,477.663,467.656z" class="color61a2f9 svgShape" clip-rule="evenodd"/><path fill="#ebffe3" fill-rule="evenodd" d="M84.31,289.426c17.397,0,31.501,9.915,31.501,32.78c0,22.865-14.104,41.401-31.501,41.401
				c-17.397,0-31.5-18.536-31.5-41.401C52.81,299.341,66.913,289.426,84.31,289.426z" class="colorffece3 svgShape" clip-rule="evenodd"/><path fill="#dcffce" fill-rule="evenodd" d="M84.31,289.426c17.397,0,31.501,9.915,31.501,32.78c0,22.865-14.104,41.401-31.501,41.401
				c-1.702,0-3.372-0.18-5-0.521c15.021-3.149,26.501-20.251,26.501-40.879c0-20.628-11.48-30.715-26.501-32.491
				C80.938,289.522,82.608,289.426,84.31,289.426z" class="colorffddce svgShape" clip-rule="evenodd"/><path fill="#a4fb80" fill-rule="evenodd" d="M24.337,467.656h119.945c5.523,0,10.027-4.505,10.027-10.027v-53.561c0-15.578-13.875-24.423-29.661-28.339
				c-26.507-6.575-53.379-7.019-80.678,0c-15.749,4.049-29.661,12.753-29.661,28.339v53.561
				C14.31,463.151,18.814,467.656,24.337,467.656z" class="color80b4fb svgShape" clip-rule="evenodd"/><path fill="#17b978" fill-rule="evenodd" d="M134.282,467.656h10c5.523,0,10.027-4.505,10.027-10.027v-53.561c0-15.578-13.875-24.423-29.661-28.339
				c-15.109-3.748-30.337-5.503-45.695-5.02c11.974,0.375,23.871,2.087,35.695,5.02c15.786,3.916,29.661,12.762,29.661,28.339
				v53.561C144.31,463.151,139.805,467.656,134.282,467.656z" class="color61a2f9 svgShape" clip-rule="evenodd"/><g fill="#071a52" class="color000 svgShape"><path fill="#ebffe3" fill-rule="evenodd" d="M391.814,44.344c17.397,0,31.5,9.915,31.5,32.78s-14.103,41.401-31.5,41.401
				c-17.397,0-31.5-18.536-31.5-41.401S374.418,44.344,391.814,44.344z" class="colorffece3 svgShape" clip-rule="evenodd"/><path fill="#dcffce" fill-rule="evenodd" d="M391.814,44.344c17.397,0,31.5,9.915,31.5,32.78s-14.103,41.401-31.5,41.401c-1.702,0-3.372-0.18-5-0.521
				c15.021-3.149,26.5-20.252,26.5-40.88s-11.48-30.715-26.5-32.491C388.443,44.441,390.113,44.344,391.814,44.344z" class="colorffddce svgShape" clip-rule="evenodd"/><path fill="#a4fb80" fill-rule="evenodd" d="M331.842,222.574h119.945c5.523,0,10.027-4.505,10.027-10.027v-53.561c0-15.577-13.875-24.423-29.661-28.339
				c-26.507-6.575-53.379-7.019-80.678,0c-15.749,4.049-29.661,12.753-29.661,28.339v53.561
				C321.815,218.07,326.319,222.574,331.842,222.574z" class="color80b4fb svgShape" clip-rule="evenodd"/><path fill="#17b978" fill-rule="evenodd" d="M441.787,222.574h10c5.523,0,10.027-4.505,10.027-10.027v-53.561c0-15.577-13.875-24.423-29.661-28.339
				c-15.109-3.748-30.337-5.503-45.695-5.02c11.974,0.375,23.871,2.087,35.694,5.02c15.786,3.916,29.661,12.762,29.661,28.339
				v53.561C451.814,218.07,447.31,222.574,441.787,222.574z" class="color61a2f9 svgShape" clip-rule="evenodd"/></g><g fill="#071a52" class="color000 svgShape"><path fill="#ebffe3" fill-rule="evenodd" d="M120.186,44.344c17.397,0,31.501,9.915,31.501,32.78s-14.104,41.401-31.501,41.401
				c-17.397,0-31.5-18.536-31.5-41.401S102.789,44.344,120.186,44.344z" class="colorffece3 svgShape" clip-rule="evenodd"/><path fill="#dcffce" fill-rule="evenodd" d="M120.186,44.344c17.397,0,31.501,9.915,31.501,32.78s-14.104,41.401-31.501,41.401
				c-1.702,0-3.372-0.18-5-0.521c15.021-3.149,26.501-20.252,26.501-40.88s-11.48-30.715-26.501-32.491
				C116.814,44.441,118.484,44.344,120.186,44.344z" class="colorffddce svgShape" clip-rule="evenodd"/><path fill="#a4fb80" fill-rule="evenodd" d="M60.213,222.574h119.945c5.523,0,10.027-4.505,10.027-10.027v-53.561c0-15.577-13.875-24.423-29.661-28.339
				c-26.507-6.575-53.379-7.019-80.678,0c-15.749,4.049-29.661,12.753-29.661,28.339v53.561
				C50.186,218.07,54.69,222.574,60.213,222.574z" class="color80b4fb svgShape" clip-rule="evenodd"/><path fill="#17b978" fill-rule="evenodd" d="M170.158,222.574h10c5.523,0,10.027-4.505,10.027-10.027v-53.561c0-15.577-13.875-24.423-29.661-28.339
				c-15.109-3.748-30.337-5.503-45.695-5.02c11.974,0.375,23.871,2.087,35.694,5.02c15.786,3.916,29.661,12.762,29.661,28.339
				v53.561C180.185,218.07,175.681,222.574,170.158,222.574z" class="color61a2f9 svgShape" clip-rule="evenodd"/></g><path fill="#071a52" fill-rule="evenodd" d="M317.572,368.25c0,1.1-0.92,2.031-2.019,2.031h-13.79V329.31c0-4.419-3.581-8-8.001-8
		c-4.411,0-8.001,3.581-8.001,8v40.971h-60.378V329.31c0-4.419-3.581-8-8.001-8c-4.421,0-8.001,3.581-8.001,8v40.971h-13.776
		c-1.099,0-2.033-0.93-2.033-2.031v-53.56c0-11.99,12.87-17.819,23.66-20.588c12.483-3.211,25.174-4.821,37.983-4.821
		c12.837,0,25.787,1.611,38.78,4.83c8.808,2.19,23.579,7.77,23.579,20.58V368.25L317.572,368.25z M255.571,208.051
		c10.719,0,23.499,4.289,23.499,24.78c0,18.099-10.761,33.399-23.499,33.399c-12.729,0-23.499-15.3-23.499-33.399
		C232.071,212.34,244.852,208.051,255.571,208.051L255.571,208.051z M297.842,278.581c-7.091-1.751-14.182-3.07-21.249-3.96
		c11.101-8.759,18.48-24.21,18.48-41.789c0-16.371-6.393-25.791-11.752-30.812c-6.978-6.518-16.569-9.97-27.75-9.97
		c-11.172,0-20.768,3.452-27.741,9.97c-5.359,5.02-11.757,14.441-11.757,30.812c0,17.54,7.36,32.969,18.418,41.739
		c-7.128,0.879-14.219,2.221-21.249,4.03c-22.669,5.829-35.671,18.98-35.671,36.089v53.56c0,9.941,8.091,18.031,18.031,18.031
		h119.95c9.94,0,18.017-8.09,18.017-18.031v-53.56C333.57,297.38,320.549,284.22,297.842,278.581L297.842,278.581z M489.705,457.63
		c0,1.1-0.944,2.031-2.076,2.031h-13.776V418.68c0-4.41-3.585-8-7.973-8c-4.435,0-8.02,3.59-8.02,8v40.981h-60.369V418.68
		c0-4.41-3.581-8-8.001-8c-4.421,0-7.997,3.59-7.997,8v40.981h-13.781c-1.099,0-2.033-0.931-2.033-2.031v-53.56
		c0-11.99,12.861-17.819,23.65-20.591c12.493-3.208,25.179-4.819,37.992-4.819c12.828,0,25.773,1.611,38.747,4.83
		c8.822,2.189,23.636,7.77,23.636,20.58V457.63L489.705,457.63z M349.681,404.07c0-17.109,13.002-30.26,35.671-36.09
		c7.029-1.809,14.111-3.149,21.24-4.03c-11.049-8.77-18.409-24.201-18.409-41.739c0-16.37,6.388-25.791,11.757-30.811
		c4.17-3.899,9.289-6.699,15.111-8.319l-8.469-52.511h-74.753c-9.94,0-18.027-8.079-18.027-18.02V158.99
		c0-17.11,13.007-30.26,35.671-36.089c7.025-1.81,14.12-3.15,21.249-4.04c-4.883-3.861-9.03-9.021-12.153-15.091H153.412
		c-3.133,6.1-7.308,11.28-12.21,15.15c7.058,0.881,14.149,2.201,21.24,3.961c22.711,5.639,35.742,18.79,35.742,36.109v53.559
		c0,9.941-8.091,18.02-18.031,18.02h-74.749l-8.473,52.511c5.822,1.62,10.941,4.419,15.111,8.319
		c5.369,5.02,11.761,14.441,11.761,30.811c0,17.579-7.393,33.03-18.48,41.789c7.067,0.89,14.148,2.21,21.239,3.96
		c22.707,5.64,35.737,18.791,35.737,36.11v15.69h187.381V404.07L349.681,404.07z M146.302,457.63c0,1.1-0.93,2.031-2.029,2.031
		h-13.781V418.68c0-4.41-3.581-8-8.001-8s-8.001,3.59-8.001,8v40.981H54.112V418.68c0-4.41-3.581-8-8.001-8
		c-4.421,0-7.997,3.59-7.997,8v40.981H24.333c-1.104,0-2.029-0.931-2.029-2.031v-53.56c0-11.99,12.856-17.819,23.646-20.591
		c12.493-3.208,25.184-4.819,37.992-4.819c12.828,0,25.792,1.611,38.771,4.83c8.808,2.189,23.589,7.77,23.589,20.58V457.63
		L146.302,457.63z M84.301,297.429c10.719,0,23.499,4.29,23.499,24.782c0,18.099-10.757,33.401-23.499,33.401
		c-12.738,0-23.499-15.302-23.499-33.401C60.802,301.72,73.582,297.429,84.301,297.429L84.301,297.429z M58.183,212.55V158.99
		c0-11.999,12.856-17.819,23.646-20.6c12.483-3.21,25.184-4.81,37.993-4.81c12.832,0,25.792,1.611,38.771,4.83
		c8.808,2.189,23.589,7.76,23.589,20.58v53.559c0,1.1-0.93,2.02-2.029,2.02h-13.781v-40.969c0-4.41-3.59-8-8.001-8
		c-4.42,0-7.997,3.59-7.997,8v40.969H89.981v-40.969c0-4.41-3.581-8-7.997-8c-4.411,0-8.001,3.59-8.001,8v40.969H60.202
		C59.103,214.57,58.183,213.65,58.183,212.55L58.183,212.55z M120.18,52.34c10.724,0,23.504,4.3,23.504,24.78
		c0,18.11-10.771,33.401-23.504,33.401c-12.738,0-23.499-15.29-23.499-33.401C96.68,56.64,109.451,52.34,120.18,52.34L120.18,52.34z
		 M391.802,52.34c10.728,0,23.499,4.3,23.499,24.78c0,18.11-10.761,33.401-23.499,33.401c-12.729,0-23.499-15.29-23.499-33.401
		C368.302,56.64,381.083,52.34,391.802,52.34L391.802,52.34z M453.803,158.99v53.559c0,1.1-0.943,2.02-2.029,2.02h-13.785v-40.969
		c0-4.41-3.576-8-7.997-8c-4.411,0-8.002,3.59-8.002,8v40.969h-60.378v-40.969c0-4.41-3.581-8-8.001-8c-4.411,0-8.001,3.59-8.001,8
		v40.969h-13.781c-1.099,0-2.029-0.92-2.029-2.02V158.99c0-11.999,12.87-17.819,23.66-20.6c12.483-3.21,25.169-4.81,37.992-4.81
		c12.828,0,25.778,1.611,38.771,4.83C439.031,140.6,453.803,146.171,453.803,158.99L453.803,158.99z M451.161,322.211
		c0,18.099-10.738,33.401-23.48,33.401c-12.738,0-23.499-15.302-23.499-33.401c0-20.491,12.781-24.782,23.499-24.782
		C438.404,297.429,451.161,301.72,451.161,322.211L451.161,322.211z M469.938,367.96c-7.076-1.75-14.153-3.079-21.23-3.96
		c11.087-8.759,18.493-24.21,18.493-41.789c0-16.37-6.416-25.791-11.794-30.811c-6.275-5.869-14.644-9.238-24.396-9.859
		l-8.219-50.971h28.981c9.954,0,18.022-8.079,18.022-18.02V158.99c0-17.32-13.021-30.47-35.723-36.109
		c-7.091-1.76-14.182-3.079-21.254-3.961c11.101-8.759,18.48-24.21,18.48-41.8c0-16.359-6.388-25.78-11.747-30.8
		c-6.978-6.528-16.569-9.981-27.75-9.981c-11.172,0-20.772,3.453-27.741,9.981c-5.359,5.02-11.757,14.441-11.757,30.8
		c0,3.66,0.326,7.221,0.939,10.65h-194.5c0.609-3.429,0.939-6.99,0.939-10.65c0-16.359-6.402-25.78-11.762-30.8
		c-6.968-6.528-16.569-9.981-27.74-9.981c-11.181,0-20.777,3.453-27.75,9.981c-5.359,5.02-11.747,14.441-11.747,30.8
		c0,17.55,7.35,32.98,18.409,41.741c-7.129,0.89-14.219,2.23-21.249,4.04c-22.66,5.829-35.662,18.98-35.662,36.089v53.559
		c0,9.941,8.082,18.02,18.022,18.02h28.991L80.97,281.54c-9.747,0.621-18.14,3.99-24.41,9.859
		c-5.369,5.02-11.757,14.441-11.757,30.811c0,17.539,7.355,32.969,18.409,41.739c-7.128,0.881-14.21,2.221-21.24,4.03
		c-22.669,5.829-35.671,18.98-35.671,36.09v53.56c0,9.94,8.091,18.031,18.032,18.031h119.94c9.941,0,18.027-8.09,18.027-18.031
		v-21.87h187.381v21.87c0,9.94,8.091,18.031,18.031,18.031h119.917c9.954,0,18.069-8.09,18.069-18.031v-53.56
		C505.699,386.751,492.677,373.6,469.938,367.96z" class="color000 svgShape" clip-rule="evenodd"/></svg></svg>