<svg xmlns="http://www.w3.org/2000/svg" xmlns:svgjs="http://svgjs.com/svgjs" xmlns:xlink="http://www.w3.org/1999/xlink" width="288" height="288"><svg xmlns="http://www.w3.org/2000/svg" width="288" height="288" data-name="Layer 1" viewBox="0 0 32 32"><path fill="#17b978" d="M5.777,30.377l-2.83-2.83a2,2,0,0,1,0-2.83l18.39-18.39,5.97-2.29,3.22-1.24-1.24,3.23L27,11.987,8.607,30.377A2,2,0,0,1,5.777,30.377Z" class="colorf5bdaf svgShape"/><polygon fill="#086972" points="6.567 21.097 7.977 22.517 10.807 25.347 12.227 26.757 10.727 28.247 9.317 26.837 6.487 24.007 5.077 22.597 6.567 21.097" class="color57565e svgShape"/><path fill="#76ed45" d="M5.777,30.377l-2.83-2.83a2,2,0,0,1,0-2.83l2.13-2.12,1.41,1.41,2.83,2.83,1.41,1.41-2.12,2.13A2,2,0,0,1,5.777,30.377Z" class="colored4569 svgShape"/><path fill="#071a52" d="M12.227 26.757l-1.42-1.41 12.77-12.77a2.006 2.006 0 0 1 1.42-.59h2zM7.977 22.517l-1.432-1.4L21.337 6.327v2a2.006 2.006 0 0 1-.59 1.42z" class="colore13442 svgShape"/><path fill="#e1e2e0" d="M4.133,24.691h4a2,2,0,0,1,2,2v3a0,0,0,0,1,0,0h-8a0,0,0,0,1,0,0v-3A2,2,0,0,1,4.133,24.691Z" class="colore0e0e2 svgShape" transform="rotate(-135 6.132 27.19)"/><path fill="#086972" d="M29.287,6.027h-.01a3.191,3.191,0,0,1-1.97-1.99l3.22-1.24Z" class="color57565e svgShape"/><path fill="#76ed45" d="M10.807,25.347l12.77-12.77a2.006,2.006,0,0,0,.59-1.42v-1a1,1,0,0,0-1-1h-1a2.006,2.006,0,0,0-1.42.59L7.977,22.517Z" class="colored4569 svgShape"/><path fill="#90bc7e" d="M29.173,30.48c-1.18,1.18-6.36-2.08-11.56-7.28-1.22-1.22-2.33-2.43-3.3-3.6-3.18-3.8-4.88-7.05-3.98-7.95s4.17.8,7.99,4c1.16.96,2.36,2.06,3.57,3.27C27.093,24.12,30.353,29.3,29.173,30.48Z" class="colorbc9a7e svgShape"/><path fill="#a7ff83" d="M18.323,15.65l-.02.02s-2.14,3.23-3.94,3.94a.175.175,0,0,1-.05-.01c-3.18-3.8-4.88-7.05-3.98-7.95S14.5,12.45,18.323,15.65Z" class="colorafaeb3 svgShape"/><path fill="#70f839" d="M1.715,1.038a14.036,14.036,0,0,0,.439,6.893,8.429,8.429,0,0,0,3.066,4.2c1.73,1.238,5.129,2.8,6.593.343.9-1.508.51-3.8-.352-5.239A5.337,5.337,0,0,0,7.451,4.688,25.2,25.2,0,0,1,4.534,4.5C3.058,4.165,1.382,2.7,1.715,1.038Z" class="colorf8a839 svgShape"/></svg></svg>