<svg xmlns="http://www.w3.org/2000/svg" xmlns:svgjs="http://svgjs.com/svgjs" xmlns:xlink="http://www.w3.org/1999/xlink" width="288" height="288"><svg xmlns="http://www.w3.org/2000/svg" width="288" height="288" data-name="Layer 1" viewBox="0 0 64 64"><circle cx="31" cy="29.778" r="2.25" fill="#086972" class="colorffd9a6 svgShape"/><path fill="#a0f87c" d="M34.56,35v4.16a7.964,7.964,0,0,1-7.12,0V35a2.006,2.006,0,0,1,2-2h3.12A2.006,2.006,0,0,1,34.56,35Z" class="color7cb2f8 svgShape"/><circle cx="55" cy="55" r="3" fill="#b2f895" class="color95c0f8 svgShape"/><circle cx="13.5" cy="55" r="3" fill="#b7ff99" class="colorffed99 svgShape"/><circle cx="15" cy="9" r="3" fill="#abd998" class="colord99899 svgShape"/><path fill="#17b978" d="M43.707,29.333a1.313,1.313,0,0,1-1.259-.906,11.95,11.95,0,0,0-.826-1.99,1.313,1.313,0,0,1,.247-1.535h0a1.293,1.293,0,0,0,0-1.829l-1.943-1.943a1.293,1.293,0,0,0-1.829,0v0a1.313,1.313,0,0,1-1.535.247,11.95,11.95,0,0,0-1.99-.826,1.313,1.313,0,0,1-.906-1.259A1.293,1.293,0,0,0,32.373,18H29.627a1.293,1.293,0,0,0-1.294,1.293v.028a1.271,1.271,0,0,1-.879,1.222,11.943,11.943,0,0,0-2.017.835,1.313,1.313,0,0,1-1.535-.247v0a1.293,1.293,0,0,0-1.829,0l-1.943,1.943a1.293,1.293,0,0,0,0,1.829h0a1.313,1.313,0,0,1,.247,1.535,11.95,11.95,0,0,0-.826,1.99,1.313,1.313,0,0,1-1.259.906A1.293,1.293,0,0,0,17,30.627v2.746a1.293,1.293,0,0,0,1.293,1.294,1.313,1.313,0,0,1,1.259.905,11.925,11.925,0,0,0,.826,1.991,1.313,1.313,0,0,1-.247,1.535h0a1.293,1.293,0,0,0,0,1.829l1.943,1.943a1.293,1.293,0,0,0,1.829,0v0a1.313,1.313,0,0,1,1.535-.247,11.95,11.95,0,0,0,1.99.826,1.313,1.313,0,0,1,.906,1.259A1.293,1.293,0,0,0,29.627,46h2.746a1.293,1.293,0,0,0,1.294-1.293,1.313,1.313,0,0,1,.906-1.259,11.95,11.95,0,0,0,1.99-.826,1.313,1.313,0,0,1,1.535.247v0a1.293,1.293,0,0,0,1.829,0l1.943-1.943a1.293,1.293,0,0,0,0-1.829h0a1.313,1.313,0,0,1-.247-1.535,11.943,11.943,0,0,0,.835-2.017,1.271,1.271,0,0,1,1.222-.879h.028A1.293,1.293,0,0,0,45,33.373V30.627A1.293,1.293,0,0,0,43.707,29.333ZM31,40a8,8,0,1,1,8-8A8,8,0,0,1,31,40Z" class="color748ca6 svgShape"/><circle cx="53.25" cy="28" r="3" fill="#a7ff83" class="color8fccc0 svgShape"/><path fill="#071a52" d="M19.422 41.635l1.943 1.944a2.3 2.3 0 0 0 3.221.02l.023-.023a.317.317 0 0 1 .363-.069 12.9 12.9 0 0 0 2.157.9.312.312 0 0 1 .2.3A2.3 2.3 0 0 0 29.627 47h2.746a2.3 2.3 0 0 0 2.294-2.293.312.312 0 0 1 .2-.3 12.826 12.826 0 0 0 2.157-.9.316.316 0 0 1 .364.069l.022.022a2.3 2.3 0 0 0 3.223-.02l1.942-1.943a2.294 2.294 0 0 0 0-3.244.315.315 0 0 1-.069-.363 12.841 12.841 0 0 0 .905-2.186.289.289 0 0 1 .3-.175A2.3 2.3 0 0 0 46 33.374V30.626a2.3 2.3 0 0 0-2.293-2.293.311.311 0 0 1-.3-.2 12.953 12.953 0 0 0-.9-2.158.316.316 0 0 1 .071-.365 2.293 2.293 0 0 0 0-3.242l-1.943-1.944a2.3 2.3 0 0 0-3.221-.02l-.023.023a.317.317 0 0 1-.363.069 12.9 12.9 0 0 0-2.157-.9.312.312 0 0 1-.2-.3A2.3 2.3 0 0 0 32.373 17H29.627a2.3 2.3 0 0 0-2.294 2.321.275.275 0 0 1-.175.267 12.89 12.89 0 0 0-2.185.9.316.316 0 0 1-.364-.069l-.022-.022a2.3 2.3 0 0 0-3.223.02l-1.942 1.943a2.294 2.294 0 0 0 0 3.244.314.314 0 0 1 .068.364A12.9 12.9 0 0 0 18.6 28.13a.313.313 0 0 1-.3.2A2.3 2.3 0 0 0 16 30.626v2.748a2.3 2.3 0 0 0 2.293 2.293.311.311 0 0 1 .3.2 12.953 12.953 0 0 0 .9 2.158.316.316 0 0 1-.071.365A2.293 2.293 0 0 0 19.422 41.635zm-1.129-7.968A.294.294 0 0 1 18 33.374V30.626a.294.294 0 0 1 .293-.293 2.3 2.3 0 0 0 2.214-1.608 10.864 10.864 0 0 1 .756-1.822 2.3 2.3 0 0 0-.427-2.71.293.293 0 0 1 0-.414l1.941-1.942a.3.3 0 0 1 .416 0l.023.022a2.3 2.3 0 0 0 2.686.405A10.939 10.939 0 0 1 27.75 21.5a2.269 2.269 0 0 0 1.583-2.206A.294.294 0 0 1 29.627 19h2.746a.294.294 0 0 1 .294.293 2.3 2.3 0 0 0 1.607 2.213 11 11 0 0 1 1.824.757 2.3 2.3 0 0 0 2.685-.4l.024-.023a.3.3 0 0 1 .415 0l1.942 1.943a.294.294 0 0 1 0 .416 2.3 2.3 0 0 0-.426 2.707 10.894 10.894 0 0 1 .758 1.824 2.3 2.3 0 0 0 2.213 1.607.294.294 0 0 1 .293.293v2.748a.3.3 0 0 1-.321.293A2.257 2.257 0 0 0 41.5 35.25a10.908 10.908 0 0 1-.765 1.847 2.3 2.3 0 0 0 .427 2.71.293.293 0 0 1 0 .414l-1.941 1.942a.3.3 0 0 1-.416 0l-.023-.022a2.3 2.3 0 0 0-2.687-.405 10.926 10.926 0 0 1-1.824.757 2.3 2.3 0 0 0-1.606 2.213.294.294 0 0 1-.294.293H29.627a.294.294 0 0 1-.294-.293 2.3 2.3 0 0 0-1.607-2.213 11 11 0 0 1-1.824-.757 2.28 2.28 0 0 0-1.062-.263 2.323 2.323 0 0 0-1.623.667l-.024.023a.3.3 0 0 1-.415 0l-1.942-1.943a.294.294 0 0 1 0-.416 2.3 2.3 0 0 0 .426-2.707 10.894 10.894 0 0 1-.758-1.824A2.3 2.3 0 0 0 18.293 33.667zM43.789 48.664L42.375 47.25A19.2 19.2 0 0 1 40.4 48.974l1.208 1.6A21.263 21.263 0 0 0 43.789 48.664z" class="color404040 svgShape"/><path fill="#071a52" d="M9.841,53.4a3.986,3.986,0,0,0,6.339,4.553,27.189,27.189,0,0,0,31.727-4.882A25.464,25.464,0,0,0,55.09,31.531a3.952,3.952,0,0,0-2.28-7.487,25.17,25.17,0,0,0-4.9-6.941,23.814,23.814,0,0,0-33.694,0,22.312,22.312,0,0,0,0,31.564,20.921,20.921,0,0,0,25.29,3.3L38.5,50.235a18.922,18.922,0,0,1-22.87-2.982,20.313,20.313,0,0,1,0-28.736,21.815,21.815,0,0,1,30.866,0,23.225,23.225,0,0,1,4.439,6.236,3.984,3.984,0,0,0,2.2,7.235,23.465,23.465,0,0,1-6.642,19.665,25.229,25.229,0,0,1-29.215,4.6A3.943,3.943,0,0,0,17.5,55a4,4,0,0,0-4-4,3.963,3.963,0,0,0-2.408.827c-.061-.059-.125-.115-.185-.174a27.01,27.01,0,0,1,0-38.186c.514-.513,1.026-.978,1.536-1.417A3.962,3.962,0,0,0,15,13a4,4,0,0,0,4-4,3.946,3.946,0,0,0-.182-1.129,28.83,28.83,0,0,1,33.075,5.6,31.27,31.27,0,0,1,4.715,37.876A4.062,4.062,0,1,0,58.2,52.621a33.293,33.293,0,0,0-4.89-40.568A30.82,30.82,0,0,0,17.793,6.145a3.984,3.984,0,0,0-6.52,4.275c-.591.5-1.186,1.039-1.78,1.633a29.009,29.009,0,0,0,0,41.014C9.605,53.179,9.726,53.285,9.841,53.4ZM53.25,30a2,2,0,1,1,2-2A2,2,0,0,1,53.25,30ZM13.5,53a2,2,0,1,1-2,2A2,2,0,0,1,13.5,53ZM55,57a2,2,0,1,1,2-2A2,2,0,0,1,55,57ZM15,7a2,2,0,1,1-2,2A2,2,0,0,1,15,7Z" class="color404040 svgShape"/><path fill="#071a52" d="M31,41a9,9,0,1,0-9-9A9.01,9.01,0,0,0,31,41Zm2.556-2.49a6.911,6.911,0,0,1-5.112,0V35a1,1,0,0,1,1-1h3.112a1,1,0,0,1,1,1ZM29.75,29.778A1.25,1.25,0,1,1,31,31.028,1.251,1.251,0,0,1,29.75,29.778ZM31,25a6.992,6.992,0,0,1,4.556,12.3V35a3,3,0,0,0-2.285-2.9,3.25,3.25,0,1,0-4.542,0A3,3,0,0,0,26.444,35v2.3A6.992,6.992,0,0,1,31,25Z" class="color404040 svgShape"/></svg></svg>