<svg xmlns="http://www.w3.org/2000/svg" xmlns:svgjs="http://svgjs.com/svgjs" xmlns:xlink="http://www.w3.org/1999/xlink" width="288" height="288"><svg xmlns="http://www.w3.org/2000/svg" width="288" height="288" viewBox="0 0 64 64"><g fill="#071a52" class="color000 svgShape" transform="translate(-316.999 -1468.362)"><g class="color000 svgShape" transform="translate(205 220)"><path fill="#17b978" fill-rule="evenodd" d="M174.501 1299.953v3.455a3.435 3.435 0 0 1-3.43 3.454H118.93c-1.9 0-3.46-1.54-3.43-3.454l.05-3.455" class="colord7edff svgShape"/><path fill="none" stroke="#1c767e" stroke-linejoin="round" d="M174.501 1299.953v3.455a3.435 3.435 0 0 1-3.43 3.454H118.93c-1.9 0-3.46-1.54-3.43-3.454l.05-3.455" class="colorStroke1c4d7e svgStroke"/><path fill="#fff" d="M172.47 1281.989a2.748 2.748 0 0 0-2.745-2.764h-49.397a2.748 2.748 0 0 0-2.744 2.764l-2.03 17.964c0 2.073 1.135 4.146 3.789 4.146H170.3c2.655 0 4.201-2.073 4.201-4.146z" class="colorfff svgShape"/><path fill="#17b978" fill-rule="evenodd" d="m165.354 1279.416 1.372 21.919H122.91l1.373-21.919" class="colord7edff svgShape"/><path fill="#a4d78f" fill-rule="evenodd" d="m123.78 1279.517-1.37 22.318h44.316l-.155-1.972H125.6c-1.1 0-1.04-.994-1.04-.994l1.159-19.352z" class="color8fb6d7 svgShape"/><path fill="none" stroke="#1c767e" d="m120.528 1288.207-.412 4.146" class="colorStroke1c4d7e svgStroke"/><ellipse cx="119.845" cy="1294.425" fill="#086972" class="color1c4d7e svgShape" rx=".686" ry=".691"/><path fill="#f2f2f2" d="M169.845 1279.257a2.74 2.74 0 0 1 2.448 2.732l2.03 17.965c0 2.073-1.136 4.144-3.79 4.144h-50.957c-1.633 0-2.836-.786-3.524-1.873.338.081.693.137 1.079.137h50.957c2.653 0 3.789-2.074 3.789-4.146l-.043-.385c.022-.203.043-.408.043-.613l-2.032-17.961z" class="colorf2f2f2 svgShape"/><path fill="#f2f2f2" d="M120.03 1279.257a2.74 2.74 0 0 0-2.447 2.732l-2.03 17.965c0 2.073 1.136 4.144 3.79 4.144H170.3c1.633 0 2.836-.786 3.524-1.873a4.569 4.569 0 0 1-1.079.137h-50.957c-2.653 0-3.789-2.074-3.789-4.146l.043-.385a5.532 5.532 0 0 1-.043-.613l2.032-17.961z" class="colorf2f2f2 svgShape"/><path fill="none" stroke="#1c767e" stroke-linecap="round" stroke-linejoin="round" d="m165.354 1279.416 1.372 21.919H122.91l1.373-21.919" class="colorStroke1c4d7e svgStroke"/><path fill="none" stroke="#1c767e" d="M172.47 1281.989a2.748 2.748 0 0 0-2.745-2.764h-49.397a2.748 2.748 0 0 0-2.744 2.764l-2.03 17.964c0 2.073 1.135 4.146 3.789 4.146H170.3c2.655 0 4.201-2.073 4.201-4.146z" class="colorStroke1c4d7e svgStroke"/><ellipse cx="-19.44" cy="1305.815" fill="#17b978" stroke="#1c767e" stroke-width="1.007" class="colord7edff svgShape colorStroke1c4d7e svgStroke" rx="1.377" ry="1.397" transform="matrix(.99978 .02112 .1447 .98948 0 0)"/></g><path fill="#4a9ca4" d="M346.146 1509.862h8.063v2h-8.063z" class="color4a79a4 svgShape"/><rect width="14.063" height="2" x="343.146" y="1505.855" fill="#4a9ca4" class="color4a79a4 svgShape" rx="1" ry="1"/><path fill="#408e95" d="M344.146 1505.819v-1.964h12v1.955m0 2.283v1.77h-12v-1.87" class="color406b95 svgShape"/><path fill="#a7ff83" d="M355.292 1504.142v-3.46a10.965 10.965 0 0 0 5.846-9.69c0-6.056-4.907-10.964-10.96-10.964-6.053 0-10.96 4.908-10.96 10.964a10.965 10.965 0 0 0 5.845 9.69v3.46" class="colorfcd062 svgShape"/><path fill="#83f853" d="M350.178 1480.028c-.36 0-.717.02-1.069.055 5.55.538 9.891 5.214 9.891 10.908a10.966 10.966 0 0 1-5.846 9.69v3.46h2.139v-3.46a10.964 10.964 0 0 0 5.844-9.69c0-6.055-4.906-10.963-10.96-10.963z" class="colorf8c253 svgShape"/><path fill="none" stroke="#1c767e" d="M355.334 1504.145v-3.491a11.041 11.041 0 0 0 5.886-9.757c0-6.098-4.94-11.041-11.036-11.041-6.095 0-11.037 4.943-11.037 11.04a11.042 11.042 0 0 0 5.886 9.758v3.49" class="colorStroke1c4d7e svgStroke"/><path fill="none" stroke="#eaede9" d="M348.146 1493.697v10.27m4-10.27v10.27" class="colorStrokee9eded svgStroke"/><path fill="none" stroke="#1c767e" stroke-linecap="round" stroke-linejoin="round" d="M346.146 1509.862h8.063v2h-8.063z" class="colorStroke1c4d7e svgStroke"/><path fill="none" stroke="#1c767e" stroke-linecap="round" stroke-linejoin="round" d="M344.146 1505.819v-1.964h12v1.955m0 2.283v1.77h-12v-1.87" class="colorStroke1c4d7e svgStroke"/><path fill="none" stroke="#eaede9" d="M354.646 1493.855h-9" class="colorStrokee9eded svgStroke"/><path fill="none" stroke="#1c767e" d="M341.146 1491.305a9.448 9.45 0 0 1 9.448-9.45" class="colorStroke1c4d7e svgStroke"/><path fill="none" stroke="#1c767e" stroke-width="1.149" d="M-932.13 1978.579a4.21 16.525 0 0 1-5.88 3.523 4.21 16.525 0 0 1-.912-23.064 4.21 16.525 0 0 1 5.874-3.638" class="colorStroke1c4d7e svgStroke" transform="skewX(40.772) scale(1 .75732)"/><path fill="none" stroke="#1c767e" stroke-width="1.149" d="M-1632.487 1978.579a4.21 16.525 0 0 1-5.878 3.523 4.21 16.525 0 0 1-.913-23.064 4.21 16.525 0 0 1 5.875-3.638" class="colorStroke1c4d7e svgStroke" transform="skewX(40.772) scale(1 -.75732)"/><path fill="none" stroke="#1c767e" d="M-1478.501-338.756a4.21 14.298 0 0 1-5.54-2.597 4.21 14.298 0 0 1 .105-18.982 4.21 14.298 0 0 1 5.563-1.896" class="colorStroke1c4d7e svgStroke" transform="matrix(0 -1 -.99952 -.03087 0 0)"/><circle style="isolation:auto;mix-blend-mode:normal" cx="334.646" cy="1505.855" r="1" fill="#4aff00" class="colorff9800 svgShape" color="#000" overflow="visible"/><circle style="isolation:auto;mix-blend-mode:normal" cx="334.646" cy="1505.855" r="1" fill="none" stroke="#1c767e" stroke-linecap="round" stroke-linejoin="round" class="colorStroke1c4d7e svgStroke" color="#000" overflow="visible"/><circle style="isolation:auto;mix-blend-mode:normal" cx="366.146" cy="1498.862" r=".756" fill="#4aff00" class="colorff9800 svgShape" color="#000" overflow="visible"/><circle style="isolation:auto;mix-blend-mode:normal" cx="366.146" cy="1498.862" r="1" fill="none" stroke="#1c767e" stroke-linecap="round" stroke-linejoin="round" class="colorStroke1c4d7e svgStroke" color="#000" overflow="visible"/><circle style="isolation:auto;mix-blend-mode:normal" cx="354.146" cy="1475.855" r="1" fill="#4aff00" class="colorff9800 svgShape" color="#000" overflow="visible"/><circle style="isolation:auto;mix-blend-mode:normal" cx="354.146" cy="1475.855" r="1" fill="none" stroke="#1c767e" stroke-linecap="round" stroke-linejoin="round" class="colorStroke1c4d7e svgStroke" color="#000" overflow="visible"/><path fill="none" stroke="#1c767e" d="M333.5 1497.362v-3m-1.5 1.5h3m13.146 16.008v1.492m4-1.492v1.492" class="colorStroke1c4d7e svgStroke"/><rect width="14.063" height="2" x="343.146" y="1505.855" fill="none" stroke="#1c767e" class="colorStroke1c4d7e svgStroke" rx="1" ry="1"/><path fill="none" stroke="#1c767e" d="M343.507 1475.362v-2.986m-1.493 1.493H345m22.44 15.054 2.12-2.121m-2.12 0 2.12 2.12m-36.318-3.802 1.404-1.404m-1.404 0 1.404 1.404" class="colorStroke1c4d7e svgStroke"/></g></svg></svg>