<svg xmlns="http://www.w3.org/2000/svg" xmlns:svgjs="http://svgjs.com/svgjs" xmlns:xlink="http://www.w3.org/1999/xlink" width="288" height="288"><svg xmlns="http://www.w3.org/2000/svg" width="288" height="288" viewBox="0 0 64 64"><g fill="#071a52" class="color000 svgShape" data-name="Layer 25"><path fill="#086972" fill-rule="evenodd" d="M46.66 48.7H21.88a7.41 7.41 0 0 1-7.28-6.35l1.84-1.05.88-.51h24.77a7.4 7.4 0 0 0 7.37-7.37V15.53h3.18A7.4 7.4 0 0 1 60 22.9v33.51l-12.45-7.2Z" class="colorfe3745 svgShape"/><path fill="#a7ff83" fill-rule="evenodd" d="M17.32 40.79h24.77a7.4 7.4 0 0 0 7.37-7.37V15a7.4 7.4 0 0 0-7.37-7.37H11.36A7.4 7.4 0 0 0 4 15v33.47l12.44-7.17Z" class="colorffc987 svgShape"/><path fill="#17b978" d="M14 17.2a.88.88 0 0 1-.88-.88.86.86 0 0 1 .88-.85h25.48a.83.83 0 0 1 .85.85.85.85 0 0 1-.85.88zm0 8.34a.89.89 0 0 1-.88-.88.88.88 0 0 1 .88-.85h25.48a.84.84 0 0 1 .85.85.86.86 0 0 1-.85.88zm0 8.33a.87.87 0 1 1 0-1.73h25.48a.87.87 0 0 1 0 1.73z" class="color1e99d6 svgShape"/></g></svg></svg>