<svg xmlns="http://www.w3.org/2000/svg" xmlns:svgjs="http://svgjs.com/svgjs" xmlns:xlink="http://www.w3.org/1999/xlink" width="288" height="288"><svg xmlns="http://www.w3.org/2000/svg" width="288" height="288" data-name="Layer 1" viewBox="0 0 32 32"><path fill="#8a9088" d="M11.5,3a.5.5,0,0,1-.5-.5A1.5,1.5,0,0,0,9.5,1h-1A1.5,1.5,0,0,0,7,2.5a.5.5,0,0,1-1,0A2.5,2.5,0,0,1,8.5,0h1A2.5,2.5,0,0,1,12,2.5.5.5,0,0,1,11.5,3Z" class="color8c8890 svgShape"/><path fill="#41a9b3" d="M27.5,21.5v9a1,1,0,0,1-1,1H22.4a1,1,0,0,1-.99-.9L20.55,22l-.05-.5Z" class="color416fb3 svgShape"/><path fill="#d9dad8" d="M17.5,15.5v1a2,2,0,0,1-2,2H2.5a2,2,0,0,1-2-2V4.5a2,2,0,0,1,2-2h13a2,2,0,0,1,2,2v11Z" class="colord9d8da svgShape"/><path fill="#565b5c" d="M8 20.5h2a0 0 0 0 1 0 0V31a.5.5 0 0 1-.5.5h-1A.5.5 0 0 1 8 31V20.5A0 0 0 0 1 8 20.5zM2.618 31.5H1.655a.5.5 0 0 1-.482-.632L4 20.5H6L3.1 31.132A.5.5 0 0 1 2.618 31.5zM15.382 31.5h.963a.5.5 0 0 0 .482-.632L14 20.5H12l2.9 10.632A.5.5 0 0 0 15.382 31.5z" class="color57565c svgShape"/><path fill="#8a9088" d="M2.5,18.5h13a0,0,0,0,1,0,0v1a1,1,0,0,1-1,1H3.5a1,1,0,0,1-1-1v-1A0,0,0,0,1,2.5,18.5Z" class="color8c8890 svgShape"/><path fill="#76ed45" d="M30.5,15.5v6a2.006,2.006,0,0,1-2,2h-1v-2h-7v-7l-3,.75-.54.13a.943.943,0,0,1-.84-.17L14.5,14l-.8-.6A3,3,0,0,1,12.5,11V9.5l4,3,4-1h6A4,4,0,0,1,30.5,15.5Z" class="colored456a svgShape"/><path fill="#a7ff83" fill-rule="evenodd" d="M30.5,20.5v1a2.006,2.006,0,0,1-2,2h-1v-3Z" class="colorffd9aa svgShape"/><path fill="#a1fd7b" d="M26,10v2a1.5,1.5,0,0,1-1.5,1.5h0A1.5,1.5,0,0,1,23,12V10Z" class="colorfdc47b svgShape"/><polygon fill="#76ed45" points="5.988 5.14 7.26 8.932 9.939 5.962 5.988 5.14" class="colored456a svgShape"/><path fill="#17b978" d="M6.5,12.5,9.152,9.506a4,4,0,1,1-3.958-.787Z" class="color3fb47e svgShape"/><path fill="#76ed45" d="M15.5,6h-3a.5.5,0,0,1,0-1h3a.5.5,0,0,1,0,1Z" class="colored456a svgShape"/><path fill="#17b978" d="M15.5,8h-3a.5.5,0,0,1,0-1h3a.5.5,0,0,1,0,1Z" class="color3fb47e svgShape"/><path fill="#a7ff83" d="M14.5,11v3l-.8-.6A3,3,0,0,1,12.5,11V9.5Z" class="colorffd9aa svgShape"/><circle cx="24.5" cy="7.5" r="3.5" fill="#565c5d" class="color57565d svgShape"/><path fill="#a7ff83" d="M27.717,7.562l-3.078-.874a2,2,0,0,0-1.295.069l-2.106.849-.218.089a3.486,3.486,0,0,0,6.965-.037Z" class="colorffd9aa svgShape"/><path fill="#071a52" d="M27.5,17.5V21h-1V17.5a.5.5,0,0,1,1,0Z" class="colore13442 svgShape"/><path fill="#086972" d="M25,24.5v7H24v-7a.5.5,0,0,1,1,0Z" class="color23579f svgShape"/><path fill="#071a52" d="M14.98,14.36a1.1,1.1,0,0,0,.02-.18v-2.8L14.5,11l-.49-.37a.487.487,0,0,0-.01.12v2.88Z" class="colore13442 svgShape"/><rect width="3" height="1" x="27.5" y="20" fill="#071a52" class="colore13442 svgShape"/><polygon fill="#071a52" points="27.5 21 20.5 21 20.5 21.5 20.56 22 27.5 22 27.5 21" class="colore13442 svgShape"/></svg></svg>