<svg xmlns="http://www.w3.org/2000/svg" xmlns:svgjs="http://svgjs.com/svgjs" xmlns:xlink="http://www.w3.org/1999/xlink" width="288" height="288"><svg xmlns="http://www.w3.org/2000/svg" width="288" height="288" viewBox="0 0 32 32"><path fill="#a7ff83" fill-rule="evenodd" d="M14.496 13.224v14.774s-8.093-3.463-11.484-4.91l-.01-.017V8.306l.01.019 11.474 4.91z" class="colorfcd062 svgShape"/><path fill="#17b978" fill-rule="evenodd" d="m25.98 8.305-.01.018-11.474 4.911V28l11.475-4.912.01-.018V8.305z" class="colorf8aa3a svgShape"/><path fill="#071a52" fill-rule="evenodd" d="M14.304 3.397 3 8.307v.012l11.497 4.933 11.503-4.945-11.384-4.91h-.31z" class="colorf8b84e svgShape"/><path fill="none" stroke="#086972" stroke-linecap="round" stroke-linejoin="round" stroke-width=".908" d="m22.194 21.605-2.868 1.227-2.869 1.228m2.869-3.191-2.869 1.227" class="colorStroke1c4d7e svgStroke"/><path fill="#eaede9" fill-rule="evenodd" d="m18.043 4.88-.07.026-11.42 4.938v6.935l2.027-1 2 3-.002-7.206L22 6.583z" class="colore9eded svgShape"/></svg></svg>