<svg xmlns="http://www.w3.org/2000/svg" width="32" height="32"><path fill="#b4ea7a" d="M28.425 14.514A12.375 12.375 0 0 1 16.05 26.889 12.375 12.375 0 0 1 3.675 14.514 12.375 12.375 0 0 1 16.05 2.139a12.375 12.375 0 0 1 12.375 12.375z"/><g fill="#3a3640" fill-rule="evenodd" color="#000" font-family="sans-serif" font-weight="400"><path d="M2694 1858.41a.5.5 0 0 0-.5.5v26a.5.5 0 0 0 .5.5h22a.5.5 0 0 0 .5-.5v-9.75a.5.5 0 1 0-1 0v9.25h-21v-25h15.768l5.232 6.184v2.316a.5.5 0 1 0 1 0v-2.5a.5.5 0 0 0-.12-.322l-5.5-6.5a.5.5 0 0 0-.38-.178z" overflow="visible" style="line-height:normal;text-indent:0;text-align:start;text-decoration-line:none;text-decoration-style:solid;text-decoration-color:#000;text-transform:none;white-space:normal;isolation:auto;mix-blend-mode:normal;solid-color:#000;solid-opacity:1" transform="translate(-2691 -1855.55)"/><path d="M2710.492 1858.41a.5.5 0 0 0-.492.508v6.492a.5.5 0 0 0 .5.5h5.492a.5.5 0 1 0 0-1H2711v-5.992a.5.5 0 0 0-.508-.508zm7.297 10a.5.5 0 0 0-.348.147l-8.326 8.326a.5.5 0 0 0-.11.168l-1.47 3.674a.5.5 0 0 0 .65.65l3.674-1.47a.5.5 0 0 0 .168-.11l8.326-8.326a.5.5 0 0 0 0-.707l-2.203-2.205a.5.5 0 0 0-.36-.147zm.01 1.207 1.498 1.498-7.9 7.9-2.494.997.998-2.496z" overflow="visible" style="line-height:normal;text-indent:0;text-align:start;text-decoration-line:none;text-decoration-style:solid;text-decoration-color:#000;text-transform:none;white-space:normal;isolation:auto;mix-blend-mode:normal;solid-color:#000;solid-opacity:1" transform="translate(-2691 -1855.55)"/><path d="M2709.709 1876.977a.5.5 0 0 0-.348.859l1.713 1.713a.5.5 0 1 0 .707-.707l-1.713-1.713a.5.5 0 0 0-.359-.152zm-12.201-9.067a.5.5 0 1 0 0 1h5.742a.5.5 0 1 0 0-1zm7.506 0a.5.5 0 1 0 0 1h.986a.5.5 0 1 0 0-1zm2.75 0a.5.5 0 1 0 0 1h2.736a.5.5 0 1 0 0-1zm-5 3.5a.5.5 0 1 0 0 1h7.736a.5.5 0 1 0 0-1zm-3.75 0a.5.5 0 1 0 0 1H2701a.5.5 0 1 0 0-1zm-1.764 0a.5.5 0 1 0 0 1h.258a.5.5 0 1 0 0-1zm.258 3.5a.5.5 0 1 0 0 1h3.742a.5.5 0 1 0 0-1zm5.506 0a.5.5 0 1 0 0 1h.986a.5.5 0 1 0 0-1zm-2.506 3.5a.5.5 0 1 0 0 1H2704a.5.5 0 1 0 0-1zm-3 0a.5.5 0 1 0 0 1h1.234a.5.5 0 1 0 0-1z" overflow="visible" style="line-height:normal;text-indent:0;text-align:start;text-decoration-line:none;text-decoration-style:solid;text-decoration-color:#000;text-transform:none;white-space:normal;isolation:auto;mix-blend-mode:normal;solid-color:#000;solid-opacity:1" transform="translate(-2691 -1855.55)"/></g></svg>