<svg xmlns="http://www.w3.org/2000/svg" xmlns:svgjs="http://svgjs.com/svgjs" xmlns:xlink="http://www.w3.org/1999/xlink" width="288" height="288"><svg xmlns="http://www.w3.org/2000/svg" width="288" height="288" viewBox="0 0 32 32"><g fill="#071a52" class="color000 svgShape" transform="matrix(.99206 0 0 .9923 -.537 -1012.5)"><path fill="none" stroke="#086972" stroke-linecap="round" stroke-linejoin="round" stroke-width="1.008" d="M13.5 1020.87v15.992h13.993" class="colorStroke0c5286 svgStroke"/><path fill="none" stroke="#2dbc83" stroke-width="1.008" d="m16.35 1033.574 2.32-4.127m.706-.097 3.219 2.845m.773-.28 3.19-6.089" class="colorStroke2dbca4 svgStroke"/><path fill="#408e95" d="M20 1020.362h-3v1h3zM20 1022.362h-3v1h3z" class="color406b95 svgShape"/><path fill="#17b978" d="M16 1020.362h-1v1h1z" class="color2dbca4 svgShape"/><path fill="#98ee75" d="M16 1022.362h-1v1h1z" class="coloree7581 svgShape"/><ellipse cx="15.939" cy="1034.362" fill="none" stroke="#086972" stroke-linecap="square" stroke-width="1.008" style="isolation:auto;mix-blend-mode:normal" class="colorStroke0c5286 svgStroke" color="#000" overflow="visible" rx=".495" ry=".5"/><ellipse cx="18.944" cy="1029.362" fill="none" stroke="#086972" stroke-linecap="square" stroke-width="1.008" style="isolation:auto;mix-blend-mode:normal" class="colorStroke0c5286 svgStroke" color="#000" overflow="visible" rx=".495" ry=".5"/><ellipse cx="22.944" cy="1032.362" fill="none" stroke="#086972" stroke-linecap="square" stroke-width="1.008" style="isolation:auto;mix-blend-mode:normal" class="colorStroke0c5286 svgStroke" color="#000" overflow="visible" rx=".495" ry=".5"/><ellipse cx="26.95" cy="1025.362" fill="none" stroke="#086972" stroke-linecap="square" stroke-width="1.008" style="isolation:auto;mix-blend-mode:normal" class="colorStroke0c5286 svgStroke" color="#000" overflow="visible" rx=".495" ry=".5"/><path fill="#a7ff83" d="m10.624 1041.934-1.32 2.285-.827 1.43-.702 1.215-.595 1.03-1.143 1.978a1.487 1.487 0 0 0 .545 2.037 1.49 1.49 0 0 0 2.038-.547l4.587-7.938" class="coloreb8e68 svgShape"/><path fill="#17b978" stroke="#107c86" stroke-linejoin="round" stroke-width="1.008" d="m12.234 1037.862-2.381 4.12 3.699 2.133 2.38-4.12" class="color2dbca4 svgShape colorStroke105286 svgStroke"/><path fill="#17b978" d="M17.658 1024.985a8.094 8.103 53.96 0 0-7.207 4.052 8.094 8.103 53.96 0 0 2.96 11.059 8.094 8.103 53.96 0 0 11.065-2.97 8.094 8.103 53.96 0 0-2.96-11.06 8.094 8.103 53.96 0 0-3.858-1.08zm-.036 1.492a6.603 6.61 53.96 0 1 3.148.881 6.603 6.61 53.96 0 1 2.414 9.023 6.603 6.61 53.96 0 1-9.028 2.422 6.603 6.61 53.96 0 1-2.414-9.023 6.603 6.61 53.96 0 1 5.88-3.303z" class="color2dbca4 svgShape"/><path fill="none" stroke="#107c86" stroke-linejoin="round" stroke-width="1.008" d="M-525.423 886.161a6.604 6.61 0 0 1-5.782 6.558 6.604 6.61 0 0 1-7.222-4.924 6.604 6.61 0 0 1 3.982-7.784 6.604 6.61 0 0 1 8.214 2.984" class="colorStroke105286 svgStroke" transform="matrix(-.86623 -.49964 -.50036 .86582 0 0)"/><path fill="none" stroke="#107c86" stroke-linejoin="round" stroke-width="1.008" d="m10.624 1041.934-1.32 2.285m-.827 1.43-.259.448m-.292.505-.15.262-.596 1.03-1.143 1.978a1.487 1.487 0 0 0 .545 2.037 1.49 1.49 0 0 0 2.038-.547l4.587-7.938" class="colorStroke105286 svgStroke"/><ellipse cx="-532.028" cy="886.161" fill="none" stroke="#107c86" stroke-linejoin="round" stroke-width="1.008" class="colorStroke105286 svgStroke" rx="8.096" ry="8.102" transform="matrix(-.86623 -.49964 -.50036 .86582 0 0)"/></g></svg></svg>