<?xml version="1.0" encoding="UTF-8" standalone="no"?> <svg id="Layer_1" data-name="Layer 1" xmlns="http://www.w3.org/2000/svg" viewBox="0 0 128 128"><defs><style>.cls-1{fill:#2e79bd;}.cls-2{fill:#2d3e50;}</style></defs><title>b</title><path class="cls-1" d="M95.30418,29.027q-.31725-.89591-.68736-1.76834A33.27932,33.27932,0,0,0,64.23794,6.9434c-.07834-.002-.15862-.002-.237-.002s-.16058,0-.23891.002A33.28,33.28,0,0,0,33.38123,27.25865q-.36718.87243-.6854,1.76834a33.24338,33.24338,0,0,0,0,22.28528q.31725.89591.68736,1.76638A33.41611,33.41611,0,0,0,47.50243,69.00147a15.87009,15.87009,0,0,1,1.52551-3.56016A29.5599,29.5599,0,0,1,37.60918,53.07865h9.64259a42.29476,42.29476,0,0,0,3.49749,9.952c.01567-.01958.03133-.03916.049-.05875a15.87171,15.87171,0,0,1,2.92568-2.61431,39.90935,39.90935,0,0,1-2.5066-7.27894H62.07794v4.46293c.235-.01175.47-.01763.707-.01763h1.93087c.40341,0,.80681.01567,1.2063.047V53.07865H76.78075A39.425,39.425,0,0,1,74.14882,60.622a15.82091,15.82091,0,0,1,2.5536,2.34994c.12142.139.24088.282.35641.425.03721-.06855.07442-.13708.10966-.20758a42.06253,42.06253,0,0,0,3.57779-10.11063h9.64456A29.59066,29.59066,0,0,1,78.598,65.66063a15.8627,15.8627,0,0,1,1.46871,3.58562,33.43876,33.43876,0,0,0,14.55006-16.1676q.37012-.86949.68736-1.76638a33.24338,33.24338,0,0,0,0-22.28528ZM46.53307,49.23454H36.05038a29.3789,29.3789,0,0,1,0-18.12981h10.4827a61.86142,61.86142,0,0,0,0,18.12981Zm-8.9239-21.97588A29.53778,29.53778,0,0,1,53.718,12.644a27.09964,27.09964,0,0,0-2.88847,4.506,42.21577,42.21577,0,0,0-3.57778,10.10867ZM62.07794,49.23454h-11.64a56.91567,56.91567,0,0,1,0-18.12981h11.64Zm0-21.97588H51.2173c2.09145-8.52245,6.151-14.82226,10.86064-16.19306Zm3.84412-16.19306c4.70967,1.36884,8.76725,7.67061,10.85869,16.19306H65.92206Zm11.64,38.16895h-11.64V31.10473h11.64a56.91475,56.91475,0,0,1,0,18.12981ZM77.16849,17.15A27.09887,27.09887,0,0,0,74.28,12.644,29.53372,29.53372,0,0,1,90.39083,27.25865H80.74628A42.04677,42.04677,0,0,0,77.16849,17.15ZM91.95159,49.23454H81.46693a62.04048,62.04048,0,0,0,0-18.12981H91.95159a29.45554,29.45554,0,0,1,0,18.12981Z"/><path class="cls-2" d="M87.55651,102.44087c-5.37867-2.68129-17.1831-6.64366-17.1831-6.64366h-.99866l-3.23,4.30939L69.173,121.05836H91.73473a124.92982,124.92982,0,0,0-1.0854-14.45139A5.74475,5.74475,0,0,0,87.55651,102.44087Z"/><path class="cls-2" d="M74.20242,83.33l1.62545-8.3783a11.21614,11.21614,0,0,0-11.112-12.72758H62.78508a11.21614,11.21614,0,0,0-11.112,12.72758L53.2985,83.33a10.64786,10.64786,0,0,0,20.90391,0Z"/><path class="cls-2" d="M57.12751,95.7972s-11.80443,3.96237-17.1831,6.64366a5.74475,5.74475,0,0,0-3.09283,4.16611,124.92982,124.92982,0,0,0-1.0854,14.45139H58.32793l3.02828-20.95177-3.23-4.30939Z"/><path class="cls-2" d="M125.5401,121.05856h-29.104l-.002-.0842a128.30016,128.30016,0,0,0-1.15342-15.16692,10.42143,10.42143,0,0,0-2.01116-4.58238c2.02291-.7187,3.45637-1.20043,3.45637-1.20043V96.77974l-.27415-.20758a9.38777,9.38777,0,0,1-3.566-5.9669l-.05483-.34466h-.26634A3.626,3.626,0,0,1,89.208,88.0027a3.95839,3.95839,0,0,1-.49349-1.91325,3.63789,3.63789,0,0,1,.2585-1.34534,1.87846,1.87846,0,0,1,.72653-1.16909l.90668-.55224-.2252-.98306c-1.63712-7.1399,3.895-13.57288,11.32085-13.74911.18212-.00392.36032-.00588.53853-.002.17625-.00392.35445-.002.53657.002,7.42777.17624,12.958,6.60921,11.32085,13.74911l-.2252.98306.90668.55224a1.87279,1.87279,0,0,1,.72849,1.16909,3.63625,3.63625,0,0,1,.25653,1.34534,3.93674,3.93674,0,0,1-.49349,1.91325,3.626,3.626,0,0,1-3.35649,2.2579H111.648l-.05483.34466a9.38777,9.38777,0,0,1-3.566,5.9669l-.2722.20758v3.24488s9.82667,3.29775,14.30528,5.53216a4.77359,4.77359,0,0,1,2.57514,3.46812A104.12982,104.12982,0,0,1,125.5401,121.05856Z"/><path class="cls-2" d="M39.28547,86.08946A3.95839,3.95839,0,0,1,38.792,88.0027a3.62874,3.62874,0,0,1-3.35846,2.2579h-.26632l-.05483.34466a9.38524,9.38524,0,0,1-3.56408,5.9669l-.27416.20758v3.24488s1.25135.41906,3.06472,1.06139a10.45875,10.45875,0,0,0-2.11887,4.7273,128.147,128.147,0,0,0-1.15343,15.161l-.002.0842H2.4599a103.94864,103.94864,0,0,1,.90278-12.03367,4.77846,4.77846,0,0,1,2.57514-3.46812c4.4786-2.23441,14.30723-5.53216,14.30723-5.53216V96.77974l-.27415-.20758a9.38519,9.38519,0,0,1-3.56408-5.9669L16.352,90.2606h-.26632a3.62871,3.62871,0,0,1-3.35845-2.2579,3.95839,3.95839,0,0,1-.49349-1.91325,3.63765,3.63765,0,0,1,.2585-1.34534,1.87282,1.87282,0,0,1,.72848-1.16909l.90669-.55224-.2252-.98306c-1.6391-7.1399,3.89306-13.57288,11.32085-13.74911.18016-.00392.35836-.00588.53657-.002.17624-.00392.35641-.002.53657.002,7.42777.17624,12.95993,6.60921,11.32085,13.74911l-.22521.98306.90669.55224a1.87279,1.87279,0,0,1,.72849,1.16909A3.63789,3.63789,0,0,1,39.28547,86.08946Z"/></svg>