<svg width="245" height="164" viewBox="0 0 245 164" fill="none" xmlns="http://www.w3.org/2000/svg">
<path d="M208.552 50.6818H143.299L110.672 107.193L143.299 163.704H208.552L241.179 107.193L208.552 50.6818Z" fill="#E4FFD9"/>
<path d="M108.158 0.520798H66.1154L45.0943 36.9308L66.1154 73.3409H108.158L129.18 36.9308L108.158 0.520798Z" fill="#E4FFD9"/>
<path d="M65.6834 82.4028H26.5845L7.0351 116.263L26.5845 150.124H65.6834L85.2332 116.263L65.6834 82.4028Z" fill="#E4FFD9"/>
<path d="M204.581 145.704H120.522C120.378 145.704 120.241 145.647 120.14 145.546C120.038 145.444 119.982 145.307 119.982 145.164V19.0048C119.982 18.8616 120.038 18.7243 120.14 18.623C120.241 18.5217 120.378 18.4648 120.522 18.4648H193.708C193.851 18.4648 193.988 18.5217 194.09 18.623C194.191 18.7243 194.248 18.8616 194.248 19.0048V43.0213C194.248 43.1645 194.191 43.3019 194.09 43.4031C193.988 43.5044 193.851 43.5613 193.708 43.5613C193.565 43.5613 193.427 43.5044 193.326 43.4031C193.225 43.3019 193.168 43.1645 193.168 43.0213V19.5448H121.062V144.624H204.581C204.724 144.624 204.861 144.681 204.963 144.782C205.064 144.883 205.121 145.021 205.121 145.164C205.121 145.307 205.064 145.444 204.963 145.546C204.861 145.647 204.724 145.704 204.581 145.704H204.581Z" fill="#C2FFA9"/>
<path d="M88.1777 126.131V160.734H116.171V126.131H88.1777ZM106.437 140.606C106.437 141.815 105.957 142.974 105.102 143.829C104.247 144.684 103.088 145.164 101.879 145.164C100.671 145.164 99.5113 144.684 98.6565 143.829C97.8018 142.974 97.3216 141.815 97.3216 140.606V136.049H106.437V140.606Z" fill="#4DAFB8"/>
<path d="M88.1777 141.233H97.3697C97.3393 141.026 97.3233 140.816 97.3216 140.606V136.049H106.437V140.606C106.435 140.816 106.419 141.026 106.389 141.233H116.171V126.131H88.1777V141.233Z" fill="#086972"/>
<path d="M160.848 53.956H43.501C40.3198 53.956 37.741 56.5348 37.741 59.716V130.289C37.741 133.47 40.3198 136.049 43.501 136.049H160.848C164.029 136.049 166.608 133.47 166.608 130.289V59.716C166.608 56.5348 164.029 53.956 160.848 53.956Z" fill="#4DAFB8"/>
<path d="M158.414 59.3653H45.9353C44.5435 59.3653 43.4153 60.4936 43.4153 61.8853V128.12C43.4153 129.512 44.5435 130.64 45.9353 130.64H158.414C159.805 130.64 160.934 129.512 160.934 128.12V61.8853C160.934 60.4936 159.805 59.3653 158.414 59.3653Z" fill="white"/>
<path d="M158.871 59.3653H45.4776C44.9307 59.3653 44.4061 59.5826 44.0193 59.9693C43.6326 60.3561 43.4153 60.8806 43.4153 61.4276V64.8806H160.934V61.4276C160.934 60.8806 160.716 60.3561 160.33 59.9693C159.943 59.5826 159.418 59.3653 158.871 59.3653Z" fill="#C2FFA9"/>
<path d="M225.105 143.313H181.058V140.162C181.058 139.971 181.134 139.788 181.269 139.653C181.404 139.518 181.587 139.442 181.778 139.442H224.385C224.576 139.442 224.759 139.518 224.894 139.653C225.029 139.788 225.105 139.971 225.105 140.162V143.313Z" fill="#086972"/>
<path d="M181.058 143.313H225.105V160.014C225.105 160.205 225.029 160.388 224.894 160.523C224.759 160.658 224.576 160.734 224.385 160.734H181.778C181.587 160.734 181.404 160.658 181.269 160.523C181.134 160.388 181.058 160.205 181.058 160.014V143.313ZM188.702 137.109H217.461C217.652 137.109 217.835 137.185 217.97 137.32C218.105 137.455 218.181 137.638 218.181 137.829V139.442H187.982V137.829C187.982 137.638 188.058 137.455 188.193 137.32C188.328 137.185 188.511 137.109 188.702 137.109Z" fill="#4DAFB8"/>
<path d="M190.402 111.499H215.761C216.048 111.499 216.322 111.613 216.525 111.815C216.727 112.018 216.841 112.292 216.841 112.579V137.109H189.322V112.579C189.322 112.292 189.436 112.018 189.638 111.815C189.841 111.613 190.115 111.499 190.402 111.499Z" fill="#A7FF83"/>
<path d="M219.968 120.582C224.532 120.582 228.232 116.882 228.232 112.318C228.232 107.754 224.532 104.054 219.968 104.054C215.404 104.054 211.704 107.754 211.704 112.318C211.704 116.882 215.404 120.582 219.968 120.582Z" fill="white"/>
<path d="M218.481 117.24L213.675 112.849C213.606 112.786 213.549 112.709 213.509 112.623C213.468 112.537 213.445 112.445 213.441 112.35C213.437 112.256 213.451 112.161 213.483 112.072C213.515 111.983 213.565 111.901 213.629 111.832C213.692 111.762 213.769 111.705 213.855 111.665C213.941 111.625 214.034 111.602 214.128 111.598C214.223 111.594 214.317 111.608 214.406 111.64C214.495 111.673 214.577 111.722 214.646 111.786L218.478 115.287L225.288 109.033C225.429 108.904 225.615 108.836 225.806 108.844C225.996 108.852 226.176 108.936 226.305 109.076C226.434 109.217 226.502 109.403 226.494 109.594C226.486 109.785 226.402 109.964 226.262 110.093L218.481 117.24Z" fill="#4DAFB8"/>
<path d="M197.97 98.2471H197.25V107.925H197.97V98.2471Z" fill="#4DAFB8"/>
<path d="M203.441 93.2838H202.721V107.925H203.441V93.2838Z" fill="#4DAFB8"/>
<path d="M208.913 99.4877H208.193V107.925H208.913V99.4877Z" fill="#4DAFB8"/>
<path d="M200.117 125.47H195.203V137.109H200.117V125.47Z" fill="#C2FFA9"/>
<path d="M181.883 89.5747H139.984C139.586 89.5747 139.264 89.8971 139.264 90.2947V118.026C139.264 118.423 139.586 118.746 139.984 118.746H181.883C182.281 118.746 182.603 118.423 182.603 118.026V90.2947C182.603 89.8971 182.281 89.5747 181.883 89.5747Z" fill="#A7FF83"/>
<path d="M84.9312 74.9454H58.3776C57.9799 74.9454 57.6576 75.2678 57.6576 75.6654V93.2766C57.6576 93.6742 57.9799 93.9966 58.3776 93.9966H84.9312C85.3288 93.9966 85.6512 93.6742 85.6512 93.2766V75.6654C85.6512 75.2678 85.3288 74.9454 84.9312 74.9454Z" fill="#A7FF83"/>
<path d="M123.171 77.2591H94.6591V78.3391H123.171V77.2591Z" fill="#459BA3"/>
<path d="M137.571 84.1106H94.6591V85.1906H137.571V84.1106Z" fill="#459BA3"/>
<path d="M130.371 90.9618H94.6591V92.0418H130.371V90.9618Z" fill="#459BA3"/>
<path d="M76.6368 110.192H58.3776C57.9799 110.192 57.6576 110.514 57.6576 110.912V116.73C57.6576 117.127 57.9799 117.45 58.3776 117.45H76.6368C77.0344 117.45 77.3568 117.127 77.3568 116.73V110.912C77.3568 110.514 77.0344 110.192 76.6368 110.192Z" fill="#A7FF83"/>
<path d="M103.075 110.192H84.816C84.4184 110.192 84.096 110.514 84.096 110.912V116.73C84.096 117.127 84.4184 117.45 84.816 117.45H103.075C103.473 117.45 103.795 117.127 103.795 116.73V110.912C103.795 110.514 103.473 110.192 103.075 110.192Z" fill="#A7FF83"/>
<path d="M129.651 110.192H111.392C110.994 110.192 110.672 110.514 110.672 110.912V116.73C110.672 117.127 110.994 117.45 111.392 117.45H129.651C130.049 117.45 130.371 117.127 130.371 116.73V110.912C130.371 110.514 130.049 110.192 129.651 110.192Z" fill="#A7FF83"/>
<path d="M162.202 96H144.72C144.322 96 144 96.3224 144 96.72V101.306C144 101.704 144.322 102.026 144.72 102.026H162.202C162.599 102.026 162.922 101.704 162.922 101.306V96.72C162.922 96.3224 162.599 96 162.202 96Z" fill="#C2FFA9"/>
<path d="M176.706 106H145.294C144.579 106 144 106.321 144 106.717V111.283C144 111.679 144.579 112 145.294 112H176.706C177.421 112 178 111.679 178 111.283V106.717C178 106.321 177.421 106 176.706 106Z" fill="#C2FFA9"/>
<path opacity="0.28" d="M76.2116 28.8085H23.913C23.5153 28.8085 23.193 29.1309 23.193 29.5285V69.6271C23.193 70.0248 23.5153 70.3471 23.913 70.3471H76.2116C76.6093 70.3471 76.9316 70.0248 76.9316 69.6271V29.5285C76.9316 29.1309 76.6093 28.8085 76.2116 28.8085Z" fill="#17B978"/>
<path d="M69.1387 22.4488H16.8401C16.4424 22.4488 16.1201 22.7711 16.1201 23.1688V63.2674C16.1201 63.665 16.4424 63.9874 16.8401 63.9874H69.1387C69.5363 63.9874 69.8587 63.665 69.8587 63.2674V23.1688C69.8587 22.7711 69.5363 22.4488 69.1387 22.4488Z" fill="white"/>
<path d="M69.1386 64.5274H16.8398C16.5058 64.527 16.1855 64.3941 15.9493 64.1579C15.7131 63.9217 15.5802 63.6015 15.5798 63.2674V23.1689C15.5802 22.8349 15.7131 22.5146 15.9493 22.2784C16.1855 22.0422 16.5058 21.9093 16.8398 21.9089H69.1386C69.4727 21.9093 69.7929 22.0422 70.0291 22.2784C70.2653 22.5146 70.3982 22.8349 70.3986 23.1689V63.2674C70.3982 63.6015 70.2653 63.9217 70.0291 64.1579C69.7929 64.3941 69.4727 64.527 69.1386 64.5274V64.5274ZM16.8398 22.9889C16.7921 22.989 16.7464 23.008 16.7126 23.0417C16.6789 23.0754 16.6599 23.1212 16.6598 23.1689V63.2674C16.6599 63.3151 16.6789 63.3609 16.7126 63.3946C16.7464 63.4284 16.7921 63.4474 16.8398 63.4474H69.1386C69.1863 63.4474 69.2321 63.4284 69.2658 63.3946C69.2996 63.3609 69.3186 63.3151 69.3186 63.2674V23.1689C69.3186 23.1212 69.2996 23.0754 69.2658 23.0417C69.2321 23.008 69.1863 22.989 69.1386 22.9889H16.8398Z" fill="#4DAFB8"/>
<path d="M57.8527 28.8085H32.3359C31.9383 28.8085 31.6159 29.1309 31.6159 29.5285V46.2325C31.6159 46.6302 31.9383 46.9525 32.3359 46.9525H57.8527C58.2503 46.9525 58.5727 46.6302 58.5727 46.2325V29.5285C58.5727 29.1309 58.2503 28.8085 57.8527 28.8085Z" fill="#C2FFA9"/>
<path d="M57 32H33V35H57V32Z" fill="#E4FFD9"/>
<path d="M54.2957 37.7653C54.3098 37.5593 54.2422 37.3561 54.1074 37.1998C53.9726 37.0434 53.7815 36.9465 53.5757 36.9301H31.6157V46.1173C31.6016 46.3233 31.6693 46.5265 31.8041 46.6829C31.9389 46.8393 32.1299 46.9361 32.3357 46.9525H56.843L54.2957 37.7653Z" fill="#4DAFB8"/>
<path d="M51.6319 39.4141H26.1151C25.7175 39.4141 25.3951 39.7365 25.3951 40.1341V56.8381C25.3951 57.2358 25.7175 57.5581 26.1151 57.5581H51.6319C52.0296 57.5581 52.3519 57.2358 52.3519 56.8381V40.1341C52.3519 39.7365 52.0296 39.4141 51.6319 39.4141Z" fill="#A7FF83"/>
<path d="M50 42H28V45H50V42Z" fill="#4DAFB8"/>
<path d="M50 47H28V49.8512H50V48.5V47Z" fill="#4DAFB8"/>
<path d="M227.802 75.9297H178.53C178.408 75.9297 178.292 75.8818 178.206 75.7964C178.121 75.711 178.072 75.5951 178.071 75.474L177.904 45.2359L220.85 49.2044H227.802C227.924 49.2044 228.04 49.2527 228.126 49.3386C228.212 49.4245 228.261 49.5411 228.261 49.6626V75.4714C228.261 75.593 228.212 75.7095 228.126 75.7955C228.04 75.8814 227.924 75.9297 227.802 75.9297Z" fill="#4DAFB8"/>
<path d="M220.851 41.7245V49.2053H181.834C181.748 49.2053 181.658 49.2017 181.572 49.1981C176.56 48.9425 176.733 41.3681 181.752 41.2673H220.39C220.451 41.267 220.51 41.2786 220.566 41.3015C220.622 41.3243 220.673 41.3579 220.716 41.4004C220.758 41.4428 220.792 41.4933 220.816 41.5489C220.839 41.6046 220.851 41.6642 220.851 41.7245Z" fill="#086972"/>
<path d="M224.406 53.3285H181.216C180.818 53.3285 180.496 53.6508 180.496 54.0485V57.0628C180.496 57.4604 180.818 57.7828 181.216 57.7828H224.406C224.804 57.7828 225.126 57.4604 225.126 57.0628V54.0485C225.126 53.6508 224.804 53.3285 224.406 53.3285Z" fill="#A7FF83"/>
<path d="M228.263 61.9073H178.019V69.9907H228.263V61.9073Z" fill="#A7FF83"/>
<path d="M202.455 22.1225V49.2053H181.978V22.1225C181.978 21.9806 182.006 21.8401 182.06 21.709C182.114 21.5779 182.194 21.4587 182.294 21.3584C182.395 21.2581 182.514 21.1785 182.645 21.1243C182.776 21.0701 182.917 21.0423 183.058 21.0425H201.375C201.517 21.0423 201.658 21.0701 201.789 21.1243C201.92 21.1785 202.039 21.2581 202.139 21.3584C202.24 21.4587 202.319 21.5779 202.373 21.709C202.428 21.8401 202.455 21.9806 202.455 22.1225Z" fill="#93D877"/>
<path d="M199.516 25.0709V49.2053H184.828V25.0709C184.828 24.929 184.856 24.7885 184.91 24.6574C184.965 24.5262 185.044 24.4071 185.144 24.3068C185.245 24.2065 185.364 24.1269 185.495 24.0727C185.626 24.0185 185.767 23.9907 185.908 23.9909H198.436C198.578 23.9907 198.719 24.0185 198.85 24.0727C198.981 24.1269 199.1 24.2065 199.201 24.3068C199.301 24.4071 199.38 24.5263 199.435 24.6574C199.489 24.7885 199.517 24.929 199.516 25.0709V25.0709Z" fill="#C2FFA9"/>
<path d="M191.827 36.299C193.855 36.299 195.499 34.655 195.499 32.627C195.499 30.5991 193.855 28.955 191.827 28.955C189.799 28.955 188.155 30.5991 188.155 32.627C188.155 34.655 189.799 36.299 191.827 36.299Z" fill="#93D877"/>
<path d="M219.069 49.2053H197.797L195.568 41.2673L192.256 29.4845C192.218 29.3479 192.207 29.205 192.223 29.064C192.24 28.923 192.285 28.7868 192.354 28.663C192.424 28.5393 192.517 28.4305 192.629 28.3429C192.74 28.2553 192.868 28.1906 193.005 28.1525L210.638 23.1953C210.775 23.1567 210.917 23.1455 211.058 23.1623C211.199 23.1791 211.336 23.2235 211.459 23.2931C211.583 23.3626 211.692 23.4559 211.78 23.5677C211.867 23.6794 211.932 23.8073 211.97 23.944L216.837 41.2673L219.069 49.2053Z" fill="#A7FF83"/>
<path d="M216.02 49.2053H200.76L198.531 41.2673L195.799 31.5509C195.76 31.4143 195.749 31.2714 195.766 31.1304C195.783 30.9894 195.827 30.8532 195.897 30.7294C195.966 30.6056 196.059 30.4968 196.171 30.4092C196.283 30.3216 196.411 30.2569 196.548 30.2188L208.608 26.8277C208.744 26.7891 208.887 26.7779 209.028 26.7947C209.169 26.8114 209.305 26.8559 209.429 26.9255C209.553 26.995 209.662 27.0884 209.749 27.2001C209.837 27.3118 209.902 27.4397 209.94 27.5765L213.788 41.2673L216.02 49.2053Z" fill="#C2FFA9"/>
<path d="M204.581 40.6028C206.609 40.6028 208.253 38.9588 208.253 36.9308C208.253 34.9028 206.609 33.2588 204.581 33.2588C202.553 33.2588 200.909 34.9028 200.909 36.9308C200.909 38.9588 202.553 40.6028 204.581 40.6028Z" fill="#A7FF83"/>
<path d="M143.971 48.4868C143.828 48.4868 143.691 48.4299 143.589 48.3287C143.488 48.2274 143.431 48.0901 143.431 47.9468V11.1098H45.6342V18.8899C45.6342 19.0331 45.5773 19.1704 45.476 19.2717C45.3748 19.373 45.2374 19.4299 45.0942 19.4299C44.951 19.4299 44.8136 19.373 44.7124 19.2717C44.6111 19.1704 44.5542 19.0331 44.5542 18.8899V10.5698C44.5542 10.4266 44.6111 10.2892 44.7124 10.188C44.8136 10.0867 44.951 10.0298 45.0942 10.0298H143.971C144.114 10.0298 144.252 10.0867 144.353 10.188C144.454 10.2892 144.511 10.4266 144.511 10.5698V47.9468C144.511 48.0901 144.454 48.2274 144.353 48.3287C144.252 48.4299 144.114 48.4868 143.971 48.4868V48.4868Z" fill="#C2FFA9"/>
<path d="M14.5858 109.861V98.5393C14.5858 97.4779 14.1641 96.46 13.4136 95.7094C12.663 94.9589 11.6451 94.5372 10.5837 94.5372V94.5372C9.52227 94.5372 8.50432 94.9589 7.75378 95.7094C7.00325 96.46 6.5816 97.4779 6.5816 98.5393V109.861H14.5858Z" fill="#4DAFB8"/>
<path d="M48.8739 94.5372C49.9353 94.5372 50.9533 94.9589 51.7038 95.7094C52.4543 96.46 52.876 97.4779 52.876 98.5393V156.732C52.876 157.793 53.2976 158.811 54.0482 159.562C54.7987 160.312 55.8166 160.734 56.8781 160.734V160.734C57.9395 160.734 58.9574 160.312 59.708 159.562C60.4585 158.811 60.8801 157.793 60.8801 156.732H22.5899C22.5899 157.793 22.1683 158.811 21.4177 159.562C20.6672 160.312 19.6493 160.734 18.5878 160.734V160.734C17.5264 160.734 16.5085 160.312 15.7579 159.562C15.0074 158.811 14.5858 157.793 14.5858 156.732V98.5393C14.5858 97.4779 14.1641 96.46 13.4136 95.7094C12.663 94.9589 11.6451 94.5372 10.5837 94.5372H48.8739Z" fill="#A7FF83"/>
<path d="M56.8781 160.734C57.9395 160.734 58.9575 160.312 59.708 159.562C60.4585 158.811 60.8802 157.793 60.8802 156.732H22.59C22.59 157.793 22.1683 158.811 21.4178 159.562C20.6673 160.312 19.6493 160.734 18.5879 160.734H56.8781Z" fill="#C2FFA9"/>
<path d="M39.7339 102.633H18.5879V103.713H39.7339V102.633Z" fill="#459BA3"/>
<path d="M39.7339 107.773H18.5879V108.853H39.7339V107.773Z" fill="#459BA3"/>
<path d="M39.7339 112.912H18.5879V113.992H39.7339V112.912Z" fill="#459BA3"/>
<path d="M39.7339 118.053H18.5879V119.133H39.7339V118.053Z" fill="#459BA3"/>
<path d="M39.7339 123.192H18.5879V124.272H39.7339V123.192Z" fill="#459BA3"/>
<path d="M39.7339 128.332H18.5879V129.412H39.7339V128.332Z" fill="#459BA3"/>
<path d="M39.7339 133.472H18.5879V134.552H39.7339V133.472Z" fill="#459BA3"/>
<path d="M39.7339 138.612H18.5879V139.692H39.7339V138.612Z" fill="#459BA3"/>
<path d="M49.4363 102.633H43.4153V103.713H49.4363V102.633Z" fill="#459BA3"/>
<path d="M49.4363 107.773H43.4153V108.853H49.4363V107.773Z" fill="#459BA3"/>
<path d="M49.4363 112.912H43.4153V113.992H49.4363V112.912Z" fill="#459BA3"/>
<path d="M49.4363 118.053H43.4153V119.133H49.4363V118.053Z" fill="#459BA3"/>
<path d="M49.4363 123.192H43.4153V124.272H49.4363V123.192Z" fill="#459BA3"/>
<path d="M49.4363 128.332H43.4153V129.412H49.4363V128.332Z" fill="#459BA3"/>
<path d="M49.4363 133.472H43.4153V134.552H49.4363V133.472Z" fill="#459BA3"/>
<path d="M49.4363 138.612H43.4153V139.692H49.4363V138.612Z" fill="#459BA3"/>
<path d="M21.8287 153.536C22.3161 152.597 22.8096 151.661 23.3093 150.73L23.496 150.38C23.5641 150.248 23.6509 150.126 23.7537 150.018C23.9761 149.799 24.2686 149.665 24.58 149.639C24.8972 149.611 25.2144 149.695 25.4761 149.876C25.6083 149.968 25.7229 150.082 25.8145 150.214C25.9137 150.357 25.9602 150.454 26.0323 150.573L26.4268 151.26C26.5229 151.434 26.6774 151.567 26.8627 151.638C27.0394 151.705 27.2341 151.709 27.4134 151.649C27.5928 151.589 27.7456 151.468 27.8457 151.308C27.8691 151.268 27.8897 151.226 27.9072 151.184L27.977 151.005L28.1201 150.635L28.4092 149.898L28.9874 148.422L29.1319 148.053L29.1681 147.961L29.225 147.841C29.262 147.758 29.3086 147.68 29.3639 147.609C29.5808 147.306 29.9004 147.092 30.2632 147.007C30.6241 146.923 31.0031 146.962 31.3386 147.12C31.6773 147.286 31.9463 147.567 32.0978 147.912L32.1514 148.037L32.1848 148.13L32.2518 148.317L32.3856 148.689L32.6533 149.435L33.1885 150.927L33.4526 151.661C33.5009 151.797 33.5971 151.91 33.7231 151.98C33.8489 152.05 33.9947 152.075 34.1365 152.051C34.2782 152.026 34.4074 151.954 34.5027 151.846C34.5478 151.79 34.5837 151.727 34.609 151.659C34.6475 151.56 34.6936 151.416 34.7356 151.297L34.9931 150.548L35.5081 149.05L36.5616 146.061L36.8251 145.314L36.9567 144.94C36.9917 144.855 37.0309 144.768 37.0708 144.683C37.1186 144.601 37.1744 144.521 37.229 144.442C37.4742 144.143 37.8154 143.937 38.1948 143.861C38.5741 143.784 38.9682 143.842 39.3103 144.022C39.6522 144.206 39.9163 144.507 40.054 144.87C40.0814 144.951 40.1206 145.062 40.1324 145.119L40.1794 145.312L40.273 145.696L40.648 147.236C40.9009 148.262 41.1466 149.289 41.3849 150.319L41.5663 151.09C41.6019 151.261 41.6951 151.414 41.8303 151.524C41.9756 151.629 42.1518 151.684 42.3313 151.678C42.5108 151.673 42.6834 151.608 42.8222 151.494C42.8582 151.468 42.8896 151.436 42.9149 151.399C42.9725 151.327 43.017 151.245 43.0462 151.157L43.0704 151.088L43.1056 150.975C43.1767 150.734 43.3097 150.516 43.4915 150.342C43.6732 150.168 43.8973 150.045 44.1414 149.985C44.3855 149.925 44.6412 149.929 44.8829 149.999C45.1246 150.068 45.3439 150.199 45.5191 150.38C45.5697 150.444 45.6229 150.506 45.6678 150.572C45.7061 150.641 45.7481 150.714 45.7804 150.78L45.9416 151.142L46.264 151.866C46.342 152.08 46.4918 152.259 46.6877 152.374C46.8837 152.489 47.1135 152.533 47.3379 152.497C47.5729 152.457 47.7874 152.339 47.9459 152.161L48.5058 151.599L49.6352 150.485L48.6262 151.709L48.1169 152.317C47.9353 152.557 47.6759 152.725 47.3833 152.794C47.0906 152.863 46.7832 152.827 46.514 152.694C46.2398 152.554 46.0196 152.328 45.8879 152.05L45.5154 151.35L45.329 151L45.2426 150.865C45.2104 150.825 45.1733 150.79 45.141 150.752C44.9926 150.619 44.8035 150.54 44.6046 150.529C44.4057 150.518 44.2091 150.575 44.0469 150.691C43.894 150.804 43.7869 150.969 43.7449 151.154L43.692 151.353C43.6733 151.436 43.6438 151.516 43.6043 151.591C43.5306 151.749 43.4287 151.892 43.3035 152.014C43.0465 152.255 42.7143 152.401 42.3625 152.427C42.0107 152.452 41.6608 152.356 41.3715 152.154C41.081 151.943 40.8723 151.639 40.7805 151.291L40.5685 150.528C40.2839 149.51 40.0049 148.491 39.7315 147.471L39.3194 145.941L39.2164 145.558L39.1649 145.367C39.147 145.295 39.1336 145.285 39.1208 145.24C39.0673 145.104 38.9659 144.994 38.836 144.928C38.7055 144.864 38.5575 144.845 38.4149 144.874C38.2724 144.903 38.1434 144.978 38.048 145.088C38.0309 145.12 38.0098 145.147 37.9903 145.178C37.9769 145.214 37.9616 145.249 37.9445 145.284L37.8156 145.659L37.5581 146.408L36.5275 149.405L36.0005 150.899L35.737 151.646C35.6902 151.776 35.6558 151.884 35.5988 152.031C35.5305 152.21 35.4327 152.377 35.3095 152.525C35.0556 152.819 34.7076 153.016 34.3248 153.082C33.942 153.148 33.5481 153.079 33.2103 152.887C32.8726 152.694 32.6145 152.387 32.4822 152.021C32.3836 151.751 32.3112 151.515 32.2247 151.26L31.2323 148.288C31.175 148.144 31.0683 148.024 30.9311 147.95C30.7852 147.88 30.621 147.858 30.4618 147.887C30.3032 147.915 30.1607 148.002 30.0623 148.129C30.0342 148.16 30.0111 148.195 29.9939 148.233L29.9617 148.29L29.9218 148.381L29.7627 148.744L29.1266 150.195L28.8084 150.921L28.6479 151.283L28.5632 151.469C28.5265 151.547 28.4839 151.621 28.4358 151.692C28.2409 151.975 27.9535 152.181 27.6231 152.275C27.2926 152.369 26.9398 152.345 26.6252 152.207C26.319 152.071 26.07 151.832 25.921 151.531L25.5674 150.822C25.4904 150.606 25.363 150.412 25.1959 150.256C25.0281 150.121 24.8183 150.05 24.6034 150.055C24.3823 150.057 24.169 150.137 24.001 150.281C23.916 150.36 23.8422 150.45 23.7814 150.548L23.5657 150.881C22.9937 151.77 22.4147 152.655 21.8287 153.536Z" fill="#459BA3"/>
<path d="M71.4425 10.5698L67.9255 7.05286L64.4086 10.5698L67.9255 14.0868L71.4425 10.5698Z" fill="#C2FFA9"/>
<path d="M79.0457 10.5698L75.5287 7.05286L72.0117 10.5698L75.5287 14.0868L79.0457 10.5698Z" fill="#C2FFA9"/>
<path d="M86.6489 10.5698L83.1319 7.05286L79.6149 10.5698L83.1319 14.0868L86.6489 10.5698Z" fill="#C2FFA9"/>
<path d="M160.982 19.0046L157.465 15.4877L153.948 19.0046L157.465 22.5216L160.982 19.0046Z" fill="#C2FFA9"/>
<path d="M168.585 19.0046L165.068 15.4877L161.551 19.0046L165.068 22.5216L168.585 19.0046Z" fill="#C2FFA9"/>
<path d="M176.188 19.0046L172.671 15.4877L169.154 19.0046L172.671 22.5216L176.188 19.0046Z" fill="#C2FFA9"/>
<path d="M151.742 145.164L148.859 142.281L145.976 145.164L148.859 148.047L151.742 145.164Z" fill="#C2FFA9"/>
<path d="M157.974 145.164L155.091 142.281L152.208 145.164L155.091 148.047L157.974 145.164Z" fill="#C2FFA9"/>
<path d="M164.207 145.164L161.324 142.281L158.441 145.164L161.324 148.047L164.207 145.164Z" fill="#C2FFA9"/>
<path d="M120.522 34.6003L123.344 31.7775L120.522 28.9547L117.699 31.7775L120.522 34.6003Z" fill="#C2FFA9"/>
<path d="M120.522 40.7033L123.345 37.8805L120.522 35.0577L117.699 37.8805L120.522 40.7033Z" fill="#C2FFA9"/>
<path d="M120.522 46.806L123.345 43.9832L120.522 41.1604L117.699 43.9832L120.522 46.806Z" fill="#C2FFA9"/>
<path d="M244.282 160.734H0.37439V163.974H244.282V160.734Z" fill="#459BA3"/>
<path d="M116.171 152.024H88.1777V157.951H116.171V152.024Z" fill="#459BA3"/>
<path d="M122.651 160.914H81.6976V156.787C81.6976 156.309 81.8873 155.852 82.2248 155.514C82.5624 155.177 83.0202 154.987 83.4976 154.987H120.851C121.329 154.987 121.786 155.177 122.124 155.514C122.462 155.852 122.651 156.309 122.651 156.787V160.914Z" fill="#4DAFB8"/>
</svg>
