<svg width="124" height="124" viewBox="0 0 124 124" fill="none" xmlns="http://www.w3.org/2000/svg">
	<g filter="url(#filter0_d_2_2)">
		<path d="M52 80.5V86.5L47 91.5V97.5" stroke="#C2801D" stroke-width="2" stroke-linecap="round"/>
		<circle cx="47" cy="97" r="2" fill="white" stroke="#C2801D" stroke-width="2"/>
		<path d="M61 81.5V87.5M61 87.5L57 93.5V103M61 87.5L65 93.5V96" stroke="#C2801D" stroke-width="2"/>
		<circle cx="57" cy="104" r="2" fill="white" stroke="#C2801D" stroke-width="2"/>
		<path d="M74 80V84M74 84L70 89.5V99.5M74 84L78 89.5V96.5" stroke="#C2801D" stroke-width="2"/>
		<path d="M80 97C80 98.1046 79.1046 99 78 99C76.8954 99 76 98.1046 76 97C76 95.8954 76.8954 95 78 95C79.1046 95 80 95.8954 80 97Z" fill="white" stroke="#C2801D" stroke-width="2"/>
		<path d="M45.2076 75C41.7052 82.8539 83.7336 83.1448 79.7309 75" stroke="#8AB455" stroke-width="2" stroke-linecap="round"/>
		<circle cx="80" cy="76" r="2" fill="white" stroke="#8AB455" stroke-width="2"/>
	</g>
	<g filter="url(#filter1_d_2_2)">
		<path d="M76.6236 21C85.9631 35.1649 99.0384 65.3159 76.6236 72.6007C48.6051 81.7067 80.5561 44.2709 76.6236 21Z" fill="#B4EA6F" stroke="white"/>
		<path d="M78 53C78 59.3488 75.3333 70.5814 68 74" stroke="white" stroke-linecap="round"/>
		<path d="M64.6031 16C38.4224 54.9762 53.5096 70.902 63.2719 70.902C73.0342 70.902 83.2402 52.8807 64.6031 16Z" fill="#B4EA6F" stroke="white"/>
		<path d="M62.2939 42.451C58.993 63.7074 60.6141 69.5083 62.8148 71" stroke="white" stroke-linecap="round"/>
		<path d="M48.3764 21C39.0369 35.1649 25.9616 65.3159 48.3764 72.6007C76.3949 81.7067 44.4439 44.2709 48.3764 21Z" fill="#B4EA6F" stroke="white"/>
		<path d="M47 53C47 59.3488 49.6667 70.5814 57 74" stroke="white" stroke-linecap="round"/>
	</g>
	<defs>
		<filter id="filter0_d_2_2" x="39.9999" y="73" width="47.0001" height="42" filterUnits="userSpaceOnUse" color-interpolation-filters="sRGB">
			<feFlood flood-opacity="0" result="BackgroundImageFix"/>
			<feColorMatrix in="SourceAlpha" type="matrix" values="0 0 0 0 0 0 0 0 0 0 0 0 0 0 0 0 0 0 127 0" result="hardAlpha"/>
			<feOffset dy="4"/>
			<feGaussianBlur stdDeviation="2"/>
			<feComposite in2="hardAlpha" operator="out"/>
			<feColorMatrix type="matrix" values="0 0 0 0 0 0 0 0 0 0 0 0 0 0 0 0 0 0 0.25 0"/>
			<feBlend mode="normal" in2="BackgroundImageFix" result="effect1_dropShadow_2_2"/>
			<feBlend mode="normal" in="SourceGraphic" in2="effect1_dropShadow_2_2" result="shape"/>
		</filter>
		<filter id="filter1_d_2_2" x="31.5" y="15.0123" width="62" height="67.4878" filterUnits="userSpaceOnUse" color-interpolation-filters="sRGB">
			<feFlood flood-opacity="0" result="BackgroundImageFix"/>
			<feColorMatrix in="SourceAlpha" type="matrix" values="0 0 0 0 0 0 0 0 0 0 0 0 0 0 0 0 0 0 127 0" result="hardAlpha"/>
			<feOffset dy="4"/>
			<feGaussianBlur stdDeviation="2"/>
			<feComposite in2="hardAlpha" operator="out"/>
			<feColorMatrix type="matrix" values="0 0 0 0 0 0 0 0 0 0 0 0 0 0 0 0 0 0 0.25 0"/>
			<feBlend mode="normal" in2="BackgroundImageFix" result="effect1_dropShadow_2_2"/>
			<feBlend mode="normal" in="SourceGraphic" in2="effect1_dropShadow_2_2" result="shape"/>
		</filter>
	</defs>
</svg>