<svg xmlns="http://www.w3.org/2000/svg" xmlns:svgjs="http://svgjs.com/svgjs" xmlns:xlink="http://www.w3.org/1999/xlink" width="360" height="360"><svg xmlns="http://www.w3.org/2000/svg" width="360" height="360" enable-background="new 0 0 6000 4000" viewBox="0 0 6000 4000"><path fill="#6fc74b" d="M4862.405,2987.39c0,0-207.438,62.647-308.003,163.212
		c-100.565,100.565-220.914,32.972-270.373,201.131c-49.458,168.158,408.856,39.567,562.177-130.24
		C4999.527,3051.686,4986.058,2940.235,4862.405,2987.39z" class="color93c74b svgShape"/><path fill="#d0ffbd" d="M5149.172,2176.297H948.513c0,0-23.404-265.236,54.625-602.002
		c24.745-106.797,59.689-220.799,108.833-335.806c174.153-407.706,526.552-828.178,1234.565-986.142
		C4090.401-136.732,5079.931,1126.164,5149.172,2176.297z" class="colorbde9ff svgShape"/><path fill="#fff" d="M1484.316 1602.555h-316.542l-164.636-28.26c24.745-106.797 59.689-220.799 108.833-335.806 105.167 26.769 214.485 130.063 182.744 253.615C1472.776 1429.454 1484.316 1602.555 1484.316 1602.555zM4593.177 1169.426c-118.234 0-236.469 0-354.703 0-13.308-35.763 2.347-75.302 34.204-91.21 28.157-14.061 63.821-7.088 86.142 17.735.799-8.315 6.318-57.93 45.605-83.609 44.352-28.99 115.074-16.578 160.883 38.004 2.297-5.359 20.257-45.651 57.006-53.206 41.047-8.439 92.81 26.581 106.411 88.676C4683.542 1113.687 4638.359 1141.556 4593.177 1169.426z" class="colorfff svgShape"/><path fill="#1ce594" d="M1660.712,1689.933c-128.592,23.081-333.967,21.261-425.342-112.106
		c-47.097-68.74-130.611-105.161-200.49-124.318c-34.444,116.804-56.027,228.187-69.357,327.009
		C1186.646,1796.379,1696.947,1819.346,1660.712,1689.933z" class="color1ca3e5 svgShape"/><path fill="#98e578" d="M5121.979,1957.796l-1843.67,8.98l-2330.77,11.33c0.74-15.89,1.7-32.55,2.89-49.94
		c3.41-48.96,8.81-103.61,17.15-162.47c5.52-38.98,12.32-79.81,20.68-122.06c68.72,10.63,154.18,26.91,254.61,51.9
		c287.4,71.48,412.08-68.48,672.09-130.14c260.01-61.67,497.07,265.12,707.91,273.98c210.83,8.87,614.85-290.99,771.98-284.38
		c13.71,0.58,25.5,0.01,35.77-1.51c40.93-6.03,57.83-27.04,76-50.22c29.55-37.71,62.45-81.15,207.74-75.04
		c23.56,1,45.32,2.07,65.56,3.1c0,0,0,0,0.01,0c152.09,7.7,217.92,12.11,310.26-50.03c29.39-19.76,61.46-46.28,99.84-81.57
		c175.08-160.94,431.25-249.16,431.25-249.16s39.06-9.88,93.65-16.76c57.08,76.15,108.73,155.24,154.84,236.34
		c40.73,71.59,77.13,144.75,109.17,218.84c16.97,39.17,32.7,78.63,47.21,118.23
		C5068.739,1723.476,5100.759,1841.146,5121.979,1957.796z" class="color78c1e5 svgShape"/><path fill="#56e5ac" d="M1411.828 1756.17c0 0 270.86 0 421.989-118.337C1701.223 1687.734 1574.336 1729.794 1411.828 1756.17zM3795.559 1626.276c-89.89-65.73-364.94-72.79-364.94-72.79 40.93-6.03 57.83-27.04 76-50.22l14.34-9.48C3520.959 1493.786 3713.699 1544.416 3795.559 1626.276z" class="color56b6e5 svgShape"/><path fill="#1ce594" d="M2700.981 1928.162H950.432c3.411-48.959 8.811-103.606 17.148-162.463 45.709 38.39 127.102 88.655 246.781 97.813 198.239 15.182 506.005-10.234 688.437 0 182.432 10.245 151.408 0 306.632 0C2364.667 1863.513 2700.981 1928.162 2700.981 1928.162zM4978.939 1488.982c-92.333 44.807-330.649 134.803-638.449 58.348-395.947-98.368-558.744-115.805-560.56-116.002 62.846-11.124 166.163-48.982 310.263-50.034 72.964-.532 156.381 8.372 250.297 34.967 195.152 55.272 414.655-67.217 529.281-146.112C4910.497 1341.736 4946.897 1414.896 4978.939 1488.982zM5121.976 1957.799l-1843.668 8.973-516.319-62.071c0 0 239.057-79.358 376.705-79.358 137.66 0 149.639-43.084 239.265-43.084 89.626 0 191.301-13.194 402.595 0 211.294 13.182 314.033 36.355 387.147-5.863 73.125-42.217 338.755-87.51 487.006-113.365 108.856-18.987 285.333-43.905 371.444-55.815C5068.739 1723.471 5100.757 1841.15 5121.976 1957.799z" class="color1ca3e5 svgShape"/><path fill="#fff" d="M1699.429 1394.007c203.472 0 406.945 0 610.417 0 4.256-53.471-24.26-103.825-70.844-126.037-52.237-24.907-117.149-9.642-154.87 37.894-19.29-55.746-69.908-93.28-125.214-93.91-69.145-.788-109.054 56.523-112.033 60.959-2.089-4.63-25.256-54.064-70.844-60.959-47.828-7.234-104.178 34.797-115.328 103.796C1648.588 1352.482 1669.013 1375.37 1699.429 1394.007zM2303.67 908.491c99.466 0 198.933 0 298.399 0 20.63-44.534.557-97.582-42.864-117.051-41.71-18.703-92.535-.847-113.754 41.215-6.658-34.52-36.295-59.242-69.242-59.35-28.515-.093-54.947 18.266-65.944 46.161-17.603-29.165-49.707-44.189-77.485-37.918-36.938 8.339-64.228 53.878-49.458 100.565C2223.438 890.906 2263.554 899.699 2303.67 908.491zM3258.216 939.815c184.645 0 369.289 0 553.933 0 3.938-2.53 67.172-43.902 59.35-75.836-6.791-27.724-66.828-47.07-150.024-32.972-12.014-61.19-49.772-112.852-100.565-128.591-75.731-23.467-178.748 33.447-207.725 145.078-31.72-14.2-81.393-29.728-138.483-19.783-21.771 3.792-77.327 13.469-82.43 42.864C3188.356 893.125 3214.922 922.768 3258.216 939.815z" class="colorfff svgShape"/><path fill="#edffe5" d="M1566.843,1081.765c90.99,63.479,153.409,156.661,234.939,230.587
		c167.099,151.515,381.137,251.391,607.017,268.826c237.115,18.302,469.863-58.002,661.346-196.363
		c97.311-70.315,183.715-155.398,257.799-249.756c80.519-102.553,144.25-217.376,251.824-295.648
		c215.933-157.114,450.655-158.725,690.565-59.327c93.459,38.722,189.646,62.436,287.326,66.566
		c-31.42-33.406-64.045-65.971-97.869-97.592c-67.586-4.658-145.162-19.257-227.863-51.865
		c-185.85-73.279-405.704-63.081-583.501,28.699c-264.818,136.701-355.677,452.137-595.376,617.745
		c-233.602,161.395-581.285,223.171-856.518,153.631c-168.043-42.458-311.057-148.558-428.61-272.649
		c-107.008-112.959-202.368-240.713-362.545-277.297c-36.891-8.426-77.402-18.336-117.955-25.087
		c-17.749,25.171-34.588,50.581-50.567,76.158C1351.092,992.548,1461.244,1008.095,1566.843,1081.765z" class="colore5f6ff svgShape" opacity=".4"/><path fill="#edffe5" d="M1476.067,1142.594c281.67,4.162,361.183,125.404,745.172,178.05
		c206.8,28.353,394.106,51.711,606.689-32.972c216.359-86.187,351.144-241.362,395.667-296.75
		c140.608-174.92,113.517-265.887,217.617-382.478c80.972-90.689,232.814-187.342,546.483-191.987
		c-54.426-27.933-110.676-53.746-168.732-77.243c-158.451,13.883-372.281,83.965-484.91,340.669
		c-192.887,439.63-563.4,671.347-922.398,622.694s-484.692-81.02-680.052-150.916c-175.35-62.737-421.075-68.927-579.85,0.04
		c-7.478,15.236-14.698,30.481-21.653,45.721C1228.56,1164.755,1345.459,1140.664,1476.067,1142.594z" class="colore5f6ff svgShape" opacity=".4"/><circle cx="2128.917" cy="881.451" r="222.231" fill="#50ff09" class="colorffd109 svgShape"/><path fill="#6fc74b" d="M5095.188,1837.036c-14.496-22.433-684.698-7.82-724.496-11.695
		c-93.792,6.2-265.912,50.134-366.596,29.614c-80.072-24.731-120.161-33.133-260.609-29.05
		c-141.729,2.915-321.838,16.774-463.44,28.325c-256.251,28.68-316.741,2.171-551.054,41.495
		c-171.585,25.235-398.682,11.34-572.054,2.367c-115.47-8.476-182.782,7.609-299.059,8.427
		c-25.417,0.21-315.593-0.689-336.404,0.808c-204.691,22.142-380.863-23.073-572.218-3.711
		c-12.772,82.974,0.92,396.64,41.781,565.75c7.739,37.13,16.426,73.891,26.176,110.603c22.672,81.964,46.915,163.825,69.829,245.348
		c25.248,86.517,49.753,173.561,85.614,255.777c28.618,65.456,67.84,128.837,126.779,170.961
		c35.487,25.454,73.435,42.03,116.291,54.151c271.673,71.141,733.058,142.878,974.879,329.831
		c124.659,90.177,363.989,157.124,648.289,178.627c412.147,30.542,898.955-58.123,1128.908-433.56
		c29.694-37.759,60.854-74.177,94.061-108.836c53.879-56.415,113.025-107.857,177.321-152.01
		c56.503-38.972,117.064-71.803,178.906-101.004c61.896-29.667,125.633-55.723,184.363-91.407
		c60.33-36.083,112.243-85.726,148.632-146.148C5093.614,2520.424,5227.337,2098.675,5095.188,1837.036z M1877.966,3385.668
		c-83.474-27.879-163.665-55.653-209.513-65.702c-137.336-30.122-43.859-81.162-43.859-81.162
		c44.079-25.451,178.027-8.383,303.927,32.793C2219.196,3368.907,2316.881,3553.925,1877.966,3385.668z M3307.683,3727.499
		c-139.605,59.48-548.476-1.222-544.876-136.717C2781.073,3468.33,3699.501,3590.899,3307.683,3727.499z" class="color93c74b svgShape"/><path fill="#6fc74b" d="M2532.21,1909.34l-455.323,1027.457l-148.367,334.8c-125.9-41.176-259.848-58.244-303.927-32.793
			c0,0-93.477,51.04,43.859,81.162c45.848,10.048,126.039,37.823,209.513,65.702l-12.454,28.099
			c-172.072-45.339-337.98-76.063-449.784-107.561c-18.987-5.354-36.62-11.529-53.052-18.605l314.252-472.761l604.997-910.138
			c35.025,1.48,72.94,2.787,111.712,3.677C2439.693,1909.432,2486.998,1909.884,2532.21,1909.34z" class="color93c74b svgShape"/><path fill="#70d845" d="M2790.774,1885.786l-281.448,1270.203l-108.07,487.712c-3.677-2.544-7.239-5.099-10.65-7.667
			c-140.215-105.213-336.361-172.534-525.095-222.267l12.454-28.099c166.614,55.654,346.282,111.712,291.681,28.099
			c-37.21-56.995-136.388-107.931-241.127-142.169l148.367-334.8L2532.21,1909.34c15.957-0.185,31.637-0.497,46.923-0.96
			c58.729-1.769,111.446-5.643,149.859-12.65C2750.407,1891.822,2770.978,1888.538,2790.774,1885.786z" class="colorbcd845 svgShape"/><path fill="#6fc74b" d="M3038.897,1871.297v1675.031c-127.311-9.945-265.976-8.268-276.083,44.46
			c-12.095,63.077,119.621,130.757,276.083,152.727v71.148c-275.365-19.125-520.979-90.17-637.64-170.961l108.07-487.712
			l281.448-1270.203C2889.27,1872.06,2968.732,1871.332,3038.897,1871.297z" class="color93c74b svgShape"/><path fill="#70d845" d="M1775.268 1906.516l-755.727 682.135c-25.097-92.783-42.134-181.669-53.484-263.548l555.419-417.778c15.909-.497 32.006-.809 48.268-.809H1775.268zM2281.925 1904.703l-604.997 910.138c0 0 0 0-.012 0l-314.252 472.761c-128.953-55.388-184.571-165.134-243.856-355.267l98.09-110.671 819.575-924.707c34.62-1.642 72.732-1.965 120.465 1.133C2189.316 1900.194 2232.805 1902.622 2281.925 1904.703z" class="colorbcd845 svgShape"/><path fill="#6fc74b" d="M2036.474,1896.956l-819.575,924.707l-98.09,110.671c-8.927-28.63-17.923-59.076-27.277-91.43
			c-18.397-63.655-38.124-134.699-61.204-213.826c-3.758-12.881-7.354-25.693-10.788-38.424l755.734-682.135h82.607
			C1927.78,1906.518,1976.947,1899.777,2036.474,1896.956z" class="color93c74b svgShape"/><path fill="#70d845" d="M5045.964 2577.551c-22.524 58.498-47.692 114.926-74.398 167.492-23.44 46.137-49.866 82.399-79.064 112.267l-888.404-1002.354c66.902 11.736 154.532 1.029 229.506-10.661L5045.964 2577.551zM3698.333 3741.999h-.011c-205.79 70.489-441.887 87.776-659.425 72.663v-71.148c88.886 12.488 185.762 10.222 268.786-16.015 229.147-72.42-9.008-147.789-54.405-154.854 0 0-102.832-17.623-214.381-26.317V1871.297c3.989-.011 7.944-.011 11.875-.011 27.382 0 116.534-7.851 229.275-17.056l300.943 1358.187L3698.333 3741.999z" class="colorbcd845 svgShape"/><path fill="#6fc74b" d="M5120.551 2331.717v.011c-18.118 82.723-43.897 166.186-74.587 245.822l-812.36-733.256c58.866-9.17 109.93-18.952 137.071-18.952h76.667L5120.551 2331.717zM4892.501 2857.31c-88.287 90.343-201.965 122.315-335.547 192.342L3743.49 1825.898c101.729-2.104 182.99 1.492 214.831 15.703 13.618 6.083 29.045 10.419 45.777 13.356L4892.501 2857.31z" class="color93c74b svgShape"/><path fill="#70d845" d="M4556.957,3049.654c-4.024,2.116-8.071,4.256-12.129,6.441
			c-107.584,57.828-227.749,141.753-357.695,300.874l-84.435-190.527l-589.283-1329.719c80.087-5.238,159.954-9.389,230.073-10.823
			L4556.957,3049.654z" class="colorbcd845 svgShape"/><path fill="#6fc74b" d="M4187.132,3356.969c-22.826,27.96-45.964,58.244-69.391,91.118
			c-101.039,141.788-249.927,235.901-419.408,293.913h-0.011l-117.343-529.57L3280.047,1854.23
			c71.53-5.84,152.565-12.234,233.368-17.507l589.283,1329.719L4187.132,3356.969z" class="color93c74b svgShape"/><path fill="#6fc74b" d="M1676.917 2814.841l-314.252 472.761c-128.953-55.388-184.571-165.134-243.856-355.267-8.927-28.63-17.923-59.076-27.277-91.43 37.372-6.741 79.555-13.448 125.368-19.241C1349.667 2804.839 1512.789 2795.6 1676.917 2814.841zM4393.708 3102.151c-81.393 30.041-181.831 49.837-291.01 64.291-165.781 21.947-351.706 31.579-521.707 45.975l-.012.012c-148.633 12.604-285.09 28.862-385.239 60.221-49.664 15.552-101.964 23.115-156.843 23.716-156.022 1.711-332.915-52.866-529.57-140.377-134.966-60.059-279.239-135.648-432.44-219.192-3.747-2.047-7.505-4.093-11.262-6.151-119.517-65.286-254.436-100.068-388.696-115.805l-314.252 472.761c16.431 7.076 34.065 13.251 53.052 18.605 111.804 31.498 277.713 62.221 449.784 107.561 188.734 49.733 384.88 117.054 525.095 222.267 3.411 2.567 6.973 5.123 10.65 7.667 116.661 80.792 362.274 151.836 637.64 170.961 217.538 15.114 453.635-2.174 659.425-72.663h.011c169.482-58.012 318.369-152.125 419.408-293.913 7.319-10.268 14.616-20.293 21.877-30.064 1.422-1.919 2.845-3.827 4.267-5.723 1.48-1.977 2.96-3.943 4.44-5.897 1.445-1.908 2.891-3.816 4.336-5.712s2.891-3.793 4.336-5.666c1.445-1.885 2.879-3.747 4.325-5.608 2.162-2.787 4.324-5.55 6.475-8.302.22-.266.439-.543.648-.821 3.018-3.839 6.036-7.632 9.042-11.39 1.076-1.341 2.151-2.67 3.215-4.001.717-.89 1.434-1.781 2.151-2.659 1.422-1.77 2.856-3.527 4.278-5.273 1.017-1.237 2.035-2.486 3.041-3.712 1.018-1.237 2.036-2.463 3.042-3.689 1.018-1.226 2.023-2.451 3.041-3.666.139-.162.277-.335.417-.497 1.884-2.266 3.758-4.51 5.643-6.741.197-.231.382-.451.578-.682 2.093-2.486 4.186-4.949 6.279-7.389 1.041-1.226 2.082-2.44 3.134-3.654 1.029-1.214 2.07-2.417 3.122-3.619 1.041-1.203 2.082-2.405 3.122-3.596 2.081-2.394 4.163-4.764 6.244-7.111 1.029-1.179 2.069-2.348 3.11-3.504 2.058-2.336 4.14-4.648 6.209-6.949 1.029-1.145 2.058-2.29 3.099-3.423 2.058-2.278 4.116-4.533 6.186-6.777.59-.647 1.179-1.283 1.758-1.919.729-.787 1.445-1.561 2.162-2.336 2.972-3.215 5.932-6.383 8.892-9.505 1.885-2 3.77-3.978 5.654-5.932 2.036-2.139 4.07-4.256 6.117-6.36 4.07-4.209 8.14-8.337 12.199-12.407 1.006-1.018 2.023-2.035 3.041-3.041 1.018-1.017 2.023-2.023 3.029-3.007.509-.497 1.006-1.006 1.515-1.503.509-.497 1.006-1.006 1.515-1.491 3.029-2.983 6.059-5.92 9.065-8.834 1.596-1.527 3.18-3.041 4.764-4.544 1.422-1.364 2.844-2.706 4.267-4.047 1.006-.96 2.012-1.896 3.007-2.821 1.006-.948 2-1.885 2.995-2.798 1.006-.937 2-1.862 2.995-2.775 2.313-2.151 4.637-4.267 6.938-6.36.96-.879 1.919-1.746 2.868-2.602.96-.867 1.919-1.723 2.868-2.578.74-.671 1.48-1.33 2.22-1.989.995-.89 1.977-1.769 2.972-2.636.174-.162.347-.324.532-.474 1.792-1.596 3.596-3.18 5.389-4.741 2.22-1.942 4.429-3.862 6.637-5.759 1.11-.948 2.208-1.896 3.319-2.844 5.516-4.706 10.997-9.297 16.466-13.783.971-.798 1.954-1.596 2.925-2.382 2.914-2.382 5.828-4.718 8.719-7.031 2.902-2.313 5.805-4.602 8.684-6.857 1.919-1.503 3.839-2.995 5.758-4.464.96-.751 1.919-1.48 2.879-2.208.948-.74 1.908-1.457 2.868-2.186 1.862-1.422 3.711-2.821 5.562-4.197.138-.116.277-.22.416-.312 1.827-1.376 3.643-2.729 5.458-4.059 1.862-1.387 3.712-2.74 5.562-4.082.093-.069.186-.139.278-.197 1.85-1.353 3.688-2.694 5.527-4.001 1.885-1.365 3.77-2.718 5.655-4.036 1.677-1.191 3.353-2.37 5.018-3.526 1.434-1.018 2.868-2.012 4.29-2.995.093-.058.173-.127.266-.185.913-.636 1.838-1.272 2.74-1.896.093-.058.186-.127.278-.185 1.838-1.26 3.677-2.52 5.516-3.758 1.838-1.249 3.666-2.486 5.492-3.7 1.827-1.226 3.654-2.44 5.481-3.643 1.815-1.202 3.643-2.393 5.458-3.573 9.077-5.92 18.085-11.586 27.012-17.032 3.573-2.174 7.134-4.324 10.684-6.429 6.811-4.047 13.575-7.979 20.282-11.794 2.035-1.156 4.07-2.301 6.093-3.435 1.77-.994 3.539-1.977 5.296-2.948 4.707-2.614 9.39-5.157 14.038-7.667C4495.395 3068.248 4444.598 3083.373 4393.708 3102.151zM1877.966 3385.668c-83.474-27.879-163.665-55.653-209.513-65.702-137.336-30.122-43.859-81.162-43.859-81.162 44.079-25.451 178.027-8.383 303.927 32.793 104.739 34.239 203.917 85.175 241.127 142.169C2224.248 3497.381 2044.58 3441.322 1877.966 3385.668zM3307.683 3727.499c-83.023 26.237-179.9 28.503-268.786 16.015-156.461-21.97-288.177-89.649-276.083-152.727 10.106-52.728 148.772-54.405 276.083-44.46 111.55 8.695 214.381 26.317 214.381 26.317C3298.675 3579.71 3536.831 3655.079 3307.683 3727.499z" class="color93c74b svgShape" opacity=".8"/><path fill="#a7ff83" d="M953.494,1889.089c0,0-11.517,52.526-12.996,106.929c57.595-48.247,122.62-84.894,192.135-109.326
			C1029.36,1887.707,953.494,1889.089,953.494,1889.089z" class="color9fcd5f svgShape"/><path fill="#28ae78" d="M1240.969,1885.876c-37.911,0.192-74.588,0.484-108.336,0.816
			c-69.515,24.432-134.54,61.079-192.135,109.326c-0.62,22.814,0.524,45.958,5.024,65.697c0,0,27.44-3.475,75.173-8.313
			c16.427-13.263,32.775-26.822,49.004-41.207C1124.244,1963.392,1179.599,1921.735,1240.969,1885.876z" class="color76ae28 svgShape"/><path fill="#a7ff83" d="M1240.969,1885.876c-61.37,35.859-116.725,77.516-171.269,126.319
			c-16.229,14.385-32.577,27.944-49.004,41.207c38.759-3.929,90.911-8.756,152.611-13.353
			c41.728-38.396,91.051-65.821,141.532-98.389c32.378-20.722,64.031-39.991,96.989-55.78
			C1355.818,1885.527,1297.044,1885.591,1240.969,1885.876z" class="color9fcd5f svgShape"/><path fill="#28ae78" d="M1411.828,1885.879c-32.958,15.79-64.612,35.059-96.989,55.78
			c-50.481,32.568-99.804,59.993-141.532,98.389c62.16-4.631,134.038-9.024,211.691-12.03c2.73-4.496,5.531-9.003,8.47-13.511
			c37.894-62.185,103.547-87.632,162.657-126.418C1513.312,1886.889,1463.761,1886.205,1411.828,1885.879z" class="color76ae28 svgShape"/><path fill="#a7ff83" d="M1556.126,1888.089c-59.11,38.787-124.763,64.233-162.657,126.418
			c-2.94,4.508-5.74,9.015-8.47,13.511c39.461-1.528,80.422-2.694,122.361-3.352c4.303-4.995,8.732-9.925,13.305-14.784
			c43.025-48.541,98.677-74.99,148.888-115.477C1644.707,1891.48,1604.766,1889.452,1556.126,1888.089z" class="color9fcd5f svgShape"/><path fill="#28ae78" d="M1679.352 1895.729c-2.939-.46-6.213-.901-9.8-1.324-50.211 40.486-105.862 66.935-148.888 115.477-4.573 4.858-9.002 9.789-13.305 14.784 44.479-.698 90.063-.822 136.14-.191 4.339-4.98 8.867-9.849 13.61-14.592 38.158-39.315 86.724-61.285 126.039-99.443 3.874-3.418 7.698-6.781 11.509-10.119C1744.319 1900.499 1703.058 1899.444 1679.352 1895.729zM1988.972 1957.848c33.948-18.932 63.473-40.813 93.361-62.105-46.945.28-97.27 1.327-146.286 2.352-50.524 44.584-100.234 82.694-158.681 116.413-7.431 4.246-15.591 8.251-23.03 13.017 46.009 1.93 92.02 4.745 137.446 8.613 16.687-14.154 34.385-27.242 52.094-41.287C1960.064 1982.13 1971.628 1967.098 1988.972 1957.848z" class="color76ae28 svgShape"/><path fill="#a7ff83" d="M2084.38,1895.729c-0.679,0.004-1.366,0.009-2.047,0.013
			c-29.888,21.292-59.413,43.173-93.361,62.105c-17.345,9.25-28.908,24.283-45.096,37.002
			c-17.709,14.045-35.407,27.134-52.094,41.287c44.292,3.771,88.013,8.559,130.638,14.5
			c58.983-52.679,121.181-98.451,181.805-151.281C2170.05,1897.28,2128.769,1895.485,2084.38,1895.729z" class="color9fcd5f svgShape"/><path fill="#28ae78" d="M2281.92,1904.701c-15.884-0.861-43.161-3.246-77.695-5.345
			c-60.624,52.83-122.822,98.603-181.805,151.281c50.965,7.104,100.357,15.865,147.21,26.59c1.08-1.62,2.147-3.254,3.197-4.905
			c12.737-20.016,25.073-40.673,37.92-61.004c8.101-12.819,16.404-25.509,25.139-37.826c5.351-7.545,12.134-13.897,17.809-21.178
			c5.869-7.529,10.07-16.099,14.779-24.361C2268.708,1927.545,2292.977,1905.3,2281.92,1904.701z" class="color76ae28 svgShape"/><path fill="#a7ff83" d="M1794.657,1900.32c-3.811,3.337-7.635,6.701-11.509,10.119
			c-39.315,38.159-87.88,60.129-126.039,99.443c-4.743,4.743-9.271,9.612-13.61,14.592c36.735,0.503,73.784,1.496,110.837,3.05
			c7.439-4.766,15.599-8.771,23.03-13.017c58.447-33.719,108.156-71.829,158.681-116.413
			C1885.851,1899.144,1837.036,1900.169,1794.657,1900.32z" class="color9fcd5f svgShape"/><path fill="#6fc74b" d="M3871.256,1816.685c0,0,454.754,253.71,691.053,415.488
		c-155.614-231.642-490.439-372.134-490.439-372.134L3871.256,1816.685z" class="color93c74b svgShape" opacity=".8"/><path fill="#6fc74b" d="M4574.609,2244.473c-135.289-129.508-296.018-212.762-463.684-291.392
		c-116.32-54.078-85.552-59.792-199.541-122.295c-5.881,1.011-68.788-34.795-167.895-33.693
		c-126.929,1.412-222.533,39.141-222.533,39.141s103.903,12.279,222.533,81.045c82.1,47.591,162.176,137.369,257.063,206.652
		c231.993,169.394,213.673,183.676,301.235,271.237s457.667,557.125,509.106,527.427c13.13-7.58,111.9-78.503,155.287-155.01
		c-43.536-90.008-96.726-174.785-162.62-256.002C4727.243,2417.921,4661.333,2327.728,4574.609,2244.473z" class="color93c74b svgShape"/><path fill="#086972" d="M1501.846,2600.62c0,0,73.097-361.556,210.001-498.46v11.466c0,0-41.844,51.204-86.9,149.612
			c-42.216,92.205-86.517,227.489-123.101,353.627C1493.056,2625.655,1501.846,2600.62,1501.846,2600.62z" class="color0d9214 svgShape"/><path fill="#fff" d="M1696.741,2118.458c0,0-6.325,113.563,76.962,85.689c83.287-27.874-49.449-101.987-49.449-101.987
			s218.194,8.169,172.168-70.965c-46.026-79.133-157.418,23.081-157.418,23.081s93.129-162.667-27.156-136.562
			c-120.284,26.105-15.217,144-15.217,144s-136.391-103.058-151.229-17.33c-14.838,85.728,103.953,57.776,103.953,57.776
			s-134.641,75.457-31.921,101.987C1720.155,2230.677,1696.741,2118.458,1696.741,2118.458z" class="colorfff svgShape"/><circle cx="1696.468" cy="2089.94" r="17.117" fill="#50ff09" class="colorffd109 svgShape"/><path fill="#086972" d="M1280.07,2385.141c0,0-119.533-195.093-115.186-315.106l4.844,5.208
			c0,0,2.625,40.932,23.732,104.661c19.776,59.712,56.804,139.87,93.473,212.615
			C1286.653,2400.225,1280.07,2385.141,1280.07,2385.141z" class="color0d9214 svgShape"/><path fill="#fff" d="M1164.907,2083.819c0,0,45.1,54.251,71.153,6.408s-65.542-25.432-65.542-25.432
			s89.192-70.193,34.859-86.691s-48.388,58.712-48.388,58.712s-26.418-113.222-70.022-50.553s53.919,71.831,53.919,71.831
			s-105.482,10.809-76.007,56.013s71.621-17.672,71.621-17.672s-29.277,91.148,28.585,59.805
			C1222.947,2124.897,1164.907,2083.819,1164.907,2083.819z" class="colorfff svgShape"/><circle cx="1152.737" cy="2070.982" r="10.617" fill="#50ff09" class="colorffd109 svgShape"/><path fill="#6bc546" d="M1573.16,2547.239c-3.517-83.531-7.069-167.393-22.284-249.602
			c-12.68-68.515-33.7-136.157-68.22-196.963c-32.668-57.542-81.753-104.322-111.378-163.662
			c-22.654-45.377-30.454-95.88-39.711-145.215c-7.075-37.706-18.281-76.619-52.086-99.033
			c-16.02-10.622-37.174-13.986-55.792-9.918c6.143,45.435,25.397,124.058,82.571,239.13
			c97.68,196.597,156.206,380.829,146.726,563.825c-5.699,110.015,10.35,206.901,24.057,268.219
			c12.094-2.523,24.326-7.463,36.455-15.252c29.533-18.967,47.363-52.389,54.969-86.653
			C1576.074,2617.848,1574.636,2582.306,1573.16,2547.239z" class="color86c546 svgShape"/><path fill="#39bc87" d="M1452.987,2485.8c9.479-182.996-49.046-367.228-146.726-563.825
			c-57.174-115.072-76.428-193.696-82.571-239.13c-6.53,1.427-12.737,3.781-18.311,7.045
			c4.896,61.625,24.285,169.884,92.227,314.928c110.045,234.927,6.244,311.197,55.672,498.716
			c43.093,163.486,94.662,224.606,113.73,252.033c3.332-0.335,6.68-0.847,10.038-1.548
			C1463.336,2692.701,1447.288,2595.815,1452.987,2485.8z" class="color6cbc39 svgShape"/><path fill="#086972" d="M1297.605,2004.818c-67.942-145.044-87.331-253.304-92.227-314.928
			c-8.609,5.04-15.694,12.266-20.014,21.739c-10.867,23.831-1.696,51.478,6.646,76.305
			c39.969,118.948,59.134,244.855,56.366,370.308c-1.651,74.831-10.795,151.611,11.313,223.121
			c15.727,50.872,45.936,96.341,58.235,148.393c7.609,32.202,3.18,64.44,8.328,96.696c10.836,67.899,72.492,135.975,140.755,129.116
			c-19.067-27.427-70.637-88.547-113.73-252.033C1303.849,2316.015,1407.65,2239.745,1297.605,2004.818z" class="color0d9214 svgShape"/><path fill="#6bc546" d="M1265.483,3032.955c-25.277,0.798-51.098-14.951-74.293-23.057c-2.66-0.926-5.307-1.862-7.921-2.81
			c-32.689-11.772-61.921-24.977-88.424-49.017c-40.309-36.563-68.223-84.608-93.037-133.046
			c-24.826-48.427-47.421-98.438-79.67-142.273c-32.677-44.426-74.374-81.289-111.33-122.211
			c-36.956-40.933-70.142-88.065-80.075-142.308c-3.122-17.021-2.74-37.268,10.638-48.253c1.341-1.099,2.74-2.058,4.174-2.868
			c17.021-9.656,40.217,0.034,58.093,10.233c120.974,69.055,236.849,147.072,346.352,233.195
			c88.354,69.483,177.495,152.391,199.985,262.53C1362.047,2932.216,1342.586,3030.48,1265.483,3032.955z" class="color86c546 svgShape"/><path fill="#39bc87" d="M1414.59,2832.9c-2.463,12.951-6.892,25.323-15.691,34.921
			c-7.817,8.533-15.807,14.118-23.866,17.322c-47.328,18.848-97.142-43.963-127.588-72.686
			c-56.544-53.318-103.456-97.431-134.41-171.308c-32.412-77.335-45.559-161.145-58.44-244.006
			c-12.985-83.463-25.959-166.926-38.945-250.401c-1.445-9.343-2.648-19.669,0.324-28.283c0.96-2.798,2.359-5.412,4.325-7.747
			c1.18-1.411,2.532-2.613,3.978-3.654c8.499,64.754,31.729,163.931,94.541,260.056
			C1215.402,2514.925,1385.578,2644.79,1414.59,2832.9z" class="color6cbc39 svgShape"/><path fill="#086972" d="M1375.032,2885.143c-47.328,18.848-97.142-43.963-127.588-72.686
			c-56.544-53.318-103.456-97.431-134.41-171.308c-32.412-77.335-45.559-161.145-58.44-244.006
			c-12.985-83.463-25.959-166.926-38.945-250.401c-1.445-9.343-2.648-19.669,0.324-28.283
			c12.373,74.837,45.385,252.274,92.459,338.813C1166.548,2564.114,1349.847,2800.593,1375.032,2885.143z" class="color0d9214 svgShape"/><path fill="#6bc546" d="M1417.168,2812.422c-0.544,6.776-1.295,13.702-2.579,20.478
			c-29.012-188.11-199.187-317.975-295.774-465.788c-62.811-96.125-86.042-195.302-94.541-260.056
			c2.578-1.85,5.516-3.145,8.638-3.943c6.822-1.734,14.512-1.041,21.114,1.584c11.344,4.51,20.236,13.471,28.723,22.236
			c91.28,94.205,178.454,194.053,242.075,308.771c25,45.085,46.23,92.725,62.152,141.88
			C1411.572,2653.509,1423.517,2733.052,1417.168,2812.422z" class="color86c546 svgShape"/><path fill="#70d945" d="M1385.393,2634.592c0,0-70.235-115.389-179.703-248.944
			c-87.198-106.392-150.599-234.732-172.777-282.534c6.822-1.734,14.512-1.041,21.114,1.584
			c11.344,4.51,20.236,13.471,28.723,22.236c91.28,94.205,178.454,194.053,242.075,308.771c25,45.085,46.23,92.725,62.152,141.88
			C1389.81,2615.108,1385.393,2634.592,1385.393,2634.592z" class="colorbbd945 svgShape"/><g class="color000 svgShape"><path fill="#50ff09" d="M3424.275 2326.967c-2.274 1.45-4.557 2.906-6.846 4.367-6.122 3.905-14.252 2.399-18.509-3.483-21.682-29.965-51.186-54.859-87.191-71.213-35.967-16.337-74.082-22.182-110.877-18.819-7.277.665-13.824-4.41-14.918-11.635-.407-2.686-.812-5.363-1.216-8.03-1.189-7.85 4.499-15.025 12.404-15.765 42.91-4.019 87.367 2.74 129.343 21.807s76.316 48.1 101.521 83.058C3432.63 2313.693 3430.969 2322.697 3424.275 2326.967zM3364.123 2365.408c-2.294 1.468-4.581 2.932-6.86 4.39-6.052 3.873-14.024 2.407-18.391-3.299-14.42-18.842-33.54-34.497-56.616-44.978-23.074-10.481-47.441-14.58-71.115-13.044-7.169.465-13.518-4.573-14.584-11.678-.4-2.669-.802-5.348-1.206-8.034-1.196-7.967 4.68-15.218 12.717-15.779 29.593-2.065 60.081 2.992 88.924 16.094 28.854 13.106 52.722 32.738 70.641 56.369C3372.502 2351.868 3370.909 2361.065 3364.123 2365.408zM3303.792 2404.037c-2.334 1.496-4.639 2.972-6.912 4.427-5.724 3.666-13.27 2.604-17.747-2.51-7.081-8.088-15.952-14.826-26.349-19.549-10.401-4.725-21.3-6.97-32.041-6.976-6.804-.004-12.574-4.991-13.578-11.72-.398-2.665-.802-5.368-1.211-8.107-1.228-8.212 5.04-15.693 13.343-15.797 16.14-.201 32.568 3.046 48.224 10.158 15.648 7.108 28.915 17.339 39.387 29.635C3312.289 2389.919 3310.782 2399.559 3303.792 2404.037zM3259.118 2474.991c-9.682 21.314-34.812 30.759-56.142 21.07-21.315-9.682-30.736-34.821-21.054-56.135 6.175-13.594 18.628-22.358 32.37-24.393 7.801-1.192 16.035-.191 23.756 3.316 7.721 3.507 13.876 9.042 18.127 15.709C3263.69 2446.229 3265.292 2461.397 3259.118 2474.991z" class="colorffd109 svgShape"/></g><g class="color000 svgShape" opacity=".5"><polygon fill="#fff" points="2980.932 2804.801 2980.932 2804.801 2980.932 2804.801" class="colorfff svgShape"/><polygon fill="#fff" points="4024.352 2487.706 3568.004 2940.773 3603.85 2976.88 4046.022 2537.886 4765.092 2513.765 4228.18 3073.417 3842.558 3514.268 3531.093 2967.85 2999.657 2757.495 2980.932 2804.801 3495.745 3008.578 3833.771 3601.591 4265.703 3107.797 4888.405 2458.721" class="colorfff svgShape"/><rect width="50.878" height="459.007" x="4125.241" y="2557.913" fill="#fff" class="colorfff svgShape" transform="rotate(-23.873 4151.049 2787.615)"/><rect width="50.878" height="498.018" x="3897.569" y="2802.78" fill="#fff" class="colorfff svgShape" transform="rotate(-83.149 3922.894 3051.66)"/></g><g class="color000 svgShape"><circle cx="3528.316" cy="2997.282" r="252.238" fill="#38d998" class="color389fd9 svgShape"/><circle cx="3986.523" cy="2528.91" r="252.238" fill="#38d998" class="color389fd9 svgShape"/><circle cx="3838.165" cy="3557.93" r="252.238" fill="#38d998" class="color389fd9 svgShape"/><circle cx="4267.271" cy="3081.491" r="252.238" fill="#38d998" class="color389fd9 svgShape"/><circle cx="4796.846" cy="2492.807" r="252.238" fill="#38d998" class="color389fd9 svgShape"/><path fill="#fff" d="M3528.316 2845.609c0 0-181.76 285.21 0 285.21C3710.075 3130.819 3528.316 2845.609 3528.316 2845.609zM4135.277 2553.838c0-37.746-30.6-68.345-68.346-68.345-2.832 0-5.617.192-8.358.527.321-2.8.503-5.641.503-8.527 0-40.916-33.169-74.084-74.084-74.084-40.916 0-74.084 33.169-74.084 74.084 0 4.198.367 8.309 1.039 12.317-5.495-1.45-11.261-2.23-17.212-2.23-37.17 0-67.302 30.132-67.302 67.302s30.132 67.302 67.302 67.302h183.124l-.757-.757C4110.024 2616.514 4135.277 2588.127 4135.277 2553.838zM4246.939 3090.611c46.128 48.485 31.006 137.753 31.006 137.753s-89.911 10.659-136.038-37.826c-46.128-48.485-31.006-137.753-31.006-137.753S4200.812 3042.126 4246.939 3090.611z" class="colorfff svgShape"/><path fill="#fff" d="M4298.097,3088.25c-42.409,51.769-20.714,139.671-20.714,139.671s90.453,3.968,132.862-47.802
			c42.409-51.769,20.714-139.671,20.714-139.671S4340.506,3036.48,4298.097,3088.25z" class="colorfff svgShape"/><path fill="#fff" d="M4334.912 3030.635c-2.109 66.889-76.269 118.829-76.269 118.829s-70.741-56.508-68.632-123.397c2.109-66.889 76.269-118.828 76.269-118.828S4337.021 2963.746 4334.912 3030.635zM4818.819 2524.396v-183.164c0-19.064-15.455-34.519-34.519-34.519h0c-19.064 0-34.519 15.455-34.519 34.519v183.164c-16.365 11.082-27.123 29.822-27.123 51.075 0 34.044 27.598 61.642 61.642 61.642 34.044 0 61.643-27.598 61.643-61.642C4845.942 2554.218 4835.185 2532.322 4818.819 2524.396zM4939.805 2423.832h-71.839c-5.185 0-9.387-4.203-9.387-9.387v-9.89c0-5.184 4.203-9.387 9.387-9.387h71.839c5.184 0 9.387 4.203 9.387 9.387v9.89C4949.192 2419.629 4944.989 2423.832 4939.805 2423.832zM4939.805 2486.244h-71.839c-5.185 0-9.387-4.203-9.387-9.387v-9.889c0-5.184 4.203-9.387 9.387-9.387h71.839c5.184 0 9.387 4.203 9.387 9.387v9.889C4949.192 2482.042 4944.989 2486.244 4939.805 2486.244z" class="colorfff svgShape"/><path fill="#5def21" d="M4798.608,2543.001v-75.748h-28.617v75.748c-13.32,5.594-22.677,18.76-22.677,34.114
			c0,20.426,16.559,36.985,36.985,36.985s36.985-16.559,36.985-36.985C4821.286,2561.761,4811.929,2548.595,4798.608,2543.001z" class="coloref4821 svgShape"/><path fill="#a6e98a" d="M4798.608,2366.019c0-7.902-6.406-14.308-14.308-14.308s-14.309,6.406-14.309,14.308v101.235
			h28.617V2366.019z" class="color8ac6e9 svgShape"/></g><g class="color000 svgShape"><path fill="#fff" d="M4388.652,1600.31h-25.138l-8.887,701.686c11.74-5.462,25.478-6.67,42.913,0L4388.652,1600.31z" class="colorfff svgShape"/><path fill="#fff" d="M4364.227 1621.904c0 0-30.928 22.165-42.269 60.826s-68.433 294.448-68.042 297.427c1.607 12.263 10.934 13.979 11.607 6.701 0 0 106.797-272.574 106.797-304.018 0-31.444 3.762-52.688 3.762-52.688L4364.227 1621.904zM4398.091 1611.687c0 0 34.66 15.702 73.811 6.193 39.151-9.509 289.216-87.959 291.601-89.787 9.817-7.523 6.64-16.458 0-13.402 0 0-289.455 43.798-316.686 59.52s-47.51 23.086-47.51 23.086L4398.091 1611.687zM4372.311 1587.469c0 0-3.731-37.867-31.542-67.019-27.811-29.151-220.783-206.488-223.558-207.64-11.424-4.74-17.573 2.479-11.607 6.701 0 0 182.658 228.776 209.889 244.498s43.749 29.602 43.749 29.602L4372.311 1587.469z" class="colorfff svgShape"/><circle cx="4378.209" cy="1607.02" r="28.415" fill="#cadcc2" class="colorc2dcda svgShape"/></g><g class="color000 svgShape"><polygon fill="#fff" points="3654.173 1317.241 3635.97 1317.241 3629.534 1825.343 3660.608 1825.343" class="colorfff svgShape"/><path fill="#fff" d="M3636.487 1332.878c0 0-22.396 16.05-30.607 44.045-8.212 27.995-49.553 213.214-49.271 215.372 1.164 8.88 7.917 10.122 8.405 4.852 0 0 77.333-197.375 77.333-220.144s2.724-38.152 2.724-38.152L3636.487 1332.878zM3661.008 1325.479c0 0 25.098 11.37 53.448 4.484 28.35-6.886 209.426-63.693 211.153-65.016 7.108-5.448 4.808-11.918 0-9.705 0 0-209.599 31.715-229.317 43.099-19.719 11.385-34.403 16.717-34.403 16.717L3661.008 1325.479zM3642.34 1307.943c0 0-2.702-27.42-22.84-48.529-20.138-21.109-159.872-149.521-161.882-150.355-8.272-3.432-12.725 1.795-8.405 4.853 0 0 132.265 165.661 151.984 177.045 19.719 11.385 31.679 21.436 31.679 21.436L3642.34 1307.943z" class="colorfff svgShape"/><circle cx="3646.611" cy="1322.1" r="20.576" fill="#cadcc2" class="colorc2dcda svgShape"/></g><g class="color000 svgShape"><polygon fill="#fff" points="3991.342 1304.833 3968.309 1304.833 3960.167 1947.726 3999.484 1947.726" class="colorfff svgShape"/><path fill="#fff" d="M3968.963 1324.619c0 0-28.337 20.308-38.727 55.729-10.39 35.421-62.699 269.776-62.341 272.506 1.472 11.236 10.018 12.808 10.634 6.14 0 0 97.849-249.736 97.849-278.545 0-28.809 3.447-48.274 3.447-48.274L3968.963 1324.619zM3999.99 1315.257c0 0 31.756 14.386 67.626 5.674 35.871-8.712 264.982-80.59 267.168-82.264 8.994-6.893 6.083-15.079 0-12.279 0 0-265.202 40.128-290.152 54.533s-43.53 21.152-43.53 21.152L3999.99 1315.257zM3976.369 1293.069c0 0-3.419-34.695-28.899-61.403-25.48-26.709-202.284-189.187-204.827-190.242-10.467-4.343-16.101 2.272-10.634 6.14 0 0 167.353 209.608 192.302 224.012s40.083 27.122 40.083 27.122L3976.369 1293.069z" class="colorfff svgShape"/><circle cx="3981.774" cy="1310.982" r="26.034" fill="#cadcc2" class="colorc2dcda svgShape"/></g><circle cx="4343.762" cy="853.514" r="73.428" fill="#fff" class="colorfff svgShape"/><path fill="#fff" d="M1783.454,998.595c79.082,0,158.165,0,237.247,0c12.294-27.235,6.91-58.347-12.357-76.611
		c-24.405-23.134-67.852-22.589-95.558,5.766c-16.853-22.205-46.214-24.282-60.959-10.709c-10.53,9.693-13.566,27.33-7.414,43.66
		c-1.063-1.196-15.577-17.076-32.951-14.004C1793.531,949.868,1778.376,972.198,1783.454,998.595z" class="colorfff svgShape"/><g class="color000 svgShape"><path fill="#fff" d="M3957.689 3587.072c0-61.455-42.032-113.092-98.917-127.734v255.468C3915.657 3700.165 3957.689 3648.527 3957.689 3587.072zM3721.566 3587.072c0-61.455 42.032-113.092 98.917-127.734v255.468C3763.598 3700.165 3721.566 3648.527 3721.566 3587.072z" class="colorfff svgShape"/><polygon fill="none" points="3934.05 3472.679 3934.051 3472.68 3934.051 3472.679"/><polygon fill="none" points="3994.984 3583.999 3994.985 3584 3994.985 3583.999"/><path fill="#fff" d="M3941.078 3488.484c2.474-3.539 3.832-7.047 4.615-9.714.78-2.671.981-4.52 1.012-4.814.352-3.495-2.195-6.613-5.689-6.966-3.479-.351-6.583 2.172-6.958 5.642h-.002c0 .009-.12.997-.529 2.426-.306 1.073-.773 2.392-1.448 3.739-1.015 2.031-2.471 4.085-4.522 5.709-1.031.816-2.218 1.539-3.649 2.128-1.432.587-3.113 1.043-5.152 1.274-3.491.393-6.002 3.541-5.608 7.032.393 3.49 3.542 6.001 7.032 5.608 5.769-.638 10.595-2.643 14.303-5.337C3937.27 3493.198 3939.43 3490.837 3941.078 3488.484zM3934.05 3472.679L3934.05 3472.679C3934.051 3472.68 3934.051 3472.68 3934.05 3472.679L3934.05 3472.679zM4003.625 3581.504c-3.063-1.69-6.911-.587-8.618 2.459l-.002-.001c-.012.039-1.997 3.426-5.792 6.575-1.897 1.582-4.229 3.112-7.006 4.243-2.782 1.13-6.005 1.88-9.856 1.884-3.564-.002-7.691-.651-12.504-2.385-3.304-1.192-6.949.52-8.141 3.824-1.192 3.304.52 6.948 3.824 8.141 6.053 2.186 11.687 3.141 16.821 3.139 5.724.004 10.793-1.191 15.058-2.99 6.412-2.704 11.004-6.686 14.024-9.977 3.022-3.302 4.507-5.949 4.688-6.272C4007.817 3587.069 4006.7 3583.2 4003.625 3581.504zM3994.984 3583.999L3994.984 3583.999C3994.985 3584 3994.985 3584 3994.984 3583.999L3994.984 3583.999zM3984.706 3692.916L3984.706 3692.916l-.008 0 0 0c-.143.028-5.154.883-11.945.88-3.622 0-7.745-.243-11.877-.95-3.099-.528-6.199-1.317-9.103-2.427-4.366-1.669-8.242-4.031-11.28-7.302-1.523-1.642-2.853-3.52-3.959-5.735-1.104-2.216-1.988-4.776-2.562-7.793-.656-3.451-3.984-5.717-7.435-5.061-3.451.655-5.717 3.984-5.061 7.435 1.368 7.259 4.28 13.327 8.192 18.085 2.927 3.574 6.379 6.406 10.036 8.609 5.494 3.308 11.432 5.237 17.136 6.378 5.708 1.136 11.206 1.48 15.913 1.481 8.145-.003 13.934-1.036 14.189-1.079 3.457-.62 5.757-3.925 5.138-7.382C3991.461 3694.601 3988.16 3692.301 3984.706 3692.916zM3757.574 3487.909c-3.74-.434-6.282-1.579-8.279-3.006-1.49-1.077-2.672-2.354-3.629-3.719-1.435-2.039-2.331-4.289-2.824-5.985-.248-.846-.398-1.549-.48-2.004-.042-.228-.066-.393-.079-.483l-.01-.077h-.002c-.376-3.471-3.481-5.994-6.959-5.643-3.495.352-6.042 3.471-5.689 6.966l0 0c.027.261.19 1.751.773 3.955.438 1.653 1.112 3.708 2.17 5.944 1.585 3.343 4.058 7.133 7.939 10.324 1.936 1.591 4.218 3.014 6.836 4.118 2.617 1.105 5.565 1.887 8.81 2.252 3.49.393 6.638-2.118 7.031-5.608C3763.575 3491.45 3761.064 3488.302 3757.574 3487.909zM3703.978 3609.383c5.133.002 10.767-.954 16.821-3.14 3.303-1.192 5.016-4.836 3.824-8.14-1.192-3.304-4.836-5.016-8.14-3.824-4.815 1.734-8.942 2.383-12.505 2.385-3.976-.004-7.282-.803-10.124-1.995-4.248-1.782-7.461-4.531-9.581-6.848-1.058-1.154-1.837-2.189-2.327-2.897-.245-.354-.417-.626-.518-.789l-.096-.16-.007-.012-.001 0c-1.708-3.048-5.557-4.152-8.62-2.461-3.075 1.697-4.193 5.565-2.496 8.641.246.427 2.79 5.003 8.241 9.72 2.727 2.351 6.199 4.73 10.47 6.529C3693.184 3608.192 3698.253 3609.387 3703.978 3609.383z" class="colorfff svgShape"/><polygon fill="#fff" points="3670.208 3590.145 3670.208 3590.144 3670.208 3590.144" class="colorfff svgShape"/><path fill="#fff" d="M3749.79 3664.527c-3.451-.656-6.78 1.61-7.435 5.061-1.03 5.364-2.994 9.281-5.535 12.398-1.913 2.333-4.188 4.222-6.765 5.778-3.857 2.331-8.41 3.874-13.056 4.797-4.641.928-9.35 1.238-13.424 1.237-3.528 0-6.58-.229-8.715-.455-1.068-.113-1.907-.225-2.463-.305-.278-.041-.485-.073-.615-.094l-.136-.022-.015-.003 0 0-.008-.001 0 0c-3.455-.615-6.755 1.685-7.374 5.14-.62 3.457 1.681 6.762 5.138 7.382l0 0c.255.043 6.044 1.076 14.188 1.079 4.183 0 8.992-.274 14.018-1.131 3.769-.645 7.662-1.618 11.5-3.083 5.746-2.194 11.411-5.524 16.06-10.529 2.321-2.497 4.372-5.403 6.021-8.713 1.652-3.309 2.902-7.015 3.677-11.098C3755.506 3668.511 3753.241 3665.182 3749.79 3664.527zM3804.217 3461.406c0 0-33.275-32.326 0-60.352 35.596 35.597 35.596 35.597 35.596 35.597v20.215L3804.217 3461.406z" class="colorfff svgShape"/><path fill="#fff" d="M3875.41,3461.406c0,0,33.275-32.326,0-60.352c-35.597,35.597-35.597,35.597-35.597,35.597v20.215
			L3875.41,3461.406z" class="colorfff svgShape"/></g><path fill="#39bc87" d="M1274.097,2988.147c-3.77,30.029-41.13,29.717-90.829,18.94
		c-32.689-11.772-61.921-24.977-88.424-49.017c-40.309-36.563-68.223-84.608-93.037-133.046
		c-24.826-48.427-47.421-98.438-79.67-142.273c-32.677-44.426-74.374-81.289-111.33-122.211
		c-36.956-40.933-70.142-88.065-80.075-142.308c-3.122-17.021-2.74-37.268,10.638-48.253c1.341-1.099,2.74-2.058,4.174-2.868
		c0.624,0.867,1.26,1.758,1.931,2.671c34.019,47.293,111.423,148.818,197.742,221.886
		c116.106,98.264,257.176,222.128,314.056,340.663C1271.287,2957.354,1275.693,2975.462,1274.097,2988.147z" class="color6cbc39 svgShape"/><path fill="#086972" d="M1274.097,2988.147c-3.77,30.029-41.13,29.717-90.829,18.94
		c-32.689-11.772-61.921-24.977-88.424-49.017c-40.309-36.563-68.223-84.608-93.037-133.046
		c-24.826-48.427-47.421-98.438-79.67-142.273c-32.677-44.426-74.374-81.289-111.33-122.211
		c-36.956-40.933-70.142-88.065-80.075-142.308c-3.122-17.021-2.74-37.268,10.638-48.253c1.341-1.099,2.74-2.058,4.174-2.868
		c0.624,0.867,1.26,1.758,1.931,2.671c3.827,50.496,22.005,111.434,75.739,165.168c118.233,118.233,281.91,271.087,326.429,366.715
		C1172.087,2949.896,1226.087,2975.058,1274.097,2988.147z" class="color0d9214 svgShape"/><path fill="#6bc546" d="M1344.962,3004.559c-9.431-25.174-34.467-47.045-56.868-60.44
		c-53.039-31.717-119.08-32.903-180.115-23.214c-61.035,9.69-120.352,29.238-181.784,35.965c-39.083,4.28-79.126,3.4-116.822,14.57
		c-56.877,16.853-104.538,62.161-124.248,118.113c-4.811,13.656-7.694,29.927,0.681,41.739c0.442,0.624,0.915,1.215,1.401,1.79
		c12.296-17.921,24.514-35.34,42.646-49.121c95.974-74.004,213.919-82.099,328.394-64.754
		c93.108,13.867,180.277,48.092,273.862,41.634C1343.443,3043.767,1352.621,3025,1344.962,3004.559z" class="color86c546 svgShape"/><path fill="#086972" d="M949.336,3074.766c-124.279-21.233-214.546,36.938-251.01,66.387
		c7.249,3.213,15.782,4.329,23.804,4.303c33.249-0.105,64.714-14.17,97.393-20.304c62.755-11.78,126.716,5.962,189.322,18.51
		c64.702,12.968,132.299,20.364,196.23,4.014c45.303-11.586,88.657-36.751,117.715-73.843
		C1235.669,3095.597,1088.969,3098.623,949.336,3074.766z" class="color0d9214 svgShape"/><path fill="#39bc87" d="M1332.109,3060.84c-93.585,6.458-180.754-27.767-273.862-41.634
		c-114.475-17.345-232.42-9.251-328.394,64.754c-18.132,13.781-30.35,31.2-42.646,49.121c3.012,3.555,6.843,6.177,11.119,8.073
		c36.464-29.449,126.731-87.62,251.01-66.387c139.633,23.857,286.333,20.831,373.454-0.933c2.137-2.728,4.205-5.514,6.182-8.371
		C1330.029,3063.936,1331.077,3062.394,1332.109,3060.84z" class="color6cbc39 svgShape"/><g class="color000 svgShape"><path fill="#a2f87f" d="M1807.437,2831.501c-36.609,60.348-114.776,133.774-182.848,204.934
			c-45.339,47.409-86.215,93.812-107.306,134.688c-37.997,73.623-47.224,125.553-49.421,148.842
			c-17.067-4.256-33.267-8.488-48.496-12.743c-1.226-0.335-2.44-0.682-3.642-1.018c-18.987-5.354-36.621-11.529-53.052-18.605
			c-54.208-23.276-95.454-56.162-129.461-100.588c-0.752-5.123-1.133-10.419-1.133-15.888c0,0,44.507-59.354,95.616-189.59
			c51.109-130.248,103.861-334.673,270.37-408.862c166.51-74.189,232.454-115.401,276.973-115.401
			C1919.542,2457.27,1868.433,2730.936,1807.437,2831.501z" class="colorf8877f svgShape"/><path fill="#92ea6e" d="M1637.326 2663.499c0 0-60.465 8.576-91.192 26.317s11.504-34.081 39.567-50.283c28.063-16.202 114.669-59.35 114.669-59.35L1637.326 2663.499zM1624.589 3036.435c-45.339 47.409-86.215 93.812-107.306 134.688-37.997 73.623-47.224 125.553-49.421 148.842-17.067-4.256-33.267-8.488-48.496-12.743 7.886-49.583 28.7-126.281 83.764-181.345C1552.712 3076.293 1592.593 3053.526 1624.589 3036.435zM1519.299 2952.502c0 0 114.863 4.231 100.282 54.459C1530.471 3023.659 1519.299 2983.558 1519.299 2952.502z" class="colorea716e svgShape"/><path fill="#a2f87f" d="M2923.548,2932.332c0,0,39.567-62.987,64.296-13.032c24.729,49.955-143.593,410.348-236.782,464.15
			C2657.874,3437.252,2923.548,2932.332,2923.548,2932.332z" class="colorf8877f svgShape"/><path fill="#0b1532" d="M2540.119,3411.72l-982.085-392.042c-63.25-25.249-73.093-103.598-23.04-174.314l409.477-578.525
				c44.148-62.374,128.23-96.002,188.692-75.68l934.155,313.978c67.888,22.818,91.749,97.083,52.348,166.553l-367.119,647.285
				C2707.464,3398.46,2611.849,3440.354,2540.119,3411.72z" class="color22320b svgShape"/><path fill="#bfe6af" d="M2540.119,3374.434l-982.085-392.042c-63.25-25.249-73.093-103.598-23.04-174.314l409.477-578.525
				c44.148-62.374,128.23-96.002,188.692-75.68l934.155,313.978c67.888,22.818,91.749,97.083,52.348,166.553l-367.119,647.285
				C2707.464,3361.175,2611.849,3403.068,2540.119,3374.434z" class="colorcfe6af svgShape"/><path fill="#fff" d="M2588.641,3333.729c-10.868,0-20.99-1.842-30.087-5.473l-982.086-392.042
				c-11.295-4.509-18.362-12.032-21.605-22.998c-6.066-20.511,1.872-49.791,20.715-76.413l409.477-578.525
				c25.257-35.684,70.498-60.606,110.02-60.606c8.186,0,15.671,1.121,22.246,3.331l934.156,313.978
				c16.568,5.569,28.266,16.203,33.831,30.752c7.035,18.394,3.793,41.772-8.894,64.14l-367.118,647.286
				C2683.726,3302.242,2634.111,3333.729,2588.641,3333.729z" class="colorfff svgShape"/><polygon fill="#17b978" points="2614.022 2542.134 2529.846 2513.402 2568.575 2454.13 2652.618 2482.418" class="color00a3cc svgShape"/><polygon fill="#17b978" points="2764.664 2593.553 2678.832 2564.256 2717.324 2504.197 2803.013 2533.04" class="color00a3cc svgShape"/><polygon fill="#17b978" points="2918.293 2645.992 2830.756 2616.113 2868.992 2555.248 2956.377 2584.661" class="color00a3cc svgShape"/><path fill="#69d53d" d="M2860.998,2713.965c-40.259-0.96-49.808,30.681-84.553,32.073
					c-34.673,1.389-74.917,35.491-113.033,48.312c-38.106,12.817-85.119,11.087-163.232-50.729
					c-40.023-31.674-79.051-29.68-107.388-20.467l-38.683,59.201l391.278,142.087l130.312-209.855
					C2871.174,2714.308,2866.285,2714.091,2860.998,2713.965z" class="color93d53d svgShape"/><path fill="#5adaa7" d="M2500.18,2743.621c78.113,61.816,125.125,63.545,163.232,50.729
					c38.116-12.82,78.36-46.922,113.033-48.312c34.745-1.392,44.294-33.034,84.553-32.073c5.287,0.126,10.176,0.343,14.7,0.622
					l20.776-33.457l-388.814-133.774l-114.869,175.799C2421.129,2713.941,2460.156,2711.948,2500.18,2743.621z" class="color5aabda svgShape"/><polygon fill="#6bc546" points="2709.814 2976.112 1844.724 2658.349 1858.293 2638.788 2722.964 2954.942" class="color86c546 svgShape"/><polygon fill="#5adaa7" points="1831.574 2802.297 1762.861 2776.355 1817.97 2696.915 1886.571 2722.341" class="color5aabda svgShape"/><polygon fill="#5adaa7" points="1753.178 2916.269 1684.312 2889.587 1740.267 2808.926 1809.024 2835.08" class="color5aabda svgShape"/><polygon fill="#5adaa7" points="1938.047 2842.494 1868.328 2816.173 1923.265 2735.941 1992.865 2761.738" class="color5aabda svgShape"/><polygon fill="#5adaa7" points="1859.9 2957.617 1790.017 2930.542 1845.803 2849.069 1915.569 2875.607" class="color5aabda svgShape"/><path fill="#61f624" d="M2132.076 2867.863c-16.132 24.274-50.686 35.906-77.045 25.942-26.266-9.929-34.332-37.514-18.149-61.574 16.131-23.982 50.353-35.515 76.568-25.799C2139.757 2816.182 2148.155 2843.668 2132.076 2867.863zM2274.804 2921.288c-16.052 24.595-50.956 36.333-77.824 26.176-26.772-10.12-35.308-38.117-19.201-62.494 16.054-24.297 50.619-35.934 77.337-26.031C2281.928 2868.877 2290.804 2896.774 2274.804 2921.288zM2058.17 2979.067c-16.375 24.639-51.179 36.345-77.602 26.106-26.329-10.202-34.249-38.301-17.824-62.72 16.371-24.34 50.838-35.945 77.117-25.961C2066.234 2926.511 2074.491 2954.509 2058.17 2979.067zM2201.262 3033.971c-16.296 24.969-51.454 36.781-78.392 26.343-26.84-10.4-35.233-38.923-18.883-63.667 16.296-24.663 51.111-36.373 77.897-26.196C2208.767 2980.665 2217.504 3009.085 2201.262 3033.971z" class="colorf68624 svgShape"/><path fill="#071a52" d="M2363.973,2407.929c-16.946-20.181-40.825-36.41-70.86-46.519
					c-6.478-2.18-13.081-4.009-19.774-5.52l-84.287,159.269L2363.973,2407.929z" class="color170d10 svgShape"/><path fill="#5def21" d="M2027.528,2440.586c-3.838,4.634-7.482,9.418-10.897,14.356
					c-58.767,84.975-29.954,182.488,66.107,217.296c30.263,10.966,63.533,14.354,96.794,11.126l9.521-168.204L2027.528,2440.586z" class="coloref4821 svgShape"/><path fill="#a0f37e" d="M2389.923,2521.652l-200.871-6.493l55.601,153.37c49.095-17.807,93.057-49.66,120.899-91.728
					C2377.578,2558.631,2385.611,2540.018,2389.923,2521.652z" class="colorf37e92 svgShape"/><path fill="#70d845" d="M2389.923,2521.652c9.852-41.964,0.21-82.568-25.95-113.722l-174.921,107.23L2389.923,2521.652z" class="colorbcd845 svgShape"/><path fill="#17b978" d="M2273.339,2355.89c-86.185-19.459-188.721,15.754-245.811,84.696l161.524,74.573
					L2273.339,2355.89z" class="color00a3cc svgShape"/><path fill="#3be29f" d="M2179.531,2683.364c22.034-2.138,44.032-7.185,65.122-14.834l-55.601-153.37L2179.531,2683.364z" class="color3ba5e2 svgShape"/><path fill="#57ff13" d="M2302.851 2953.789c0 0 72.007-30.842 95.949 1.467 24.119 32.546 45.161 40.985 69.16 38.333 24.026-2.656 81.667-7.301 102.347 20.073 20.807 27.543 81.466 38.495 81.466 38.495l-23.865 38.373-332.51-125.265L2302.851 2953.789zM2249.662 3035.7c0 0 64.929-19.441 85.609 18.377 20.847 38.123 53.449 28.734 79.125 23.65 25.696-5.087 75.601 2.991 93.59 35.023 18.111 32.249 89.611 26.518 89.611 26.518l-39.533 63.567-333.409-128.626L2249.662 3035.7z" class="colorffc413 svgShape"/><path fill="#fff" d="M1985.055 2258.277l-11.742 16.59 104.338 861.415 118.848 47.443-138.185-979.578C2029.988 2213.765 2002.664 2233.399 1985.055 2258.277zM2374.871 2287.567l152.93 1028.412 30.752 12.276c9.097 3.632 19.22 5.473 30.087 5.473 45.47 0 95.085-31.487 120.655-76.571l173.797-306.432-133.049-537.06L2374.871 2287.567z" class="colorfff svgShape" opacity=".4"/><path fill="#a2f87f" d="M2908.714,3023.981c0,29.671-38.332,102.623-59.354,181.761
			c-9.921,37.373-39.153,97.617-72.709,157.837c-37.5,67.309-80.41,134.584-107.815,169.817
			c-34.574,44.46-69.737,132.167-89.383,194.099c-18.05-6.152-35.325-12.512-51.78-19.045c-50.832-20.2-93.696-42.09-126.42-64.754
			c-3.677-2.544-7.239-5.099-10.65-7.666c-15.703-11.783-32.123-23.103-49.144-33.972c36.69-71.067,89.291-177.414,97.744-218.614
			c10.141-49.456-6.198-31.66-6.198-132.352c4.244-47.455,7.585-151.166,55.307-209.305
			c71.715-87.371,80.781-131.878,118.708-131.878c37.916,0,44.403,46.519,23.832,93.072c-23.08,52.208-27.104,140.69-11.887,125.484
			c22.317-22.329,57.862-105.954,57.862-105.954s39.948-91.731,36.918-149.763c-3.579-68.536,10.34-96.949,29.375-102.343
			c19.035-5.393,45.142,50.522,51.966,115.411c6.766,64.388-31.559,206.582-32.264,208.618
			c1.353-2.255,87.926-146.182,106.323-184.213c18.547-38.332,63.424-87.267,83.37-75.75
			C2972.45,2845.99,2908.714,2994.31,2908.714,3023.981z" class="colorf8877f svgShape"/><path fill="#92ea6e" d="M2776.651,3363.58c-37.5,67.309-80.41,134.584-107.815,169.817
			c-34.574,44.46-69.737,132.167-89.383,194.099c-18.05-6.152-35.325-12.512-51.78-19.045
			c13.899-36.435,39.801-88.042,87.58-158.889C2679.543,3454.247,2734.457,3402.468,2776.651,3363.58z" class="colorea716e svgShape"/><path fill="#a2f87f" d="M1776.893,2618.782c-78.631,46.49-137.614,35.589-184.554,55.143l-139.353,246.605
			c0,0,65.638-76.634,189.778-98.553c124.14-21.919,241.146-184.929,241.146-209.771
			C1883.911,2587.365,1855.525,2572.291,1776.893,2618.782z" class="colorf8877f svgShape"/><path fill="#92ea6e" d="M2914.612,2995.942c0,0-29.823,124.107-47.537,153.397
			c67.189-101.775,67.189-188.047,67.189-188.047L2914.612,2995.942z" class="colorea716e svgShape"/></g><path fill="#70d845" d="M4557.659,1825.343c0,0,119.418,18.952,292.008,114.348
		c226.74,125.327,281.805,336.982,281.805,336.982s17.701-131.697,17.701-196.019s-151.672-181.347-364.873-254.756
		C4608.429,1778.958,4557.659,1825.343,4557.659,1825.343z" class="colorbcd845 svgShape"/><circle cx="5030.473" cy="2907.238" r="45.751" fill="#6fc74b" class="color93c74b svgShape"/><circle cx="801.308" cy="2877.429" r="54.903" fill="#39bc87" class="color6cbc39 svgShape"/><circle cx="801.308" cy="2245.992" r="37.441" fill="#6bc546" class="color86c546 svgShape"/><path fill="#6fc74b" d="M5218.102,2006.088c0,0,17.973,189.546-19.749,361.311c-28.067,127.8-122.221,241.398-89.8,282.966
		c75.996,97.437,163.743,46.075,199.701-244.793S5288.626,1838.724,5218.102,2006.088z" class="color93c74b svgShape"/><linearGradient id="a" x1="4376.525" x2="4718.18" y1="2343.666" y2="2104.936" gradientUnits="userSpaceOnUse"><stop class="stopColorfff svgShape" offset="0" stop-color="#fff"/><stop class="stopColorfff svgShape" offset="1" stop-color="#fff" stop-opacity="0"/></linearGradient><polygon fill="url(#a)" points="4354.626 2301.995 4742.975 2105.619 4769.992 2125.706 4394.773 2301.995"/><linearGradient id="b" x1="3998.514" x2="4261.591" y1="2003.424" y2="1819.6" gradientUnits="userSpaceOnUse"><stop class="stopColorfff svgShape" offset="0" stop-color="#fff"/><stop class="stopColorfff svgShape" offset="1" stop-color="#fff" stop-opacity="0"/></linearGradient><polygon fill="url(#b)" points="3965.143 1947.711 4295.044 1849.137 4317.996 1859.219 3999.248 1947.711"/><linearGradient id="c" x1="3646.696" x2="3792.659" y1="1874.152" y2="1772.161" gradientUnits="userSpaceOnUse"><stop class="stopColorfff svgShape" offset="0" stop-color="#fff"/><stop class="stopColorfff svgShape" offset="1" stop-color="#fff" stop-opacity="0"/></linearGradient><polygon fill="url(#c)" points="3623.333 1836.303 3815.438 1797.068 3828.802 1801.081 3643.192 1836.303"/><g class="color000 svgShape"><polygon fill="none" points="2600.495 2061.233 2600.495 2061.233 2600.495 2061.233"/><path fill="#fff" d="M2811.061 2189.167c-48.219-15.941-91.622-20.175-124.177-20.176-36.816.003-59.793 5.406-60.438 5.556-5.903 1.401-9.553 7.322-8.152 13.224 1.399 5.898 7.312 9.546 13.21 8.155v0c0 0 .011-.002.013-.003 0 0 0 0 .001 0h0c.325-.078 21.48-4.966 55.365-4.963 30.659-.001 71.705 3.994 117.28 19.065 45.583 15.08 95.714 41.188 144.837 85.681 4.496 4.073 11.443 3.731 15.516-.765s3.731-11.443-.765-15.517C2912.28 2232.785 2859.271 2205.099 2811.061 2189.167zM3043.781 2178.969c-21.971-31.637-47.018-57.15-73.742-77.534-40.093-30.587-83.9-49.618-126.815-60.981-42.927-11.365-84.993-15.101-121.939-15.103-36.459.001-67.946 3.643-90.401 7.293-22.455 3.651-35.878 7.315-36.187 7.398-5.852 1.602-9.296 7.645-7.694 13.496 1.602 5.85 7.641 9.294 13.491 7.695l0 0c0 0 .002-.001.002-.001.001 0 .001 0 .002 0h0l0 0c.212-.058 13.046-3.536 34.48-6.995 21.489-3.47 51.619-6.918 86.306-6.916 47.294-.008 103.004 6.423 156.941 27.643 26.978 10.608 53.525 24.897 78.487 43.939 24.962 19.046 48.351 42.843 69.023 72.6 3.461 4.983 10.306 6.217 15.289 2.756S3047.241 2183.952 3043.781 2178.969zM2600.495 2061.233L2600.495 2061.233 2600.495 2061.233 2600.495 2061.233z" class="colorfff svgShape"/></g></svg></svg>