<svg width="280" height="220" viewBox="0 0 280 220" fill="none" xmlns="http://www.w3.org/2000/svg">
<path d="M251.744 169.243C251.744 169.243 239.298 173.002 233.264 179.036C227.23 185.07 220.009 181.014 217.042 191.104C214.074 201.193 241.573 193.478 250.772 183.29C259.972 173.101 259.163 166.414 251.744 169.243Z" fill="#6FC74B"/>
<path d="M268.95 120.578H16.9108C16.9108 120.578 15.5066 104.664 20.1883 84.4577C21.673 78.0499 23.7696 71.2098 26.7183 64.3093C37.1675 39.847 58.3114 14.6187 100.792 5.14082C205.424 -18.2039 264.796 57.5698 268.95 120.578Z" fill="#D0FFBD"/>
<path d="M49.059 86.1533H30.0665L20.1883 84.4577C21.673 78.0499 23.7696 71.2098 26.7183 64.3093C33.0283 65.9155 39.5874 72.1131 37.6829 79.5262C48.3666 75.7672 49.059 86.1533 49.059 86.1533ZM235.591 60.1656C228.497 60.1656 221.402 60.1656 214.308 60.1656C213.51 58.0198 214.449 55.6474 216.361 54.693C218.05 53.8493 220.19 54.2677 221.529 55.7571C221.577 55.2582 221.908 52.2813 224.265 50.7405C226.927 49.0011 231.17 49.7458 233.918 53.0208C234.056 52.6992 235.134 50.2817 237.339 49.8284C239.802 49.3221 242.907 51.4233 243.724 55.149C241.013 56.8212 238.302 58.4934 235.591 60.1656Z" fill="white"/>
<path d="M59.6427 91.396C51.9272 92.7808 39.6047 92.6716 34.1222 84.6696C31.2964 80.5452 26.2856 78.36 22.0928 77.2105C20.0262 84.2188 18.7312 90.9018 17.9314 96.8311C31.1988 97.7827 61.8168 99.1608 59.6427 91.396Z" fill="#1CE594"/>
<path d="M267.319 107.468L156.699 108.007L16.8524 108.686C16.8968 107.733 16.9544 106.733 17.0258 105.69C17.2304 102.752 17.5544 99.4734 18.0548 95.9418C18.386 93.603 18.794 91.1532 19.2956 88.6182C23.4188 89.256 28.5464 90.2328 34.5722 91.7322C51.8162 96.021 59.297 87.6234 74.8976 83.9238C90.4982 80.2236 104.722 99.831 117.372 100.363C130.022 100.895 154.263 82.9032 163.691 83.2998C164.514 83.3346 165.221 83.3004 165.837 83.2092C168.293 82.8474 169.307 81.5868 170.397 80.196C172.17 77.9334 174.144 75.327 182.862 75.6936C184.275 75.7536 185.581 75.8178 186.795 75.8796C186.795 75.8796 186.795 75.8796 186.796 75.8796C195.921 76.3416 199.871 76.6062 205.411 72.8778C207.175 71.6922 209.099 70.101 211.402 67.9836C221.907 58.3272 237.277 53.034 237.277 53.034C237.277 53.034 239.62 52.4412 242.896 52.0284C246.321 56.5974 249.42 61.3428 252.186 66.2088C254.63 70.5042 256.814 74.8938 258.736 79.3392C259.755 81.6894 260.698 84.057 261.569 86.433C264.124 93.4086 266.046 100.469 267.319 107.468Z" fill="#98E578"/>
<path d="M44.7097 95.3702C44.7097 95.3702 60.9613 95.3702 70.029 88.27C62.0734 91.264 54.4601 93.7876 44.7097 95.3702ZM187.734 87.5766C182.34 83.6328 165.837 83.2092 165.837 83.2092C168.293 82.8474 169.307 81.5868 170.397 80.196L171.257 79.6272C171.257 79.6272 182.822 82.665 187.734 87.5766Z" fill="#56E5AC"/>
<path d="M122.059 105.69H17.0259C17.2306 102.752 17.5546 99.4734 18.0548 95.9419C20.7974 98.2453 25.6809 101.261 32.8617 101.811C44.756 102.722 63.222 101.197 74.1679 101.811C85.1138 102.425 83.2524 101.811 92.5658 101.811C101.88 101.811 122.059 105.69 122.059 105.69ZM258.736 79.3389C253.196 82.0273 238.897 87.4271 220.429 82.8398C196.673 76.9377 186.905 75.8915 186.796 75.8797C190.567 75.2122 196.766 72.9408 205.412 72.8776C209.789 72.8457 214.794 73.38 220.429 74.9757C232.139 78.292 245.309 70.9426 252.186 66.2089C254.63 70.5042 256.814 74.8938 258.736 79.3389ZM267.319 107.468L156.698 108.006L125.719 104.282C125.719 104.282 140.063 99.5206 148.322 99.5206C156.581 99.5206 157.3 96.9355 162.678 96.9355C168.055 96.9355 174.156 96.1439 186.833 96.9355C199.511 97.7265 205.675 99.1168 210.062 96.5838C214.45 94.0507 230.387 91.3332 239.282 89.7819C245.814 88.6426 256.402 87.1476 261.569 86.433C264.124 93.4083 266.045 100.469 267.319 107.468Z" fill="#1CE594"/>
<path d="M61.9657 73.6404C74.1741 73.6404 86.3824 73.6404 98.5908 73.6404C98.8461 70.4322 97.1352 67.4109 94.3401 66.0782C91.2059 64.5838 87.3112 65.4997 85.0479 68.3518C83.8905 65.0071 80.8534 62.755 77.5351 62.7172C73.3864 62.67 70.9918 66.1086 70.8131 66.3748C70.6878 66.097 69.2977 63.1309 66.5625 62.7172C63.6928 62.2832 60.3118 64.8051 59.6428 68.945C58.9153 71.1489 60.1408 72.5222 61.9657 73.6404ZM98.2202 44.5095C104.188 44.5095 110.156 44.5095 116.124 44.5095C117.362 41.8374 116.158 38.6545 113.552 37.4864C111.05 36.3642 108 37.4356 106.727 39.9593C106.328 37.8881 104.549 36.4048 102.573 36.3983C100.862 36.3927 99.2757 37.4943 98.6159 39.168C97.5597 37.4181 95.6335 36.5166 93.9668 36.8929C91.7505 37.3932 90.1131 40.1256 90.9993 42.9268C93.4063 43.4544 95.8132 43.9819 98.2202 44.5095ZM155.493 46.3889C166.572 46.3889 177.65 46.3889 188.729 46.3889C188.965 46.2371 192.759 43.7548 192.29 41.8387C191.882 40.1753 188.28 39.0145 183.288 39.8604C182.568 36.189 180.302 33.0893 177.255 32.145C172.711 30.7369 166.53 34.1518 164.791 40.8496C162.888 39.9976 159.908 39.066 156.482 39.6627C155.176 39.8902 151.842 40.4708 151.536 42.2345C151.301 43.5875 152.895 45.3661 155.493 46.3889Z" fill="white"/>
<path opacity="0.4" d="M54.0106 54.9059C59.47 58.7146 63.2151 64.3056 68.1069 68.7411C78.1329 77.832 90.9751 83.8246 104.528 84.8707C118.755 85.9688 132.72 81.3906 144.209 73.0889C150.047 68.87 155.232 63.765 159.677 58.1035C164.508 51.9504 168.332 45.061 174.786 40.3647C187.742 30.9378 201.825 30.8412 216.22 36.805C221.828 39.1284 227.599 40.5512 233.46 40.799C231.574 38.7946 229.617 36.8407 227.587 34.9435C223.532 34.664 218.878 33.7881 213.916 31.8316C202.765 27.4348 189.573 28.0467 178.906 33.5535C163.016 41.7556 157.565 60.6817 143.183 70.6182C129.167 80.3019 108.306 84.0085 91.7919 79.8361C81.7093 77.2886 73.1285 70.9226 66.0753 63.4771C59.6548 56.6996 53.9332 49.0344 44.3226 46.8393C42.1092 46.3338 39.6785 45.7392 37.2453 45.3341C36.1804 46.8444 35.17 48.369 34.2113 49.9036C41.0655 49.5529 47.6746 50.4857 54.0106 54.9059Z" fill="#EDFFE5"/>
<path opacity="0.4" d="M48.5641 58.5556C65.4643 58.8054 70.235 66.0799 93.2744 69.2386C105.682 70.9398 116.921 72.3413 129.676 67.2603C142.657 62.0891 150.744 52.7786 153.416 49.4553C161.852 38.9601 160.227 33.5021 166.473 26.5066C171.331 21.0653 180.442 15.2661 199.262 14.9874C195.996 13.3114 192.621 11.7627 189.138 10.3528C179.631 11.1858 166.801 15.3907 160.043 30.793C148.47 57.1708 126.239 71.0738 104.699 68.1546C83.1594 65.2354 75.6178 63.2934 63.8962 59.0997C53.3752 55.3354 38.6317 54.964 29.1052 59.1021C28.6565 60.0162 28.2233 60.9309 27.806 61.8453C33.7136 59.8853 40.7276 58.4398 48.5641 58.5556Z" fill="#EDFFE5"/>
<path d="M87.735 56.2209C95.0991 56.2209 101.069 50.2511 101.069 42.8871C101.069 35.523 95.0991 29.5532 87.735 29.5532C80.3709 29.5532 74.4011 35.523 74.4011 42.8871C74.4011 50.2511 80.3709 56.2209 87.735 56.2209Z" fill="#50FF09"/>
<path d="M265.711 100.222C264.842 98.8762 224.629 99.7529 222.242 99.5205C216.614 99.8924 206.287 102.528 200.246 101.297C195.441 99.8134 193.036 99.3093 184.609 99.5543C176.106 99.7292 165.299 100.561 156.803 101.254C141.428 102.975 137.798 101.384 123.74 103.743C113.444 105.258 99.8187 104.424 89.4164 103.886C82.4882 103.377 78.4494 104.342 71.4728 104.391C69.9478 104.404 52.5372 104.35 51.2886 104.44C39.0071 105.768 28.4368 103.055 16.9555 104.217C16.1892 109.195 17.0107 128.015 19.4624 138.162C19.9267 140.39 20.4479 142.595 21.0329 144.798C22.3932 149.716 23.8478 154.628 25.2227 159.519C26.7375 164.71 28.2078 169.933 30.3595 174.866C32.0766 178.793 34.4299 182.596 37.9662 185.123C40.0955 186.651 42.3723 187.645 44.9437 188.372C61.2441 192.641 88.9272 196.945 103.436 208.162C110.916 213.573 125.276 217.59 142.334 218.88C167.063 220.712 196.271 215.392 210.068 192.866C211.85 190.601 213.72 188.416 215.712 186.336C218.945 182.951 222.493 179.865 226.351 177.215C229.741 174.877 233.375 172.907 237.086 171.155C240.799 169.375 244.624 167.812 248.147 165.671C251.767 163.506 254.882 160.527 257.065 156.902C265.617 141.225 273.64 115.92 265.711 100.222ZM72.678 193.14C67.6695 191.467 62.8581 189.801 60.1072 189.198C51.867 187.391 57.4757 184.328 57.4757 184.328C60.1204 182.801 68.1573 183.825 75.7113 186.296C93.1518 192.134 99.0129 203.235 72.678 193.14ZM158.461 213.65C150.085 217.219 125.552 213.577 125.768 205.447C126.864 198.1 181.97 205.454 158.461 213.65Z" fill="#6FC74B"/>
<path d="M111.933 104.56L84.6132 166.208L75.7112 186.296C68.1572 183.825 60.1203 182.801 57.4756 184.328C57.4756 184.328 51.867 187.391 60.1071 189.198C62.858 189.801 67.6695 191.467 72.6779 193.14L71.9307 194.826C61.6063 192.106 51.6519 190.262 44.9436 188.372C43.8044 188.051 42.7464 187.681 41.7605 187.256L60.6156 158.89L96.9154 104.282C99.0169 104.371 101.292 104.449 103.618 104.503C106.382 104.566 109.22 104.593 111.933 104.56Z" fill="#6FC74B"/>
<path d="M127.446 103.147L110.56 179.359L104.075 208.622C103.855 208.469 103.641 208.316 103.436 208.162C95.0235 201.849 83.2547 197.81 71.9307 194.826L72.6779 193.14C82.6747 196.479 93.4548 199.843 90.1788 194.826C87.9462 191.406 81.9955 188.35 75.7111 186.296L84.6132 166.208L111.933 104.56C112.89 104.549 113.831 104.531 114.748 104.503C118.272 104.397 121.435 104.164 123.74 103.744C125.024 103.509 126.259 103.312 127.446 103.147Z" fill="#70D845"/>
<path d="M142.334 102.278V202.78C134.695 202.183 126.375 202.284 125.769 205.447C125.043 209.232 132.946 213.293 142.334 214.611V218.88C125.812 217.732 111.075 213.47 104.075 208.622L110.56 179.359L127.447 103.147C133.356 102.324 138.124 102.28 142.334 102.278Z" fill="#6FC74B"/>
<path d="M66.5161 104.391L21.1725 145.319C19.6667 139.752 18.6444 134.419 17.9634 129.506L51.2886 104.439C52.2431 104.41 53.2089 104.391 54.1847 104.391H66.5161ZM96.9155 104.282L60.6157 158.89C60.6157 158.89 60.6157 158.89 60.615 158.89L41.7599 187.256C34.0227 183.933 30.6856 177.348 27.1285 165.94L33.0139 159.3L82.1884 103.817C84.2656 103.719 86.5523 103.7 89.4163 103.885C91.359 104.012 93.9683 104.157 96.9155 104.282Z" fill="#70D845"/>
<path d="M82.1885 103.817L33.014 159.3L27.1286 165.94C26.5929 164.222 26.0532 162.395 25.4919 160.454C24.3881 156.635 23.2045 152.372 21.8197 147.625C21.5942 146.852 21.3785 146.083 21.1724 145.319L66.5165 104.391H71.4729C75.6668 104.391 78.6168 103.987 82.1885 103.817Z" fill="#6FC74B"/>
<path d="M262.758 144.653C261.406 148.163 259.896 151.549 258.294 154.703C256.888 157.471 255.302 159.647 253.55 161.439L200.246 101.297C204.26 102.002 209.518 101.359 214.016 100.658L262.758 144.653ZM181.9 214.52H181.899C169.552 218.749 155.386 219.787 142.334 218.88V214.611C147.667 215.36 153.48 215.224 158.461 213.65C172.21 209.305 157.921 204.783 155.197 204.359C155.197 204.359 149.027 203.301 142.334 202.78V102.278C142.573 102.277 142.811 102.277 143.046 102.277C144.689 102.277 150.038 101.806 156.803 101.254L174.859 182.745L181.9 214.52Z" fill="#70D845"/>
<path d="M267.233 129.903V129.904C266.146 134.867 264.599 139.875 262.758 144.653L214.016 100.658C217.548 100.107 220.612 99.5205 222.24 99.5205H226.84L267.233 129.903ZM253.55 161.439C248.253 166.859 241.432 168.778 233.417 172.979L184.609 99.5539C190.713 99.4276 195.589 99.6434 197.499 100.496C198.316 100.861 199.242 101.121 200.246 101.297L253.55 161.439Z" fill="#6FC74B"/>
<path d="M233.417 172.979C233.176 173.106 232.933 173.235 232.69 173.366C226.235 176.835 219.025 181.871 211.228 191.418L206.162 179.987L170.805 100.203C175.61 99.8891 180.402 99.64 184.609 99.554L233.417 172.979Z" fill="#70D845"/>
<path d="M211.228 191.418C209.858 193.096 208.47 194.913 207.065 196.885C201.002 205.393 192.069 211.039 181.9 214.52H181.899L174.859 182.746L156.803 101.254C161.095 100.903 165.957 100.52 170.805 100.203L206.162 179.987L211.228 191.418Z" fill="#6FC74B"/>
<path opacity="0.8" d="M60.615 158.89L41.7599 187.256C34.0227 183.933 30.6857 177.348 27.1286 165.94C26.5929 164.222 26.0532 162.396 25.4919 160.454C27.7343 160.05 30.2652 159.647 33.014 159.3C40.98 158.29 50.7674 157.736 60.615 158.89ZM223.623 176.129C218.739 177.931 212.713 179.119 206.162 179.986C196.215 181.303 185.06 181.881 174.859 182.745L174.859 182.746C165.941 183.502 157.753 184.477 151.744 186.359C148.765 187.292 145.627 187.746 142.334 187.782C132.973 187.885 122.359 184.61 110.56 179.359C102.462 175.756 93.8053 171.22 84.6132 166.208C84.3884 166.085 84.1629 165.962 83.9375 165.839C76.7665 161.922 68.6714 159.835 60.6158 158.89L41.7606 187.256C42.7465 187.681 43.8045 188.051 44.9438 188.372C51.652 190.262 61.6065 192.106 71.9308 194.826C83.2548 197.81 95.0236 201.849 103.436 208.162C103.641 208.316 103.855 208.469 104.076 208.622C111.075 213.47 125.812 217.732 142.334 218.88C155.386 219.787 169.552 218.749 181.899 214.52H181.9C192.069 211.039 201.002 205.392 207.065 196.885C207.504 196.269 207.942 195.668 208.377 195.081C208.462 194.966 208.548 194.852 208.633 194.738C208.722 194.619 208.811 194.501 208.9 194.384C208.986 194.27 209.073 194.155 209.16 194.041C209.246 193.928 209.333 193.814 209.42 193.701C209.507 193.588 209.593 193.477 209.679 193.365C209.809 193.198 209.939 193.032 210.068 192.867C210.081 192.851 210.094 192.834 210.107 192.818C210.288 192.587 210.469 192.36 210.649 192.134C210.714 192.054 210.778 191.974 210.842 191.894C210.885 191.841 210.928 191.787 210.971 191.735C211.057 191.628 211.143 191.523 211.228 191.418C211.289 191.344 211.35 191.269 211.41 191.196C211.471 191.121 211.533 191.048 211.593 190.974C211.654 190.901 211.714 190.827 211.775 190.754C211.784 190.745 211.792 190.734 211.8 190.724C211.913 190.588 212.026 190.454 212.139 190.32C212.151 190.306 212.162 190.293 212.174 190.279C212.299 190.13 212.425 189.982 212.55 189.836C212.613 189.762 212.675 189.689 212.738 189.616C212.8 189.544 212.863 189.471 212.926 189.399C212.988 189.327 213.051 189.255 213.113 189.184C213.238 189.04 213.363 188.898 213.488 188.757C213.549 188.686 213.612 188.616 213.674 188.547C213.798 188.406 213.923 188.268 214.047 188.13C214.109 188.061 214.17 187.992 214.233 187.924C214.356 187.788 214.48 187.652 214.604 187.518C214.639 187.479 214.675 187.441 214.709 187.403C214.753 187.355 214.796 187.309 214.839 187.262C215.017 187.07 215.195 186.879 215.373 186.692C215.486 186.572 215.599 186.453 215.712 186.336C215.834 186.208 215.956 186.081 216.079 185.955C216.323 185.702 216.567 185.454 216.811 185.21C216.871 185.149 216.932 185.088 216.993 185.028C217.054 184.967 217.115 184.906 217.175 184.847C217.206 184.817 217.235 184.787 217.266 184.757C217.297 184.727 217.326 184.697 217.357 184.668C217.539 184.489 217.72 184.312 217.901 184.138C217.997 184.046 218.092 183.955 218.187 183.865C218.272 183.783 218.357 183.703 218.443 183.622C218.503 183.565 218.563 183.508 218.623 183.453C218.683 183.396 218.743 183.34 218.803 183.285C218.863 183.229 218.923 183.173 218.982 183.119C219.121 182.989 219.261 182.862 219.399 182.737C219.456 182.684 219.514 182.632 219.571 182.581C219.628 182.529 219.686 182.477 219.743 182.426C219.787 182.386 219.832 182.346 219.876 182.307C219.936 182.253 219.995 182.201 220.054 182.149C220.065 182.139 220.075 182.129 220.086 182.12C220.194 182.024 220.302 181.929 220.41 181.836C220.543 181.719 220.675 181.604 220.808 181.49C220.874 181.433 220.94 181.376 221.007 181.32C221.338 181.037 221.667 180.762 221.995 180.493C222.053 180.445 222.112 180.397 222.17 180.35C222.345 180.207 222.52 180.067 222.694 179.928C222.868 179.789 223.042 179.652 223.215 179.516C223.33 179.426 223.445 179.337 223.56 179.249C223.618 179.203 223.675 179.16 223.733 179.116C223.79 179.072 223.847 179.029 223.905 178.985C224.017 178.9 224.128 178.816 224.239 178.733C224.247 178.726 224.255 178.72 224.264 178.714C224.373 178.632 224.482 178.551 224.591 178.471C224.703 178.388 224.814 178.306 224.925 178.226C224.93 178.222 224.936 178.218 224.942 178.214C225.053 178.133 225.163 178.052 225.273 177.974C225.386 177.892 225.499 177.811 225.612 177.732C225.713 177.66 225.814 177.59 225.914 177.52C226 177.459 226.086 177.4 226.171 177.341C226.177 177.337 226.181 177.333 226.187 177.329C226.242 177.291 226.297 177.253 226.351 177.216C226.357 177.212 226.362 177.208 226.368 177.205C226.478 177.129 226.589 177.053 226.699 176.979C226.809 176.904 226.919 176.83 227.028 176.757C227.138 176.684 227.248 176.611 227.357 176.539C227.466 176.466 227.576 176.395 227.685 176.324C228.229 175.969 228.77 175.629 229.306 175.302C229.52 175.172 229.734 175.043 229.947 174.916C230.355 174.674 230.761 174.438 231.163 174.209C231.286 174.139 231.408 174.071 231.529 174.003C231.635 173.943 231.741 173.884 231.847 173.826C232.129 173.669 232.41 173.516 232.689 173.366C229.724 174.095 226.676 175.002 223.623 176.129ZM72.678 193.14C67.6695 191.467 62.8581 189.801 60.1072 189.198C51.867 187.391 57.4757 184.328 57.4757 184.328C60.1204 182.801 68.1573 183.825 75.7113 186.296C81.9956 188.35 87.9463 191.406 90.1789 194.826C93.4549 199.843 82.6748 196.479 72.678 193.14ZM158.461 213.65C153.48 215.224 147.667 215.36 142.334 214.611C132.946 213.293 125.043 209.232 125.769 205.447C126.375 202.284 134.695 202.183 142.334 202.78C149.027 203.301 155.197 204.359 155.197 204.359C157.921 204.783 172.21 209.305 158.461 213.65Z" fill="#6FC74B"/>
<path d="M17.2096 103.345C17.2096 103.345 16.5186 106.497 16.4299 109.761C19.8856 106.866 23.7871 104.667 27.958 103.202C21.7616 103.262 17.2096 103.345 17.2096 103.345Z" fill="#A7FF83"/>
<path d="M34.4581 103.153C32.1835 103.164 29.9829 103.182 27.958 103.202C23.7871 104.667 19.8856 106.866 16.4299 109.761C16.3927 111.13 16.4613 112.519 16.7313 113.703C16.7313 113.703 18.3777 113.494 21.2417 113.204C22.2273 112.408 23.2082 111.595 24.1819 110.732C27.4546 107.804 30.7759 105.304 34.4581 103.153Z" fill="#28AE78"/>
<path d="M34.4581 103.153C30.7759 105.304 27.4546 107.804 24.182 110.732C23.2083 111.595 22.2274 112.408 21.2418 113.204C23.5673 112.968 26.6964 112.679 30.3984 112.403C32.9021 110.099 35.8615 108.454 38.8903 106.5C40.833 105.256 42.7322 104.1 44.7097 103.153C41.3491 103.132 37.8226 103.135 34.4581 103.153Z" fill="#A7FF83"/>
<path d="M44.7097 103.153C42.7322 104.1 40.833 105.256 38.8904 106.5C35.8615 108.454 32.9021 110.099 30.3984 112.403C34.128 112.125 38.4407 111.861 43.0999 111.681C43.2637 111.411 43.4318 111.141 43.6081 110.87C45.8817 107.139 49.8209 105.612 53.3675 103.285C50.7987 103.213 47.8257 103.172 44.7097 103.153Z" fill="#28AE78"/>
<path d="M53.3676 103.285C49.821 105.613 45.8818 107.139 43.6082 110.87C43.4318 111.141 43.2638 111.411 43.1 111.681C45.4676 111.589 47.9253 111.519 50.4416 111.48C50.6998 111.18 50.9656 110.884 51.2399 110.593C53.8214 107.68 57.1606 106.094 60.1732 103.664C58.6825 103.489 56.286 103.367 53.3676 103.285Z" fill="#A7FF83"/>
<path d="M60.7611 103.744C60.5848 103.716 60.3883 103.69 60.1731 103.664C57.1604 106.093 53.8214 107.68 51.2398 110.593C50.9654 110.884 50.6997 111.18 50.4415 111.48C53.1103 111.438 55.8453 111.431 58.6099 111.469C58.8703 111.17 59.1419 110.878 59.4265 110.593C61.716 108.234 64.63 106.916 66.9889 104.626C67.2213 104.421 67.4507 104.22 67.6794 104.019C64.6591 104.03 62.1835 103.967 60.7611 103.744ZM79.3383 107.471C81.3752 106.335 83.1467 105.022 84.94 103.745C82.1233 103.761 79.1038 103.824 76.1628 103.886C73.1314 106.561 70.1488 108.847 66.6419 110.87C66.1961 111.125 65.7065 111.366 65.2602 111.652C68.0207 111.767 70.7813 111.936 73.5069 112.168C74.5081 111.319 75.57 110.534 76.6325 109.691C77.6038 108.928 78.2977 108.026 79.3383 107.471Z" fill="#28AE78"/>
<path d="M85.0628 103.744C85.0221 103.744 84.9809 103.744 84.94 103.745C83.1467 105.022 81.3752 106.335 79.3384 107.471C78.2977 108.026 77.6039 108.928 76.6326 109.691C75.5701 110.534 74.5082 111.319 73.507 112.168C76.1645 112.394 78.7877 112.682 81.3452 113.038C84.8842 109.877 88.6161 107.131 92.2535 103.961C90.203 103.837 87.7262 103.729 85.0628 103.744Z" fill="#A7FF83"/>
<path d="M96.9152 104.282C95.9622 104.23 94.3256 104.087 92.2535 103.961C88.6161 107.131 84.8842 109.878 81.3452 113.038C84.4031 113.464 87.3666 113.99 90.1778 114.634C90.2426 114.536 90.3066 114.438 90.3696 114.339C91.1338 113.138 91.874 111.899 92.6448 110.679C93.1309 109.91 93.6291 109.149 94.1532 108.41C94.4742 107.957 94.8812 107.576 95.2217 107.139C95.5739 106.687 95.8259 106.173 96.1085 105.677C96.1225 105.653 97.5786 104.318 96.9152 104.282Z" fill="#28AE78"/>
<path d="M67.6794 104.019C67.4507 104.219 67.2213 104.421 66.9889 104.626C64.63 106.916 61.7161 108.234 59.4265 110.593C59.1419 110.877 58.8703 111.17 58.6099 111.468C60.814 111.499 63.037 111.558 65.2601 111.651C65.7065 111.365 66.1961 111.125 66.6419 110.87C70.1488 108.847 73.1313 106.561 76.1628 103.886C73.151 103.949 70.2221 104.01 67.6794 104.019Z" fill="#A7FF83"/>
<path opacity="0.8" d="M192.275 99.0011C192.275 99.0011 219.561 114.224 233.739 123.93C224.402 110.032 204.312 101.602 204.312 101.602L192.275 99.0011Z" fill="#6FC74B"/>
<path d="M234.476 124.668C226.359 116.898 216.715 111.903 206.655 107.185C199.676 103.94 201.522 103.597 194.683 99.8472C194.33 99.9078 190.556 97.7595 184.609 97.8256C176.994 97.9103 171.257 100.174 171.257 100.174C171.257 100.174 177.492 100.911 184.609 105.037C189.535 107.892 194.34 113.279 200.033 117.436C213.953 127.599 212.853 128.456 218.107 133.71C223.361 138.964 245.567 167.138 248.654 165.356C249.441 164.901 255.368 160.646 257.971 156.055C255.359 150.655 252.167 145.568 248.214 140.695C243.635 135.075 239.68 129.664 234.476 124.668Z" fill="#6FC74B"/>
<path d="M50.1107 146.037C50.1107 146.037 54.4966 124.344 62.7108 116.13V116.818C62.7108 116.818 60.2002 119.89 57.4968 125.794C54.9638 131.327 52.3058 139.444 50.1107 147.012C49.5833 147.539 50.1107 146.037 50.1107 146.037Z" fill="#086972"/>
<path d="M61.8045 117.107C61.8045 117.107 61.425 123.921 66.4222 122.249C71.4194 120.576 63.4552 116.13 63.4552 116.13C63.4552 116.13 76.5469 116.62 73.7853 111.872C71.0238 107.124 64.3402 113.257 64.3402 113.257C64.3402 113.257 69.928 103.497 62.7109 105.063C55.4938 106.629 61.7979 113.703 61.7979 113.703C61.7979 113.703 53.6144 107.519 52.7241 112.663C51.8338 117.807 58.9613 116.13 58.9613 116.13C58.9613 116.13 50.8828 120.657 57.046 122.249C63.2093 123.841 61.8045 117.107 61.8045 117.107Z" fill="white"/>
<path d="M61.7881 116.423C62.3553 116.423 62.8151 115.964 62.8151 115.396C62.8151 114.829 62.3553 114.369 61.7881 114.369C61.2209 114.369 60.761 114.829 60.761 115.396C60.761 115.964 61.2209 116.423 61.7881 116.423Z" fill="#50FF09"/>
<path d="M36.8042 133.108C36.8042 133.108 29.6322 121.403 29.8931 114.202L30.1837 114.515C30.1837 114.515 30.3412 116.97 31.6076 120.794C32.7942 124.377 35.0159 129.186 37.216 133.551C37.1992 134.013 36.8042 133.108 36.8042 133.108Z" fill="#086972"/>
<path d="M29.8944 115.029C29.8944 115.029 32.6004 118.284 34.1636 115.414C35.7268 112.543 30.2311 113.888 30.2311 113.888C30.2311 113.888 35.5826 109.676 32.3226 108.686C29.0626 107.696 29.4193 112.209 29.4193 112.209C29.4193 112.209 27.8342 105.416 25.218 109.176C22.6018 112.936 28.4531 113.486 28.4531 113.486C28.4531 113.486 22.1242 114.134 23.8927 116.846C25.6612 119.559 28.19 115.786 28.19 115.786C28.19 115.786 26.4334 121.255 29.9051 119.374C33.3768 117.494 29.8944 115.029 29.8944 115.029Z" fill="white"/>
<path d="M29.1642 114.896C29.5161 114.896 29.8013 114.611 29.8013 114.259C29.8013 113.907 29.5161 113.622 29.1642 113.622C28.8124 113.622 28.5272 113.907 28.5272 114.259C28.5272 114.611 28.8124 114.896 29.1642 114.896Z" fill="#50FF09"/>
<path d="M54.3896 142.834C54.1786 137.822 53.9654 132.791 53.0525 127.858C52.2917 123.747 51.0305 119.689 48.9593 116.04C46.9993 112.588 44.0542 109.781 42.2767 106.221C40.9174 103.498 40.4494 100.468 39.894 97.5078C39.4695 95.2455 38.7971 92.9107 36.7688 91.5658C35.8076 90.9285 34.5384 90.7267 33.4213 90.9708C33.7899 93.6969 34.9451 98.4142 38.3756 105.319C44.2364 117.114 47.7479 128.168 47.1791 139.148C46.8372 145.749 47.8001 151.562 48.6226 155.241C49.3482 155.09 50.0821 154.793 50.8099 154.326C52.5819 153.188 53.6516 151.183 54.108 149.127C54.5644 147.071 54.4781 144.938 54.3896 142.834Z" fill="#6BC546"/>
<path d="M47.1792 139.148C47.748 128.168 44.2365 117.114 38.3757 105.319C34.9452 98.4142 33.79 93.6967 33.4214 90.9707C33.0296 91.0563 32.6572 91.1976 32.3228 91.3934C32.6165 95.0909 33.7798 101.586 37.8564 110.289C44.4591 124.385 38.231 128.961 41.1967 140.212C43.7823 150.021 46.8764 153.688 48.0205 155.334C48.2204 155.314 48.4213 155.283 48.6228 155.241C47.8002 151.562 46.8373 145.749 47.1792 139.148Z" fill="#39BC87"/>
<path d="M37.8563 110.289C33.7798 101.586 32.6164 95.0908 32.3227 91.3934C31.8061 91.6958 31.381 92.1294 31.1218 92.6977C30.4698 94.1276 31.0201 95.7864 31.5206 97.276C33.9187 104.413 35.0686 111.967 34.9025 119.495C34.8035 123.984 34.2548 128.591 35.5813 132.882C36.5249 135.934 38.3375 138.662 39.0754 141.785C39.532 143.717 39.2662 145.652 39.5751 147.587C40.2253 151.661 43.9246 155.746 48.0204 155.334C46.8764 153.688 43.7822 150.021 41.1966 140.212C38.2309 128.961 44.459 124.385 37.8563 110.289Z" fill="#086972"/>
<path d="M35.929 171.977C34.4123 172.025 32.8631 171.08 31.4714 170.594C31.3118 170.538 31.153 170.482 30.9961 170.425C29.0348 169.719 27.2809 168.927 25.6907 167.484C23.2721 165.29 21.5973 162.408 20.1085 159.501C18.6189 156.596 17.2632 153.595 15.3283 150.965C13.3676 148.3 10.8658 146.088 8.64845 143.632C6.43109 141.176 4.43993 138.349 3.84395 135.094C3.65663 134.073 3.67955 132.858 4.48223 132.199C4.56269 132.133 4.64663 132.075 4.73267 132.027C5.75393 131.447 7.14569 132.029 8.21825 132.641C15.4767 136.784 22.4292 141.465 28.9994 146.632C34.3006 150.801 39.6491 155.776 40.9985 162.384C41.7228 165.933 40.5551 171.829 35.929 171.977Z" fill="#6BC546"/>
<path d="M44.8754 159.974C44.7276 160.751 44.4619 161.493 43.934 162.069C43.4649 162.581 42.9855 162.916 42.502 163.109C39.6623 164.239 36.6735 160.471 34.8467 158.747C31.4541 155.548 28.6393 152.902 26.7821 148.469C24.8374 143.829 24.0486 138.8 23.2757 133.829C22.4966 128.821 21.7182 123.813 20.939 118.805C20.8523 118.244 20.7801 117.624 20.9584 117.108C21.016 116.94 21.1 116.783 21.2179 116.643C21.2887 116.558 21.3699 116.486 21.4566 116.423C21.9666 120.309 23.3604 126.259 27.1291 132.027C32.9241 140.896 43.1347 148.687 44.8754 159.974Z" fill="#39BC87"/>
<path d="M42.5019 163.109C39.6622 164.239 36.6734 160.471 34.8466 158.747C31.454 155.548 28.6393 152.902 26.782 148.469C24.8373 143.829 24.0485 138.8 23.2756 133.829C22.4965 128.821 21.7181 123.813 20.9389 118.805C20.8522 118.244 20.7801 117.624 20.9584 117.108C21.7008 121.598 23.6815 132.244 26.5059 137.436C29.9929 143.847 40.9908 158.036 42.5019 163.109Z" fill="#086972"/>
<path d="M45.0301 158.745C44.9974 159.152 44.9524 159.567 44.8753 159.974C43.1346 148.687 32.9241 140.895 27.1289 132.027C23.3602 126.259 21.9664 120.309 21.4564 116.423C21.6111 116.312 21.7874 116.235 21.9747 116.187C22.384 116.083 22.8454 116.124 23.2415 116.282C23.9222 116.552 24.4557 117.09 24.9649 117.616C30.4417 123.268 35.6722 129.259 39.4894 136.142C40.9894 138.847 42.2632 141.706 43.2185 144.655C44.6943 149.211 45.411 153.983 45.0301 158.745Z" fill="#6BC546"/>
<path d="M43.1236 148.076C43.1236 148.076 38.9095 141.152 32.3414 133.139C27.1095 126.755 23.3055 119.055 21.9748 116.187C22.3841 116.083 22.8455 116.124 23.2416 116.282C23.9223 116.552 24.4558 117.09 24.965 117.616C30.4418 123.268 35.6723 129.259 39.4895 136.142C40.9895 138.847 42.2633 141.706 43.2186 144.655C43.3886 146.906 43.1236 148.076 43.1236 148.076Z" fill="#70D945"/>
<path d="M165.456 129.618C165.32 129.705 165.183 129.792 165.046 129.88C164.678 130.114 164.191 130.024 163.935 129.671C162.634 127.873 160.864 126.38 158.704 125.398C156.546 124.418 154.259 124.067 152.051 124.269C151.614 124.309 151.222 124.005 151.156 123.571C151.132 123.41 151.107 123.249 151.083 123.089C151.012 122.618 151.353 122.188 151.827 122.143C154.402 121.902 157.069 122.308 159.588 123.452C162.106 124.596 164.167 126.338 165.679 128.435C165.958 128.822 165.858 129.362 165.456 129.618ZM161.847 131.924C161.71 132.013 161.572 132.1 161.436 132.188C161.073 132.42 160.594 132.332 160.332 131.99C159.467 130.859 158.32 129.92 156.935 129.291C155.551 128.662 154.089 128.416 152.668 128.509C152.238 128.537 151.857 128.234 151.793 127.808C151.769 127.648 151.745 127.487 151.721 127.326C151.649 126.848 152.002 126.413 152.484 126.379C154.26 126.255 156.089 126.559 157.819 127.345C159.551 128.131 160.983 129.309 162.058 130.727C162.35 131.112 162.255 131.664 161.847 131.924ZM158.228 134.242C158.087 134.332 157.949 134.421 157.813 134.508C157.469 134.728 157.017 134.664 156.748 134.357C156.323 133.872 155.791 133.468 155.167 133.184C154.543 132.901 153.889 132.766 153.245 132.766C152.836 132.765 152.49 132.466 152.43 132.063C152.406 131.903 152.382 131.74 152.357 131.576C152.284 131.083 152.66 130.635 153.158 130.628C154.126 130.616 155.112 130.811 156.051 131.238C156.99 131.664 157.786 132.278 158.414 133.016C158.737 133.395 158.647 133.974 158.228 134.242ZM155.547 138.499C154.966 139.778 153.458 140.345 152.179 139.764C150.9 139.183 150.334 137.674 150.915 136.396C151.286 135.58 152.033 135.054 152.858 134.932C153.326 134.86 153.82 134.921 154.283 135.131C154.746 135.341 155.115 135.673 155.37 136.073C155.821 136.774 155.917 137.684 155.547 138.499Z" fill="#50FF09"/>
<g opacity="0.5">
<path d="M201.461 139.262L174.08 166.446L176.231 168.613L202.761 142.273L245.906 140.826L213.691 174.405L190.554 200.856L171.866 168.071L139.979 155.45L138.856 158.288L169.745 170.515L190.026 206.095L215.942 176.468L253.304 137.523L201.461 139.262Z" fill="white"/>
<path d="M204.861 144.045L202.069 145.281L213.215 170.465L216.007 169.229L204.861 144.045Z" fill="white"/>
<path d="M180.73 169.796L180.366 172.827L210.034 176.391L210.398 173.361L180.73 169.796Z" fill="white"/>
</g>
<path d="M171.699 184.971C180.057 184.971 186.833 178.195 186.833 169.837C186.833 161.478 180.057 154.703 171.699 154.703C163.341 154.703 156.565 161.478 156.565 169.837C156.565 178.195 163.341 184.971 171.699 184.971Z" fill="#38D998"/>
<path d="M199.191 156.869C207.55 156.869 214.326 150.093 214.326 141.735C214.326 133.376 207.55 126.6 199.191 126.6C190.833 126.6 184.057 133.376 184.057 141.735C184.057 150.093 190.833 156.869 199.191 156.869Z" fill="#38D998"/>
<path d="M190.29 218.61C198.648 218.61 205.424 211.834 205.424 203.476C205.424 195.117 198.648 188.341 190.29 188.341C181.931 188.341 175.156 195.117 175.156 203.476C175.156 211.834 181.931 218.61 190.29 218.61Z" fill="#38D998"/>
<path d="M216.036 190.024C224.395 190.024 231.171 183.248 231.171 174.889C231.171 166.531 224.395 159.755 216.036 159.755C207.678 159.755 200.902 166.531 200.902 174.889C200.902 183.248 207.678 190.024 216.036 190.024Z" fill="#38D998"/>
<path d="M247.811 154.703C256.169 154.703 262.945 147.927 262.945 139.568C262.945 131.21 256.169 124.434 247.811 124.434C239.452 124.434 232.677 131.21 232.677 139.568C232.677 147.927 239.452 154.703 247.811 154.703Z" fill="#38D998"/>
<path d="M171.699 160.737C171.699 160.737 160.793 177.849 171.699 177.849C182.605 177.849 171.699 160.737 171.699 160.737ZM208.117 143.23C208.117 140.966 206.281 139.13 204.016 139.13C203.846 139.13 203.679 139.141 203.514 139.161C203.534 138.993 203.545 138.823 203.545 138.65C203.545 136.195 201.554 134.205 199.1 134.205C196.645 134.205 194.655 136.195 194.655 138.65C194.655 138.901 194.677 139.148 194.717 139.389C194.387 139.302 194.041 139.255 193.684 139.255C191.454 139.255 189.646 141.063 189.646 143.293C189.646 145.523 191.454 147.331 193.684 147.331H204.672L204.626 147.286C206.601 146.991 208.117 145.288 208.117 143.23ZM214.816 175.437C217.584 178.346 216.677 183.702 216.677 183.702C216.677 183.702 211.282 184.341 208.514 181.432C205.747 178.523 206.654 173.167 206.654 173.167C206.654 173.167 212.049 172.528 214.816 175.437Z" fill="white"/>
<path d="M217.886 175.295C215.341 178.401 216.643 183.675 216.643 183.675C216.643 183.675 222.07 183.913 224.615 180.807C227.159 177.701 225.858 172.427 225.858 172.427C225.858 172.427 220.43 172.189 217.886 175.295Z" fill="white"/>
<path d="M220.095 171.838C219.968 175.851 215.519 178.968 215.519 178.968C215.519 178.968 211.274 175.577 211.401 171.564C211.527 167.551 215.977 164.434 215.977 164.434C215.977 164.434 220.221 167.825 220.095 171.838ZM249.129 141.464V130.474C249.129 129.33 248.202 128.403 247.058 128.403C245.914 128.403 244.987 129.33 244.987 130.474V141.464C244.005 142.129 243.36 143.253 243.36 144.528C243.36 146.571 245.015 148.227 247.058 148.227C249.101 148.227 250.757 146.571 250.757 144.528C250.757 143.253 250.111 141.939 249.129 141.464ZM256.388 135.43H252.078C251.767 135.43 251.515 135.178 251.515 134.867V134.273C251.515 133.962 251.767 133.71 252.078 133.71H256.388C256.699 133.71 256.952 133.962 256.952 134.273V134.867C256.952 135.178 256.699 135.43 256.388 135.43ZM256.388 139.175H252.078C251.767 139.175 251.515 138.922 251.515 138.611V138.018C251.515 137.707 251.767 137.455 252.078 137.455H256.388C256.699 137.455 256.952 137.707 256.952 138.018V138.611C256.952 138.923 256.699 139.175 256.388 139.175Z" fill="white"/>
<path d="M247.917 142.58V138.035H246.2V142.58C245.4 142.916 244.839 143.706 244.839 144.627C244.839 145.852 245.832 146.846 247.058 146.846C248.284 146.846 249.277 145.852 249.277 144.627C249.277 143.706 248.716 142.916 247.917 142.58Z" fill="#5DEF21"/>
<path d="M247.916 131.961C247.916 131.487 247.532 131.103 247.058 131.103C246.584 131.103 246.199 131.487 246.199 131.961V138.035H247.916V131.961Z" fill="#A6E98A"/>
<path d="M223.319 86.0186H221.811L221.278 128.12C221.982 127.792 222.806 127.72 223.852 128.12L223.319 86.0186Z" fill="white"/>
<path d="M221.854 87.3142C221.854 87.3142 219.998 88.6441 219.317 90.9638C218.637 93.2835 215.211 108.631 215.235 108.809C215.331 109.545 215.891 109.648 215.931 109.211C215.931 109.211 222.339 92.857 222.339 90.9704C222.339 89.0838 222.565 87.8091 222.565 87.8091L221.854 87.3142ZM223.885 86.7012C223.885 86.7012 225.965 87.6433 228.314 87.0728C230.663 86.5023 245.667 81.7953 245.81 81.6856C246.399 81.2342 246.209 80.6981 245.81 80.8815C245.81 80.8815 228.443 83.5093 226.809 84.4527C225.175 85.396 223.958 85.8378 223.958 85.8378L223.885 86.7012ZM222.339 85.2481C222.339 85.2481 222.115 82.9761 220.446 81.227C218.777 79.4779 207.199 68.8377 207.033 68.7686C206.347 68.4842 205.978 68.9173 206.336 69.1707C206.336 69.1707 217.296 82.8972 218.93 83.8405C220.563 84.7839 221.555 85.6167 221.555 85.6167L222.339 85.2481Z" fill="white"/>
<path d="M222.693 88.1261C223.634 88.1261 224.397 87.3628 224.397 86.4212C224.397 85.4796 223.634 84.7163 222.693 84.7163C221.751 84.7163 220.988 85.4796 220.988 86.4212C220.988 87.3628 221.751 88.1261 222.693 88.1261Z" fill="#CADCC2"/>
<path d="M179.25 69.0345H178.158L177.772 99.5206H179.636L179.25 69.0345Z" fill="white"/>
<path d="M178.189 69.9727C178.189 69.9727 176.845 70.9357 176.353 72.6154C175.86 74.2951 173.38 85.4082 173.397 85.5377C173.466 86.0705 173.872 86.145 173.901 85.8288C173.901 85.8288 178.541 73.9863 178.541 72.6202C178.541 71.254 178.704 70.3311 178.704 70.3311L178.189 69.9727ZM179.66 69.5287C179.66 69.5287 181.166 70.2109 182.867 69.7978C184.568 69.3846 195.433 65.9762 195.537 65.8968C195.963 65.5699 195.825 65.1817 195.537 65.3145C195.537 65.3145 182.961 67.2174 181.777 67.9005C180.594 68.5836 179.713 68.9035 179.713 68.9035L179.66 69.5287ZM178.54 68.4766C178.54 68.4766 178.378 66.8314 177.17 65.5648C175.962 64.2983 167.578 56.5936 167.457 56.5435C166.961 56.3376 166.694 56.6512 166.953 56.8347C166.953 56.8347 174.889 66.7744 176.072 67.4574C177.255 68.1405 177.973 68.7436 177.973 68.7436L178.54 68.4766Z" fill="white"/>
<path d="M178.797 70.5606C179.478 70.5606 180.031 70.0078 180.031 69.326C180.031 68.6442 179.478 68.0914 178.797 68.0914C178.115 68.0914 177.562 68.6442 177.562 69.326C177.562 70.0078 178.115 70.5606 178.797 70.5606Z" fill="#CADCC2"/>
<path d="M199.48 68.29H198.099L197.61 106.864H199.969L199.48 68.29Z" fill="white"/>
<path d="M198.138 69.4771C198.138 69.4771 196.438 70.6956 195.814 72.8209C195.191 74.9461 192.052 89.0074 192.074 89.1712C192.162 89.8454 192.675 89.9397 192.712 89.5396C192.712 89.5396 198.583 74.5555 198.583 72.8269C198.583 71.0984 198.79 69.9305 198.79 69.9305L198.138 69.4771ZM199.999 68.9154C199.999 68.9154 201.905 69.7786 204.057 69.2559C206.209 68.7331 219.956 64.4205 220.087 64.32C220.627 63.9064 220.452 63.4153 220.087 63.5833C220.087 63.5833 204.175 65.991 202.678 66.8553C201.181 67.7196 200.066 68.1244 200.066 68.1244L199.999 68.9154ZM198.582 67.5841C198.582 67.5841 198.377 65.5024 196.848 63.9C195.319 62.2974 184.711 52.5487 184.559 52.4854C183.931 52.2249 183.593 52.6218 183.921 52.8538C183.921 52.8538 193.962 65.4303 195.459 66.2946C196.956 67.1588 197.864 67.9219 197.864 67.9219L198.582 67.5841Z" fill="white"/>
<path d="M198.906 70.221C199.769 70.221 200.468 69.5216 200.468 68.6589C200.468 67.7962 199.769 67.0969 198.906 67.0969C198.044 67.0969 197.344 67.7962 197.344 68.6589C197.344 69.5216 198.044 70.221 198.906 70.221Z" fill="#CADCC2"/>
<path d="M220.626 45.6165C223.059 45.6165 225.031 43.644 225.031 41.2108C225.031 38.7776 223.059 36.8052 220.626 36.8052C218.192 36.8052 216.22 38.7776 216.22 41.2108C216.22 43.644 218.192 45.6165 220.626 45.6165Z" fill="white"/>
<path d="M67.0072 49.9157C71.7522 49.9157 76.4971 49.9157 81.2421 49.9157C81.9797 48.2816 81.6567 46.4149 80.5006 45.319C79.0363 43.931 76.4295 43.9637 74.7672 45.665C73.756 44.3327 71.9943 44.2081 71.1096 45.0225C70.4778 45.604 70.2957 46.6623 70.6648 47.6421C70.601 47.5703 69.7302 46.6175 68.6877 46.8018C67.6119 46.9921 66.7026 48.3319 67.0072 49.9157Z" fill="white"/>
<path d="M197.461 205.224C197.461 201.537 194.939 198.439 191.526 197.56V212.888C194.939 212.01 197.461 208.912 197.461 205.224ZM183.294 205.224C183.294 201.537 185.816 198.439 189.229 197.56V212.888C185.816 212.01 183.294 208.912 183.294 205.224Z" fill="white"/>
<path d="M196.465 199.309C196.613 199.097 196.695 198.886 196.742 198.726C196.788 198.566 196.8 198.455 196.802 198.437C196.823 198.228 196.671 198.041 196.461 198.019C196.252 197.998 196.066 198.15 196.043 198.358H196.043C196.043 198.358 196.036 198.418 196.012 198.503C195.993 198.568 195.965 198.647 195.925 198.728C195.864 198.85 195.776 198.973 195.653 199.07C195.592 199.119 195.52 199.163 195.434 199.198C195.349 199.233 195.248 199.261 195.125 199.274C194.916 199.298 194.765 199.487 194.789 199.696C194.812 199.906 195.001 200.056 195.211 200.033C195.557 199.995 195.846 199.874 196.069 199.713C196.236 199.592 196.366 199.45 196.465 199.309ZM196.043 198.361C196.043 198.361 196.043 198.361 196.043 198.361V198.361ZM200.217 204.89C200.034 204.789 199.803 204.855 199.7 205.038L199.7 205.038C199.7 205.04 199.58 205.243 199.353 205.432C199.239 205.527 199.099 205.619 198.932 205.687C198.765 205.755 198.572 205.8 198.341 205.8C198.127 205.8 197.88 205.761 197.591 205.657C197.393 205.585 197.174 205.688 197.102 205.886C197.031 206.084 197.134 206.303 197.332 206.375C197.695 206.506 198.033 206.563 198.341 206.563C198.684 206.563 198.989 206.492 199.245 206.384C199.629 206.221 199.905 205.982 200.086 205.785C200.267 205.587 200.356 205.428 200.367 205.409C200.469 205.224 200.402 204.992 200.217 204.89ZM199.699 205.04C199.699 205.04 199.699 205.04 199.699 205.04V205.04ZM199.082 211.575H199.082C199.073 211.577 198.773 211.628 198.365 211.628C198.148 211.628 197.9 211.613 197.653 211.571C197.467 211.539 197.281 211.492 197.106 211.425C196.844 211.325 196.612 211.183 196.43 210.987C196.338 210.888 196.258 210.776 196.192 210.643C196.126 210.51 196.073 210.356 196.038 210.175C195.999 209.968 195.799 209.832 195.592 209.872C195.385 209.911 195.249 210.111 195.289 210.318C195.371 210.753 195.545 211.117 195.78 211.403C195.956 211.617 196.163 211.787 196.382 211.919C196.712 212.118 197.068 212.234 197.41 212.302C197.753 212.37 198.083 212.391 198.365 212.391C198.854 212.391 199.201 212.329 199.217 212.326C199.424 212.289 199.562 212.091 199.525 211.883C199.488 211.676 199.29 211.538 199.082 211.575ZM185.454 199.275C185.23 199.248 185.078 199.18 184.958 199.094C184.868 199.03 184.797 198.953 184.74 198.871C184.654 198.749 184.6 198.614 184.571 198.512C184.556 198.461 184.547 198.419 184.542 198.392C184.539 198.378 184.538 198.368 184.537 198.363L184.536 198.358H184.536C184.514 198.15 184.327 197.998 184.119 198.019C183.909 198.041 183.756 198.228 183.777 198.437C183.779 198.453 183.789 198.543 183.824 198.675C183.85 198.774 183.89 198.897 183.954 199.031C184.049 199.232 184.197 199.459 184.43 199.651C184.546 199.746 184.683 199.832 184.84 199.898C184.997 199.964 185.174 200.011 185.369 200.033C185.578 200.057 185.767 199.906 185.791 199.697C185.814 199.487 185.664 199.298 185.454 199.275ZM182.239 206.563C182.547 206.563 182.885 206.506 183.248 206.375C183.446 206.303 183.549 206.084 183.477 205.886C183.406 205.688 183.187 205.585 182.989 205.657C182.7 205.761 182.452 205.8 182.239 205.8C182 205.8 181.802 205.752 181.631 205.68C181.376 205.573 181.184 205.408 181.056 205.269C180.993 205.2 180.946 205.138 180.917 205.095C180.902 205.074 180.892 205.058 180.886 205.048L180.88 205.038L180.879 205.038H180.879C180.777 204.855 180.546 204.789 180.362 204.89C180.178 204.992 180.111 205.224 180.212 205.409C180.227 205.434 180.38 205.709 180.707 205.992C180.871 206.133 181.079 206.276 181.335 206.384C181.591 206.492 181.895 206.563 182.239 206.563Z" fill="white"/>
<path d="M184.987 209.872C184.78 209.832 184.581 209.968 184.541 210.175C184.479 210.497 184.362 210.732 184.209 210.919C184.094 211.059 183.958 211.172 183.803 211.266C183.572 211.406 183.299 211.498 183.02 211.554C182.741 211.609 182.459 211.628 182.214 211.628C182.003 211.628 181.82 211.614 181.692 211.601C181.627 211.594 181.577 211.587 181.544 211.582C181.527 211.58 181.515 211.578 181.507 211.577L181.499 211.575L181.498 211.575L181.497 211.575C181.29 211.538 181.092 211.676 181.055 211.883C181.018 212.091 181.156 212.289 181.363 212.326C181.378 212.329 181.726 212.391 182.214 212.391C182.465 212.391 182.754 212.375 183.056 212.323C183.282 212.285 183.515 212.226 183.746 212.138C184.09 212.007 184.43 211.807 184.709 211.507C184.848 211.357 184.971 211.182 185.07 210.984C185.17 210.785 185.245 210.563 185.291 210.318C185.33 210.111 185.194 209.911 184.987 209.872ZM188.253 197.684C188.253 197.684 186.256 195.745 188.253 194.063C190.389 196.199 190.389 196.199 190.389 196.199V197.412L188.253 197.684Z" fill="white"/>
<path d="M192.525 197.684C192.525 197.684 194.521 195.745 192.525 194.063C190.389 196.199 190.389 196.199 190.389 196.199V197.412L192.525 197.684Z" fill="white"/>
<path d="M36.4459 169.289C36.2197 171.091 33.978 171.072 30.9961 170.425C29.0348 169.719 27.2809 168.927 25.6907 167.484C23.2721 165.29 21.5973 162.408 20.1085 159.501C18.6189 156.596 17.2632 153.595 15.3283 150.965C13.3676 148.299 10.8658 146.088 8.64845 143.632C6.43109 141.176 4.43993 138.348 3.84395 135.094C3.65663 134.073 3.67955 132.858 4.48223 132.199C4.56269 132.133 4.64663 132.075 4.73267 132.027C4.77011 132.079 4.80827 132.132 4.84853 132.187C6.88967 135.024 11.5339 141.116 16.7131 145.5C23.6794 151.396 32.1436 158.828 35.5564 165.94C36.2772 167.441 36.5416 168.528 36.4459 169.289Z" fill="#39BC87"/>
<path d="M36.4459 169.289C36.2197 171.091 33.9781 171.072 30.9961 170.425C29.0348 169.719 27.2809 168.927 25.6907 167.484C23.2721 165.29 21.5973 162.408 20.1085 159.501C18.6189 156.596 17.2632 153.595 15.3283 150.965C13.3676 148.299 10.8658 146.088 8.64845 143.632C6.43109 141.176 4.43993 138.348 3.84395 135.094C3.65663 134.073 3.67955 132.858 4.48223 132.199C4.56269 132.133 4.64663 132.075 4.73267 132.027C4.77011 132.079 4.80827 132.132 4.84853 132.187C5.07815 135.217 6.16883 138.873 9.39287 142.097C16.4869 149.191 26.3075 158.362 28.9786 164.1C30.3253 166.994 33.5653 168.503 36.4459 169.289Z" fill="#086972"/>
<path d="M40.6977 170.274C40.1319 168.763 38.6297 167.451 37.2856 166.647C34.1033 164.744 30.1408 164.673 26.4787 165.254C22.8166 165.836 19.2576 167.009 15.5717 167.412C13.2267 167.669 10.8241 167.616 8.56239 168.286C5.14977 169.298 2.29011 172.016 1.10751 175.373C0.818847 176.193 0.645869 177.169 1.14837 177.878C1.17489 177.915 1.20327 177.95 1.23243 177.985C1.97019 176.91 2.70327 175.865 3.79119 175.038C9.54963 170.597 16.6263 170.112 23.4948 171.152C29.0813 171.984 34.3114 174.038 39.9265 173.65C40.6066 172.626 41.1573 171.5 40.6977 170.274Z" fill="#6BC546"/>
<path d="M16.9601 174.486C9.5034 173.212 4.08738 176.702 1.89954 178.469C2.33448 178.662 2.84646 178.729 3.32778 178.727C5.32272 178.721 7.21062 177.877 9.17136 177.509C12.9367 176.802 16.7743 177.867 20.5307 178.62C24.4128 179.398 28.4686 179.842 32.3045 178.861C35.0227 178.165 37.6239 176.655 39.3674 174.43C34.1401 175.736 25.3381 175.917 16.9601 174.486Z" fill="#086972"/>
<path d="M39.9265 173.65C34.3114 174.038 29.0813 171.984 23.4948 171.152C16.6263 170.112 9.54963 170.597 3.79119 175.038C2.70327 175.864 1.97018 176.91 1.23242 177.985C1.41314 178.198 1.643 178.355 1.89956 178.469C4.0874 176.702 9.50342 173.212 16.9602 174.486C25.3381 175.917 34.1401 175.736 39.3674 174.43C39.4956 174.266 39.6197 174.099 39.7383 173.928C39.8017 173.836 39.8646 173.744 39.9265 173.65Z" fill="#39BC87"/>
<path d="M68.4462 159.89C66.2497 163.511 61.5597 167.917 57.4753 172.186C54.755 175.031 52.3024 177.815 51.037 180.267C48.7572 184.685 48.2035 187.801 48.0717 189.198C47.0477 188.943 46.0757 188.689 45.162 188.433C45.0884 188.413 45.0156 188.392 44.9434 188.372C43.8042 188.051 42.7462 187.681 41.7603 187.256C38.5078 185.859 36.0331 183.886 33.9927 181.221C33.9475 180.913 33.9247 180.596 33.9247 180.267C33.9247 180.267 36.5951 176.706 39.6616 168.892C42.7282 161.077 45.8933 148.812 55.8838 144.36C65.8744 139.909 69.8311 137.436 72.5022 137.436C75.1725 137.436 72.106 153.856 68.4462 159.89Z" fill="#A2F87F"/>
<path d="M58.2396 149.81C58.2396 149.81 54.6117 150.324 52.7681 151.389C50.9245 152.453 53.4583 149.344 55.1421 148.372C56.8259 147.4 62.0222 144.811 62.0222 144.811L58.2396 149.81ZM57.4754 172.186C54.755 175.031 52.3025 177.815 51.037 180.267C48.7572 184.685 48.2036 187.801 48.0718 189.198C47.0477 188.943 46.0757 188.689 45.162 188.433C45.6351 185.458 46.884 180.856 50.1878 177.553C53.1627 174.578 55.5556 173.212 57.4754 172.186ZM51.158 167.15C51.158 167.15 58.0498 167.404 57.1749 170.418C51.8283 171.42 51.158 169.013 51.158 167.15Z" fill="#92EA6E"/>
<path d="M135.413 165.94C135.413 165.94 137.787 162.161 139.271 165.158C140.754 168.155 130.655 189.779 125.064 193.007C119.472 196.235 135.413 165.94 135.413 165.94Z" fill="#A2F87F"/>
<path d="M112.407 194.703L53.482 171.181C49.687 169.666 49.0965 164.965 52.0996 160.722L76.6683 126.01C79.3171 122.268 84.3621 120.25 87.9898 121.47L144.039 140.308C148.112 141.677 149.544 146.133 147.18 150.301L125.153 189.138C122.448 193.908 116.711 196.421 112.407 194.703Z" fill="#0B1532"/>
<path d="M112.407 192.466L53.482 168.944C49.687 167.429 49.0965 162.728 52.0996 158.485L76.6683 123.773C79.3171 120.031 84.3621 118.013 87.9898 119.232L144.039 138.071C148.112 139.44 149.544 143.896 147.18 148.064L125.153 186.901C122.448 191.67 116.711 194.184 112.407 192.466Z" fill="#BFE6AF"/>
<path d="M115.318 190.024C114.666 190.024 114.059 189.913 113.513 189.695L54.5881 166.173C53.9104 165.902 53.4864 165.451 53.2918 164.793C52.9278 163.562 53.4041 161.805 54.5347 160.208L79.1033 125.497C80.6187 123.356 83.3332 121.86 85.7045 121.86C86.1956 121.86 86.6448 121.928 87.0393 122.06L143.089 140.899C144.083 141.233 144.785 141.871 145.118 142.744C145.541 143.848 145.346 145.25 144.585 146.592L122.558 185.43C121.024 188.135 118.047 190.024 115.318 190.024Z" fill="white"/>
<path d="M116.841 142.528L111.791 140.804L114.115 137.248L119.157 138.945L116.841 142.528Z" fill="#17B978"/>
<path d="M125.88 145.613L120.73 143.855L123.039 140.252L128.181 141.982L125.88 145.613Z" fill="#17B978"/>
<path d="M135.098 148.76L129.845 146.967L132.139 143.315L137.383 145.08L135.098 148.76Z" fill="#17B978"/>
<path d="M131.66 152.838C129.244 152.78 128.671 154.679 126.587 154.762C124.506 154.846 122.092 156.892 119.805 157.661C117.518 158.43 114.698 158.326 110.011 154.617C107.609 152.717 105.268 152.836 103.568 153.389L101.247 156.941L124.723 165.467L132.542 152.875C132.27 152.858 131.977 152.845 131.66 152.838Z" fill="#69D53D"/>
<path d="M110.011 154.617C114.698 158.326 117.518 158.43 119.805 157.661C122.092 156.892 124.506 154.846 126.587 154.762C128.671 154.679 129.244 152.78 131.66 152.838C131.977 152.845 132.27 152.858 132.542 152.875L133.788 150.868L110.46 142.841L103.568 153.389C105.268 152.836 107.609 152.717 110.011 154.617Z" fill="#5ADAA7"/>
<path d="M122.589 168.567L70.6835 149.501L71.4976 148.327L123.378 167.297L122.589 168.567Z" fill="#6BC546"/>
<path d="M69.8944 158.138L65.7717 156.581L69.0782 151.815L73.1943 153.34L69.8944 158.138Z" fill="#5ADAA7"/>
<path d="M65.1907 164.976L61.0587 163.375L64.416 158.536L68.5414 160.105L65.1907 164.976Z" fill="#5ADAA7"/>
<path d="M76.2829 160.55L72.0997 158.97L75.396 154.156L79.572 155.704L76.2829 160.55Z" fill="#5ADAA7"/>
<path d="M71.594 167.457L67.401 165.833L70.7482 160.944L74.9341 162.536L71.594 167.457Z" fill="#5ADAA7"/>
<path d="M87.9245 162.072C86.9566 163.528 84.8834 164.226 83.3018 163.628C81.7259 163.033 81.2419 161.377 82.2129 159.934C83.1807 158.495 85.2341 157.803 86.807 158.386C88.3854 158.971 88.8893 160.62 87.9245 162.072ZM96.4882 165.277C95.5251 166.753 93.4308 167.457 91.8188 166.848C90.2124 166.241 89.7003 164.561 90.6667 163.098C91.6299 161.64 93.7038 160.942 95.3069 161.536C96.9156 162.133 97.4482 163.806 96.4882 165.277ZM83.4902 168.744C82.5077 170.222 80.4194 170.925 78.834 170.31C77.2543 169.698 76.7791 168.012 77.7646 166.547C78.7469 165.087 80.8149 164.39 82.3916 164.99C83.974 165.591 84.4694 167.271 83.4902 168.744ZM92.0757 172.038C91.0979 173.536 88.9885 174.245 87.3722 173.619C85.7618 172.995 85.2582 171.283 86.2392 169.799C87.2169 168.319 89.3058 167.616 90.913 168.227C92.526 168.84 93.0502 170.545 92.0757 172.038Z" fill="#61F624"/>
<path d="M101.838 134.476C100.822 133.265 99.3889 132.291 97.5868 131.685C97.1981 131.554 96.8019 131.444 96.4004 131.353L91.3431 140.91L101.838 134.476Z" fill="#071A52"/>
<path d="M81.6516 136.435C81.4213 136.713 81.2027 137 80.9978 137.297C77.4718 142.395 79.2006 148.246 84.9642 150.334C86.78 150.992 88.7762 151.196 90.7719 151.002L91.3431 140.91L81.6516 136.435Z" fill="#5DEF21"/>
<path d="M103.395 141.299L91.3431 140.91L94.6792 150.112C97.6249 149.043 100.263 147.132 101.933 144.608C102.655 143.518 103.137 142.401 103.395 141.299Z" fill="#A0F37E"/>
<path d="M103.395 141.299C103.987 138.781 103.408 136.345 101.838 134.476L91.3431 140.91L103.395 141.299Z" fill="#70D845"/>
<path d="M96.4004 131.353C91.2293 130.186 85.0771 132.299 81.6517 136.435L91.3432 140.91L96.4004 131.353Z" fill="#17B978"/>
<path d="M90.7719 151.002C92.0939 150.874 93.4138 150.571 94.6792 150.112L91.3431 140.91L90.7719 151.002Z" fill="#3BE29F"/>
<path d="M98.171 167.227C98.171 167.227 102.491 165.377 103.928 167.315C105.375 169.268 106.638 169.774 108.078 169.615C109.519 169.456 112.978 169.177 114.218 170.82C115.467 172.472 119.106 173.129 119.106 173.129L117.674 175.432L97.7238 167.916L98.171 167.227ZM94.9797 172.142C94.9797 172.142 98.8754 170.976 100.116 173.245C101.367 175.532 103.323 174.969 104.864 174.664C106.405 174.358 109.4 174.843 110.479 176.765C111.566 178.7 115.856 178.356 115.856 178.356L113.484 182.17L93.4792 174.453L94.9797 172.142Z" fill="#57FF13"/>
<path opacity="0.4" d="M79.1033 125.497L78.3988 126.492L84.6591 178.177L91.79 181.023L83.4989 122.249C81.7993 122.826 80.1599 124.004 79.1033 125.497ZM102.492 127.254L111.668 188.959L113.513 189.695C114.059 189.913 114.666 190.024 115.318 190.024C118.047 190.024 121.024 188.134 122.558 185.429L132.986 167.043L125.003 134.82L102.492 127.254Z" fill="white"/>
<path d="M134.523 171.439C134.523 173.219 132.223 177.596 130.962 182.345C130.366 184.587 128.612 188.202 126.599 191.815C124.349 195.853 121.774 199.89 120.13 202.004C118.056 204.671 115.946 209.934 114.767 213.65C113.684 213.281 112.648 212.899 111.66 212.507C108.61 211.295 106.039 209.982 104.075 208.622C103.855 208.469 103.641 208.316 103.436 208.162C102.494 207.455 101.509 206.776 100.488 206.123C102.689 201.859 105.845 195.479 106.352 193.007C106.961 190.039 105.98 191.107 105.98 185.066C106.235 182.218 106.435 175.996 109.299 172.507C113.602 167.265 114.146 164.595 116.421 164.595C118.696 164.595 119.085 167.386 117.851 170.179C116.466 173.311 116.225 178.62 117.138 177.708C118.477 176.368 120.61 171.351 120.61 171.351C120.61 171.351 123.007 165.847 122.825 162.365C122.61 158.253 123.445 156.548 124.587 156.224C125.729 155.901 127.296 159.256 127.705 163.149C128.111 167.012 125.812 175.544 125.769 175.666C125.851 175.531 131.045 166.895 132.149 164.613C133.262 162.313 135.954 159.377 137.151 160.068C138.347 160.759 134.523 169.659 134.523 171.439Z" fill="#A2F87F"/>
<path d="M126.599 191.815C124.349 195.853 121.774 199.89 120.13 202.004C118.056 204.671 115.946 209.934 114.767 213.65C113.684 213.281 112.648 212.899 111.66 212.507C112.494 210.321 114.048 207.225 116.915 202.974C120.773 197.255 124.067 194.148 126.599 191.815Z" fill="#92EA6E"/>
<path d="M66.6136 147.127C61.8957 149.916 58.3567 149.262 55.5403 150.435L47.1791 165.232C47.1791 165.232 51.1174 160.634 58.5658 159.319C66.0142 158.003 73.0346 148.223 73.0346 146.732C73.0346 145.242 71.3315 144.337 66.6136 147.127Z" fill="#A2F87F"/>
<path d="M134.877 169.757C134.877 169.757 133.087 177.203 132.025 178.96C136.056 172.854 136.056 167.678 136.056 167.678L134.877 169.757Z" fill="#92EA6E"/>
<path d="M233.459 99.5206C233.459 99.5206 240.625 100.658 250.98 106.381C264.584 113.901 267.888 126.6 267.888 126.6C267.888 126.6 268.95 118.699 268.95 114.839C268.95 110.98 259.85 103.958 247.058 99.5539C236.506 96.7375 233.459 99.5206 233.459 99.5206Z" fill="#70D845"/>
<path d="M261.828 167.179C263.344 167.179 264.573 165.95 264.573 164.434C264.573 162.918 263.344 161.689 261.828 161.689C260.312 161.689 259.083 162.918 259.083 164.434C259.083 165.95 260.312 167.179 261.828 167.179Z" fill="#6FC74B"/>
<path d="M8.07848 165.94C9.8978 165.94 11.3727 164.465 11.3727 162.646C11.3727 160.826 9.8978 159.352 8.07848 159.352C6.25915 159.352 4.7843 160.826 4.7843 162.646C4.7843 164.465 6.25915 165.94 8.07848 165.94Z" fill="#39BC87"/>
<path d="M8.07849 127.006C9.31918 127.006 10.325 126 10.325 124.76C10.325 123.519 9.31918 122.513 8.07849 122.513C6.8378 122.513 5.83203 123.519 5.83203 124.76C5.83203 126 6.8378 127.006 8.07849 127.006Z" fill="#6BC546"/>
<path d="M273.086 110.365C273.086 110.365 274.165 121.738 271.901 132.044C270.217 139.712 264.568 146.528 266.513 149.022C271.073 154.868 276.338 151.786 278.495 134.334C280.653 116.882 277.318 100.323 273.086 110.365Z" fill="#6FC74B"/>
<path d="M221.278 128.12L244.579 116.337L246.2 117.542L223.686 128.12H221.278Z" fill="url(#paint0_linear_132_137)"/>
<path d="M197.909 106.863L217.703 100.948L219.08 101.553L199.955 106.863H197.909Z" fill="url(#paint1_linear_132_137)"/>
<path d="M177.4 100.178L188.926 97.8241L189.728 98.0649L178.592 100.178H177.4Z" fill="url(#paint2_linear_132_137)"/>
<path d="M128.664 121.35C125.771 120.394 123.166 120.14 121.213 120.139C119.004 120.14 117.626 120.464 117.587 120.473C117.233 120.557 117.014 120.912 117.098 121.266C117.182 121.62 117.536 121.839 117.89 121.756C117.89 121.756 117.891 121.755 117.891 121.755C117.891 121.755 117.891 121.755 117.891 121.755C117.911 121.751 119.18 121.457 121.213 121.458C123.053 121.458 125.515 121.697 128.25 122.601C130.985 123.506 133.993 125.073 136.94 127.742C137.21 127.987 137.627 127.966 137.871 127.696C138.115 127.427 138.095 127.01 137.825 126.765C134.737 123.967 131.556 122.306 128.664 121.35ZM142.627 120.738C141.309 118.84 139.806 117.309 138.202 116.086C135.797 114.251 133.168 113.109 130.593 112.427C128.018 111.745 125.494 111.521 123.277 111.521C121.09 111.521 119.2 111.74 117.853 111.959C116.506 112.178 115.7 112.398 115.682 112.403C115.331 112.499 115.124 112.861 115.22 113.212C115.316 113.563 115.679 113.77 116.03 113.674L116.03 113.674C116.03 113.674 116.03 113.674 116.03 113.674C116.043 113.67 116.813 113.462 118.099 113.254C119.388 113.046 121.196 112.839 123.277 112.839C126.115 112.839 129.457 113.225 132.694 114.498C134.312 115.134 135.905 115.992 137.403 117.134C138.9 118.277 140.304 119.705 141.544 121.49C141.752 121.789 142.162 121.863 142.461 121.656C142.76 121.448 142.835 121.037 142.627 120.738Z" fill="white"/>
<defs>
<linearGradient id="paint0_linear_132_137" x1="222.592" y1="130.62" x2="243.091" y2="116.296" gradientUnits="userSpaceOnUse">
<stop stop-color="white"/>
<stop offset="1" stop-color="white" stop-opacity="0"/>
</linearGradient>
<linearGradient id="paint1_linear_132_137" x1="199.911" y1="110.205" x2="215.695" y2="99.176" gradientUnits="userSpaceOnUse">
<stop stop-color="white"/>
<stop offset="1" stop-color="white" stop-opacity="0"/>
</linearGradient>
<linearGradient id="paint2_linear_132_137" x1="178.802" y1="102.449" x2="187.56" y2="96.3297" gradientUnits="userSpaceOnUse">
<stop stop-color="white"/>
<stop offset="1" stop-color="white" stop-opacity="0"/>
</linearGradient>
</defs>
</svg>
