<svg width="298" height="152" viewBox="0 0 298 152" fill="none" xmlns="http://www.w3.org/2000/svg">
<path d="M225.45 36.7475C219.192 36.743 212.963 37.601 206.94 39.2973C191.808 19.8134 168.158 7.27156 141.576 7.27156C102.148 7.27156 69.1691 34.8567 60.8751 71.7777C58.2308 71.2226 55.49 71.3335 52.8992 72.1003C50.3083 72.867 47.9487 74.2657 46.0324 76.1704C44.116 78.0752 42.7032 80.4264 41.9207 83.0125C41.1383 85.5987 41.0109 88.3387 41.5499 90.9863C23.6394 95.5892 10.4045 111.846 10.4045 131.192C10.3941 138.683 12.4206 146.037 16.2671 152.465H273.836C285.948 140.189 293.425 123.327 293.425 104.723C293.426 67.181 262.991 36.7475 225.45 36.7475Z" fill="#A7FF83"/>
<path d="M205.464 67.9198H194.209C192.786 67.9198 191.633 69.073 191.633 70.4956V93.1372C191.633 94.5597 192.786 95.713 194.209 95.713H205.464C206.887 95.713 208.04 94.5597 208.04 93.1372V70.4956C208.04 69.073 206.887 67.9198 205.464 67.9198Z" fill="#4AE00C"/>
<path d="M149.071 67.9198H137.816C136.393 67.9198 135.24 69.073 135.24 70.4956V93.1372C135.24 94.5597 136.393 95.713 137.816 95.713H149.071C150.493 95.713 151.647 94.5597 151.647 93.1372V70.4956C151.647 69.073 150.493 67.9198 149.071 67.9198Z" fill="#4AE00C"/>
<path d="M102.54 67.9198H91.2844C89.8618 67.9198 88.7086 69.073 88.7086 70.4956V93.1372C88.7086 94.5597 89.8618 95.713 91.2844 95.713H102.54C103.962 95.713 105.116 94.5597 105.116 93.1372V70.4956C105.116 69.073 103.962 67.9198 102.54 67.9198Z" fill="#4AE00C"/>
<path d="M212.51 100.823C203.674 100.823 196.222 106.75 193.912 114.845H231.108C228.798 106.754 221.346 100.823 212.51 100.823ZM263.249 100.823C254.412 100.823 246.961 106.75 244.651 114.845H281.848C279.536 106.754 272.085 100.823 263.249 100.823Z" fill="#4FF00D"/>
<path d="M239.075 94.8164C226.453 94.8164 215.809 103.282 212.509 114.844H265.641C262.341 103.286 251.697 94.8164 239.075 94.8164Z" fill="#4FF00D"/>
<path d="M21.5729 13.4623C11.3235 13.4623 2.6798 20.3361 0 29.7257H43.1448C40.465 20.337 31.8214 13.4623 21.5729 13.4623V13.4623ZM80.4253 13.4623C70.1759 13.4623 61.5323 20.337 58.8534 29.7266H101.998C99.3175 20.337 90.6747 13.4623 80.4253 13.4623V13.4623Z" fill="#E6FCDD"/>
<path d="M52.3865 6.49604C37.7467 6.49604 25.4003 16.3151 21.5729 29.7257H83.2011C79.3728 16.3142 67.0263 6.49604 52.3865 6.49604V6.49604Z" fill="#E6FCDD"/>
<path d="M24.0743 26.2184C21.8533 26.2185 19.6928 26.9416 17.9194 28.2785C16.1459 29.6154 14.8559 31.4933 14.2444 33.6284H33.9041C33.2926 31.4933 32.0026 29.6154 30.2292 28.2785C28.4557 26.9416 26.2952 26.2185 24.0743 26.2184V26.2184ZM50.8902 26.2184C48.6693 26.2185 46.5087 26.9416 44.7353 28.2785C42.9618 29.6154 41.6718 31.4933 41.0604 33.6284H60.72C60.1085 31.4933 58.8185 29.6154 57.0451 28.2785C55.2716 26.9416 53.1111 26.2185 50.8902 26.2184V26.2184Z" fill="white"/>
<path d="M38.1142 23.0437C34.942 23.044 31.8561 24.0771 29.3231 25.9867C26.79 27.8964 24.9476 30.5788 24.0742 33.6284H52.1543C51.2809 30.5788 49.4385 27.8964 46.9054 25.9867C44.3724 24.0771 41.2865 23.044 38.1142 23.0437ZM233.296 4.07893C230.117 4.07921 227.025 5.11428 224.488 7.02766C221.95 8.94104 220.104 11.6287 219.229 14.6843H247.363C246.488 11.6287 244.642 8.94104 242.104 7.02766C239.566 5.11428 236.474 4.07921 233.296 4.07893V4.07893ZM271.674 4.07893C268.495 4.07921 265.403 5.11428 262.865 7.02766C260.328 8.94104 258.482 11.6287 257.607 14.6843H285.74C284.866 11.6287 283.02 8.94104 280.482 7.02766C277.944 5.11428 274.852 4.07921 271.674 4.07893Z" fill="white"/>
<path d="M253.389 -0.464798C243.843 -0.464798 235.792 5.93749 233.296 14.687H273.483C270.987 5.93839 262.936 -0.464798 253.389 -0.464798V-0.464798Z" fill="white"/>
<path d="M266.116 33.2115C264.896 33.2115 263.709 33.6088 262.734 34.3433C261.76 35.0779 261.051 36.1097 260.715 37.2828H271.516C271.18 36.1098 270.471 35.0781 269.497 34.3436C268.523 33.6091 267.336 33.2117 266.116 33.2115ZM280.85 33.2115C279.63 33.2115 278.443 33.6088 277.468 34.3433C276.494 35.0779 275.785 36.1097 275.449 37.2828H286.251C285.915 36.1097 285.206 35.0779 284.232 34.3433C283.257 33.6088 282.07 33.2115 280.85 33.2115Z" fill="#E6FCDD"/>
<path d="M273.83 31.4669C272.088 31.4679 270.393 32.0359 269.002 33.0851C267.611 34.1344 266.599 35.6078 266.12 37.2828H281.548C281.068 35.6065 280.055 34.1321 278.663 33.0827C277.27 32.0333 275.574 31.4661 273.83 31.4669V31.4669Z" fill="#E6FCDD"/>
<path d="M247.868 13.4515C246.576 13.4516 245.319 13.8725 244.287 14.6505C243.255 15.4286 242.504 16.5214 242.148 17.7639H253.585C253.229 16.522 252.479 15.4296 251.448 14.6516C250.417 13.8736 249.16 13.4524 247.868 13.4515V13.4515ZM263.475 13.4515C262.182 13.4516 260.925 13.8725 259.893 14.6505C258.861 15.4286 258.11 16.5214 257.755 17.7639H269.195C268.839 16.5214 268.088 15.4286 267.056 14.6505C266.024 13.8725 264.767 13.4516 263.475 13.4515Z" fill="#4FF00D"/>
<path d="M256.04 11.6037C254.193 11.6039 252.398 12.2051 250.924 13.3166C249.449 14.428 248.377 15.9891 247.869 17.7639H264.211C263.703 15.989 262.63 14.4277 261.156 13.3163C259.682 12.2049 257.886 11.6037 256.04 11.6037Z" fill="#4FF00D"/>
<path d="M227.055 135.42H76.7755C75.4418 135.42 74.1627 134.891 73.2196 133.948C72.2765 133.004 71.7467 131.725 71.7467 130.392C71.7467 129.058 72.2765 127.779 73.2196 126.836C74.1627 125.893 75.4418 125.363 76.7755 125.363H227.055C228.389 125.363 229.668 125.893 230.611 126.836C231.554 127.779 232.084 129.058 232.084 130.392C232.084 131.725 231.554 133.004 230.611 133.948C229.668 134.891 228.389 135.42 227.055 135.42V135.42Z" fill="#4BE60C"/>
<path d="M173.433 45.8449C174.144 45.8449 174.827 45.5622 175.33 45.0589C175.833 44.5557 176.116 43.8732 176.116 43.1615C176.116 43.8732 176.399 44.5557 176.902 45.0589C177.405 45.5622 178.088 45.8449 178.8 45.8449C178.088 45.8449 177.405 46.1276 176.902 46.6308C176.399 47.1341 176.116 47.8166 176.116 48.5283C176.116 47.8166 175.833 47.1341 175.33 46.6308C174.827 46.1276 174.144 45.8449 173.433 45.8449V45.8449ZM94.2465 45.8449C94.9582 45.8449 95.6407 45.5622 96.144 45.0589C96.6472 44.5557 96.9299 43.8732 96.9299 43.1615C96.9299 43.5139 96.9993 43.8628 97.1342 44.1884C97.269 44.5139 97.4667 44.8098 97.7159 45.0589C97.965 45.3081 98.2608 45.5058 98.5864 45.6406C98.912 45.7755 99.2609 45.8449 99.6133 45.8449C99.2609 45.8449 98.912 45.9143 98.5864 46.0491C98.2608 46.184 97.965 46.3816 97.7159 46.6308C97.4667 46.88 97.269 47.1758 97.1342 47.5014C96.9993 47.8269 96.9299 48.1759 96.9299 48.5283C96.9299 47.8166 96.6472 47.1341 96.144 46.6308C95.6407 46.1276 94.9582 45.8449 94.2465 45.8449V45.8449ZM137.197 27.5525C137.594 27.5525 137.975 27.3948 138.256 27.114C138.536 26.8332 138.694 26.4523 138.694 26.0553C138.694 26.4523 138.852 26.8332 139.133 27.114C139.413 27.3948 139.794 27.5525 140.191 27.5525C139.794 27.5525 139.413 27.7102 139.133 27.991C138.852 28.2718 138.694 28.6526 138.694 29.0497C138.694 28.6526 138.536 28.2718 138.256 27.991C137.975 27.7102 137.594 27.5525 137.197 27.5525V27.5525ZM209.186 62.657C209.584 62.657 209.964 62.4993 210.245 62.2185C210.526 61.9377 210.684 61.5569 210.684 61.1598C210.684 61.5569 210.841 61.9377 211.122 62.2185C211.403 62.4993 211.784 62.657 212.181 62.657C211.784 62.657 211.403 62.8148 211.122 63.0956C210.841 63.3764 210.684 63.7572 210.684 64.1543C210.684 63.7572 210.526 63.3764 210.245 63.0956C209.964 62.8148 209.584 62.657 209.186 62.657V62.657ZM159.727 78.4606C160.124 78.4606 160.505 78.3028 160.786 78.0221C161.067 77.7413 161.224 77.3604 161.224 76.9633C161.224 77.3604 161.382 77.7413 161.663 78.0221C161.944 78.3028 162.325 78.4606 162.722 78.4606C162.325 78.4606 161.944 78.6183 161.663 78.8991C161.382 79.1799 161.224 79.5607 161.224 79.9578C161.224 79.5607 161.067 79.1799 160.786 78.8991C160.505 78.6183 160.124 78.4606 159.727 78.4606ZM84.3029 55.681C84.7 55.681 85.0808 55.5232 85.3616 55.2424C85.6424 54.9616 85.8001 54.5808 85.8001 54.1837C85.8001 54.5808 85.9578 54.9616 86.2386 55.2424C86.5194 55.5232 86.9003 55.681 87.2973 55.681C86.9003 55.681 86.5194 55.8387 86.2386 56.1195C85.9578 56.4003 85.8001 56.7811 85.8001 57.1782C85.8001 56.7811 85.6424 56.4003 85.3616 56.1195C85.0808 55.8387 84.7 55.681 84.3029 55.681Z" fill="white"/>
<path d="M43.1116 127.097C39.8529 127.097 36.6828 128.158 34.0807 130.12C31.4786 132.082 29.5859 134.837 28.6888 137.97H57.5345C56.6374 134.837 54.7447 132.082 52.1426 130.12C49.5405 128.158 46.3704 127.097 43.1116 127.097V127.097ZM82.4605 127.097C79.2017 127.097 76.0316 128.158 73.4295 130.12C70.8274 132.082 68.9347 134.837 68.0376 137.97H96.8842C95.9871 134.837 94.0942 132.082 91.4919 130.12C88.8896 128.158 85.7194 127.097 82.4605 127.097V127.097Z" fill="#B6FD99"/>
<path d="M63.7136 122.439C53.925 122.439 45.6705 129.004 43.1117 137.971H84.3155C81.7567 129.004 73.5022 122.439 63.7136 122.439Z" fill="#B6FD99"/>
<path d="M48.9482 132.992C46.9985 132.992 45.1019 133.627 43.545 134.8C41.9882 135.974 40.8557 137.623 40.3189 139.497H57.5785C57.0416 137.623 55.909 135.974 54.352 134.8C52.7949 133.626 50.8981 132.992 48.9482 132.992ZM72.4917 132.992C70.542 132.992 68.6454 133.627 67.0885 134.8C65.5317 135.974 64.3992 137.623 63.8624 139.497H81.1219C80.5851 137.623 79.4525 135.974 77.8955 134.8C76.3384 133.626 74.4416 132.992 72.4917 132.992Z" fill="#899186"/>
<path d="M61.274 130.204C58.4888 130.204 55.7793 131.111 53.5553 132.787C51.3313 134.464 49.7137 136.819 48.9473 139.497H73.6025C72.836 136.819 71.2182 134.464 68.9938 132.787C66.7695 131.11 64.0595 130.204 61.274 130.204V130.204Z" fill="#899186"/>
<path d="M118.138 134.303C116.966 134.303 115.827 134.685 114.891 135.39C113.956 136.095 113.276 137.086 112.953 138.212H123.324C123.001 137.086 122.321 136.095 121.385 135.39C120.449 134.685 119.31 134.303 118.138 134.303V134.303Z" fill="#17B978"/>
<path d="M111.398 132.629C109.725 132.629 108.097 133.174 106.761 134.181C105.425 135.188 104.453 136.603 103.992 138.212H118.805C118.344 136.603 117.372 135.188 116.036 134.181C114.7 133.174 113.072 132.629 111.398 132.629V132.629Z" fill="#17B978"/>
<path d="M245.426 87.6566C245.426 87.6566 242.254 87.1518 240.601 87.0541C240.561 90.5784 242.99 94.5923 244.043 95.6439C245.361 96.9565 246.567 99.7331 246.495 102.286C246.422 104.838 250.509 104.687 250.509 104.687C253.916 102.997 253.367 94.8729 252.313 90.478C251.504 91.16 250.738 91.8928 250.021 92.6719C250.099 91.9546 251.013 90.183 251.799 88.7647C250.081 83.978 245.302 75.8472 242.259 77.8841C238.88 80.1416 243.004 80.7432 241.14 84.576C240.954 84.9597 240.817 85.3651 240.733 85.7828C242.239 86.1261 244.842 86.8246 245.426 87.6566V87.6566Z" fill="#30A600"/>
<path d="M252.355 124.092C252.355 124.092 252.399 106.302 247.544 90.3139M248.508 93.9351C247.18 93.1401 245.671 92.6944 244.123 92.6396" stroke="#449623" stroke-width="1.08308" stroke-linecap="round" stroke-linejoin="round"/>
<path d="M259.691 100.938C261.849 101.19 263.631 99.3386 263.631 99.3386C266.344 98.3964 269.458 94.5627 270.549 90.6313C271.365 87.7005 273.162 87.1617 275.914 86.2534C274.76 83.6534 272.463 81.4255 272.463 81.4255C274.076 81.7276 276.346 83.6238 278.218 85.443C278.487 85.3318 278.771 85.2179 279.057 85.0942C283.615 83.1218 286.633 76.2766 287.743 72.9369C288.854 69.5973 294.861 70.8874 297.528 62.4598C300.196 54.0322 290.968 58.6046 284.503 58.4549C283.783 58.4311 283.063 58.4764 282.352 58.5903C282.118 60.5188 281.889 62.6768 281.941 63.4657C281.941 63.4657 280.333 61.7551 279.251 59.9629C277.351 61.5444 276.472 64.1857 274.563 66.9802C271.452 71.5204 266.196 71.3814 262.877 75.3003C259.558 79.2191 262.051 84.8243 259.121 90.4789C256.191 96.1335 257.53 100.685 259.691 100.938V100.938Z" fill="#30A600"/>
<path d="M256.04 118.118C256.04 118.118 259.151 79.5544 286.629 64.9298M266.943 84.4325C266.943 84.4325 265.798 80.8167 263.919 78.6713M274.295 74.5059C274.295 74.5059 278.694 73.699 282.091 75.3316" stroke="#449623" stroke-width="1.08308" stroke-linecap="round" stroke-linejoin="round"/>
<path d="M246.881 113.108H262.12V134.373H246.881V113.108Z" fill="#086972"/>
<path d="M245.578 110.642H263.424V130.085C263.424 130.568 263.232 131.032 262.89 131.374C262.548 131.716 262.084 131.908 261.601 131.908H247.399C246.916 131.908 246.452 131.716 246.111 131.374C245.769 131.032 245.577 130.568 245.577 130.085V110.642H245.578V110.642Z" fill="#576667"/>
<path d="M54.2809 99.4552C54.661 99.4808 55.0259 99.6146 55.3323 99.841C55.6387 100.067 55.8739 100.377 56.0101 100.732C56.1462 101.088 56.1777 101.476 56.1007 101.849C56.0237 102.222 55.8415 102.565 55.5756 102.838C56.5029 104.964 57.3005 107.144 57.964 109.367C58.3934 107.536 59.1707 104.844 60.442 102.391C60.106 102.045 59.9068 101.588 59.8813 101.106C59.8557 100.624 60.0056 100.149 60.3031 99.7694C60.6007 99.3893 61.0258 99.1298 61.4998 99.039C61.9739 98.9481 62.4648 99.0319 62.8819 99.275C63.2989 99.518 63.6138 99.9039 63.7683 100.361C63.9229 100.818 63.9066 101.316 63.7226 101.762C63.5385 102.209 63.1991 102.573 62.7671 102.788C62.3351 103.004 61.8398 103.055 61.3727 102.934C59.4827 106.61 58.7135 110.959 58.6032 111.63C59.8898 116.514 60.5514 121.172 60.8903 124.8C61.4982 131.32 61.2238 136.019 61.2211 136.066L60.1453 136C60.1453 135.955 60.4143 131.338 59.8171 124.899C59.6378 122.964 59.3626 120.73 58.9484 118.327C58.3208 117.872 55.9001 116.256 52.1651 115.273C51.9674 115.713 51.6173 116.066 51.1795 116.267C50.7417 116.469 50.2457 116.505 49.7832 116.37C49.3207 116.234 48.9229 115.936 48.6634 115.529C48.4038 115.123 48.2999 114.637 48.371 114.16C48.4421 113.684 48.6832 113.249 49.05 112.936C49.4167 112.623 49.8843 112.454 50.3662 112.459C50.8482 112.464 51.312 112.644 51.672 112.964C52.032 113.285 52.2638 113.724 52.3247 114.203C54.5638 114.767 56.7064 115.661 58.6821 116.856C57.8645 112.579 56.5967 107.867 54.636 103.375C54.3565 103.446 54.0649 103.455 53.7814 103.402C53.4979 103.35 53.2292 103.236 52.9938 103.07C52.7584 102.903 52.5619 102.688 52.4179 102.438C52.2738 102.188 52.1857 101.91 52.1594 101.623C52.1332 101.336 52.1695 101.046 52.2659 100.774C52.3623 100.503 52.5164 100.255 52.7177 100.049C52.919 99.8421 53.1627 99.6818 53.432 99.5785C53.7012 99.4753 53.9896 99.4317 54.2773 99.4507L54.2809 99.4552ZM36.5077 110.484C36.8259 110.348 37.1764 110.306 37.5178 110.363C37.8591 110.419 38.1771 110.573 38.4339 110.805C38.6908 111.037 38.8759 111.337 38.9674 111.671C39.0588 112.005 39.0527 112.358 38.9499 112.688C40.5775 114.028 42.1224 115.465 43.5761 116.992C43.169 115.332 42.6885 112.833 42.7064 110.322C42.2916 110.18 41.9422 109.893 41.7229 109.513C41.5036 109.133 41.4292 108.687 41.5135 108.257C41.5977 107.827 41.835 107.441 42.1813 107.172C42.5276 106.903 42.9596 106.769 43.3973 106.794C43.8351 106.819 44.2491 107.001 44.5626 107.308C44.8762 107.614 45.0682 108.024 45.1031 108.461C45.1381 108.898 45.0135 109.333 44.7526 109.685C44.4916 110.038 44.1119 110.284 43.6837 110.378C43.6702 114.135 44.8402 117.972 45.0285 118.563C48.0849 121.982 50.5423 125.479 52.3085 128.28C55.4895 133.308 57.2055 137.226 57.2225 137.266L56.326 137.656C56.3089 137.617 54.6225 133.768 51.4846 128.803C50.4109 127.105 49.2723 125.45 48.0714 123.84C47.3748 123.731 44.7542 123.418 41.3204 124.164C41.3415 124.601 41.2036 125.032 40.9323 125.375C40.661 125.719 40.2744 125.953 39.8442 126.033C39.4139 126.114 38.9689 126.037 38.5914 125.815C38.2139 125.593 37.9294 125.242 37.7905 124.827C37.6516 124.412 37.6676 123.96 37.8356 123.556C38.0036 123.152 38.3122 122.822 38.7045 122.627C39.0967 122.433 39.5461 122.387 39.9696 122.498C40.3931 122.609 40.762 122.87 41.0084 123.232C43.0537 122.765 45.157 122.606 47.2493 122.759C44.8232 119.634 41.8538 116.341 38.4146 113.513C38.2175 113.686 37.9852 113.814 37.7338 113.888C37.4825 113.962 37.218 113.981 36.9587 113.943C36.6994 113.905 36.4513 113.812 36.2317 113.669C36.012 113.526 35.8259 113.337 35.6863 113.115C35.5467 112.893 35.4568 112.644 35.4229 112.384C35.3889 112.124 35.4117 111.86 35.4897 111.61C35.5677 111.36 35.699 111.129 35.8746 110.935C36.0502 110.74 36.2658 110.586 36.5068 110.483L36.5077 110.484Z" fill="#899186"/>
<path d="M158.469 46.3308C158.469 46.3308 158.959 41.7853 159.93 41.1667C160.901 40.548 160.925 44.9277 159.259 47.1323L158.469 46.3308Z" fill="white"/>
<path d="M157.872 46.0278C158.601 45.8754 159.334 45.7068 160.08 45.5795C162.266 56.6734 158.176 62.7144 151.787 70.9116C150.81 72.1668 149.94 72.1542 149.008 70.7753C148.727 70.8991 148.727 70.9 149.008 70.7753C148.077 69.3964 148.603 69.114 149.52 67.936C155.519 60.2346 159.154 56.6098 157.872 46.0278V46.0278Z" fill="#17B978"/>
<path d="M152.829 53.9488C151.964 53.8771 150.904 54.4518 150.593 55.308C150.282 56.1642 150.928 57.0643 151.741 57.3593C152.554 57.6543 154.225 56.8106 154.535 55.9544C154.846 55.0982 153.925 54.0394 152.829 53.9488Z" fill="#2D344A"/>
<path d="M149.593 50.7723C147.89 49.3988 144.869 49.0958 143.015 50.4415C141.162 51.7872 141.243 54.5755 142.525 56.3417C143.807 58.1079 147.71 59.1883 150.625 57.3781C152.571 56.1705 151.751 52.5116 149.593 50.7723V50.7723Z" fill="#2D344A"/>
<path d="M149.967 57.5252C148.811 56.5703 146.795 56.3193 145.581 57.2006C144.368 58.0819 144.464 59.9683 145.346 61.1813C146.227 62.3944 149.349 62.8767 150.562 61.9954C151.775 61.1141 151.431 58.7346 149.967 57.5252V57.5252Z" fill="#2D344A"/>
<path d="M149.085 59.9522C150.222 62.3818 152.835 63.5599 154.32 62.866C155.805 62.172 155.599 59.8679 154.462 57.4373C153.325 55.0068 151.544 54.3344 150.059 55.0283C148.574 55.7222 147.949 57.5198 149.085 59.9522V59.9522Z" fill="white"/>
<path d="M148.008 58.5697C148.008 58.5697 147.794 56.7765 148.748 55.6415C149.702 54.5065 152.095 53.5095 153.609 55.4254C153.609 55.4254 154.56 56.885 152.702 57.8838C150.843 58.8825 150.797 57.7197 150.211 59.0493C149.626 60.3789 148.493 59.9907 148.398 60.2812L148.008 58.5697Z" fill="#2D344A"/>
<path d="M144.827 99.1244C143.676 98.5281 142.76 97.5527 141.63 96.917C140.724 96.4069 139.725 96.137 138.694 95.9873C140.737 91.6041 142.315 87.2513 142.827 83.51C142.827 83.51 143.742 70.9968 145.489 67.7226C146.953 64.9782 148.416 64.4295 149.233 64.0879C150.375 63.6101 151.688 63.7643 152.589 64.6124L152.64 64.6608C153.683 65.6668 153.716 67.8454 153.879 70.1128C154.042 72.3802 154.908 71.966 152.905 75.9099C152.193 77.3121 153.354 85.1525 153.712 89.7607C153.835 91.2545 154.054 92.7388 154.369 94.2041C154.653 95.5408 154.875 96.978 155.053 98.4878C151.542 99.2176 147.914 100.724 144.827 99.1244Z" fill="#17B978"/>
<path d="M140.994 83.7646C140.994 83.7646 145.624 85.0296 146.104 86.1396C146.584 87.2495 142.04 86.5448 140.031 84.4505L140.994 83.7646Z" fill="white"/>
<path d="M141.565 82.8923C141.274 83.6624 140.962 84.446 140.579 85.2152C127.097 77.1256 137.854 68.4622 148.927 65.2624C150.62 64.7729 150.663 68.5178 148.008 69.0127C138.691 70.7457 132.812 76.8531 141.565 82.8923V82.8923Z" fill="#17B978"/>
<path d="M149.934 59.9494L152.74 60.196C152.707 60.5806 152.323 64.2305 151.933 65.5556C151.754 65.9537 151.032 66.0164 150.32 65.6964C149.679 65.4077 149.269 64.9092 149.323 64.5219C149.551 63.723 149.817 61.2916 149.934 59.9494Z" fill="white"/>
<path d="M148.293 61.1212C148.562 61.687 149.458 62.1478 149.866 61.9559C150.274 61.7641 150.164 61.2584 149.899 60.6927C149.635 60.127 149.056 59.7531 148.644 59.945C148.233 60.1368 148.028 60.5555 148.293 61.1212V61.1212Z" fill="white"/>
<path d="M191.192 93.9261C192.82 93.3819 196.174 94.2543 197.792 93.9261C200.175 93.4402 201.349 93.6204 203.709 93.7594C204.011 86.3673 203.754 78.6336 204.294 71.385C204.411 69.8609 204.488 68.9526 204.204 67.8104C203.822 66.2728 203.022 65.2104 201.983 64.6492C200.71 63.9526 199.082 64.0064 197.437 64.8473C197.182 64.9634 196.942 65.1081 196.72 65.2786C195.744 66.0254 194.845 67.4814 194.701 70.2293C194.334 77.0916 192.486 86.7949 191.192 93.9261V93.9261Z" fill="#B6FD99"/>
<path d="M183.261 67.2465C183.261 67.2465 184.833 62.2706 186.059 61.7981C187.285 61.3257 186.328 66.2307 183.964 68.3224L183.261 67.2465Z" fill="white"/>
<path d="M182.642 66.8305C183.641 67.1147 184.704 67.242 185.723 67.4877C183.05 82.3463 194.683 76.7222 196.881 67.2859C197.257 65.6722 198.361 64.1677 200.392 65.8694C200.737 66.982 200.858 68.4416 199.995 70.2984C194.354 82.4359 180.151 84.0372 182.642 66.8305V66.8305Z" fill="#B6FD99"/>
<path d="M201.627 60.1718C200.037 62.6158 197.045 63.4891 195.552 62.519C194.058 61.5489 194.627 59.0977 196.218 56.6537C197.808 54.2097 199.828 53.7534 201.322 54.7244C202.816 55.6953 203.217 57.7269 201.627 60.1718V60.1718Z" fill="white"/>
<path d="M202.181 61.7282C201.811 62.2975 200.772 62.657 200.361 62.389C199.949 62.1209 200.146 61.5928 200.516 61.0235C200.886 60.4542 201.567 60.1395 201.978 60.4076C202.39 60.6757 202.551 61.1598 202.181 61.7282Z" fill="white"/>
<path d="M201.273 59.7666L198.224 59.4689C198.183 59.8858 197.866 63.862 198.019 65.3584C198.131 65.8201 198.891 66.0317 199.716 65.8308C200.459 65.6515 200.996 65.2033 201.017 64.7747C200.928 63.8764 201.131 61.2253 201.273 59.7666V59.7666Z" fill="white"/>
<path d="M200.138 61.0083C199.689 60.5223 199.265 60.9599 198.184 61.5677C197.103 62.1756 195.17 62.016 195.035 59.4877C194.962 58.1079 194.286 59.8392 194.091 60.369C194.054 60.4726 194.029 60.5804 194.018 60.69C193.89 61.9084 194.254 62.6624 195.101 63.2129C196.117 63.8746 197.638 63.9077 199.115 63.307C199.464 63.1693 199.764 62.9303 199.976 62.6208C200.187 62.3113 200.301 61.9454 200.303 61.5704C200.303 61.3328 200.253 61.1329 200.138 61.0083ZM202.994 58.8458C202.994 58.8458 203.496 56.9442 202.635 55.5814C201.775 54.2187 199.354 52.7806 197.435 54.6158C197.435 54.6158 196.191 56.0441 198.041 57.3952C199.892 58.7463 200.118 57.5054 200.547 59.0251C200.977 60.5448 202.255 60.2973 202.313 60.6246L202.994 58.8458Z" fill="#071A52"/>
<path d="M195.016 82.6762L195.765 86.6488L198.281 82.8429L199.348 66.7893H198.283L195.016 82.6762V82.6762Z" fill="#30A600"/>
<path d="M205.709 91.0132C205.709 91.0132 200.778 92.7113 200.329 93.9494C199.881 95.1876 204.767 94.1019 206.798 91.6883L205.709 91.0132Z" fill="white"/>
<path d="M205.335 90.5623C205.79 91.3073 206.272 92.0452 206.717 92.7391C219.188 82.9308 218.418 76.9974 204.884 66.6368C200.662 63.4093 199.74 68.0202 203.137 70.2509C214.359 77.6151 216.126 82.8107 205.335 90.5623V90.5623Z" fill="#B6FD99"/>
<path d="M194.629 59.7271C194.629 59.7271 195.864 59.2788 196.272 59.5613C196.68 59.8437 196.692 59.7782 196.978 59.9297C197.264 60.0813 197.902 60.8559 197.868 61.5184C197.835 62.181 197.495 62.1756 197.358 61.8098C197.221 61.444 196.386 60.6891 196.405 60.2857C196.405 60.2857 195.598 60.2184 195.248 60.1064C194.997 60.0415 194.734 60.0415 194.484 60.1064C194.484 60.1064 194.212 59.8508 194.629 59.7271Z" fill="#071A52"/>
<path d="M117.202 55.7025C117.202 55.7025 117.409 50.9194 118.383 50.2084C119.356 49.4974 119.675 54.0717 118.081 56.4843L117.202 55.7025Z" fill="white"/>
<path d="M116.89 55.0462C117.666 55.1708 118.448 55.273 119.194 55.3842C116.84 68.4802 111.234 72.442 98.4255 68.0453C96.4665 67.3729 96.7552 66.9524 97.4724 65.4911C97.2626 65.2839 97.2546 65.2938 97.4724 65.4911C98.1897 64.0297 98.5537 63.9669 100.28 64.6357C111.571 68.9957 113.65 65.4471 116.89 55.0462V55.0462Z" fill="#525D5E"/>
<path d="M109.051 91.388C107.706 91.2087 105.982 91.1316 103.789 91.2221C100.561 91.3602 98.707 91.8497 97.4276 92.3581C96.9991 91.3043 96.6106 90.2739 96.2621 89.2667C96.1357 88.9081 96.0173 88.5495 95.9035 88.1909C95.7146 87.6129 95.5398 87.0451 95.379 86.4874C95.2723 86.118 95.1701 85.7523 95.0751 85.3909C94.8554 84.5706 94.6635 83.77 94.4941 82.9783C94.4152 82.6036 94.3417 82.2288 94.2717 81.8594C94.1036 80.9657 93.9616 80.0673 93.8459 79.1653C93.7984 78.7851 93.7562 78.4104 93.7159 78.0347C93.4795 75.6959 93.424 73.3423 93.55 70.995C93.6073 69.817 93.7466 68.6445 93.9669 67.4859C94.5586 64.4304 98.1691 63.0784 100.635 64.9755L101.168 65.3844C101.834 65.8989 102.349 66.5828 102.66 67.3646C102.971 68.1464 103.066 68.9974 102.935 69.8286C102.639 71.81 102.845 74.687 104.19 79.1402C104.303 79.5069 104.422 79.8816 104.549 80.2707C104.728 80.8149 104.921 81.3842 105.13 81.9742C105.256 82.3328 105.389 82.6914 105.527 83.0617C105.772 83.718 106.035 84.4003 106.321 85.1103C106.462 85.4627 106.609 85.8204 106.761 86.1862C106.916 86.5663 107.082 86.9581 107.251 87.3517C107.401 87.6987 107.552 88.051 107.71 88.4114C108.123 89.3588 108.569 90.351 109.051 91.388V91.388Z" fill="#CCF2BC"/>
<path d="M109.051 91.388C107.706 91.2087 105.982 91.1316 103.789 91.2221C100.561 91.3602 98.707 91.8497 97.4276 92.3581C96.9991 91.3043 96.6106 90.2739 96.2621 89.2667C96.1357 88.9081 96.0173 88.5495 95.9035 88.1909C95.7146 87.6129 95.5398 87.0451 95.379 86.4874C95.2723 86.118 95.1701 85.7523 95.0751 85.3909C94.8554 84.5706 94.6635 83.77 94.4941 82.9783C94.4152 82.6036 94.3417 82.2288 94.2717 81.8594C94.1036 80.9657 93.9616 80.0673 93.8459 79.1653C93.7984 78.7851 93.7562 78.4104 93.7159 78.0347C93.4795 75.6959 93.424 73.3423 93.55 70.995C93.6073 69.817 93.7466 68.6445 93.9669 67.4859C94.5586 64.4304 98.1691 63.0784 100.635 64.9755L101.168 65.3844C101.834 65.8989 102.349 66.5828 102.66 67.3646C102.971 68.1464 103.066 68.9974 102.935 69.8286C102.639 71.81 102.845 74.687 104.19 79.1402C104.303 79.5069 104.422 79.8816 104.549 80.2707C104.728 80.8149 104.921 81.3842 105.13 81.9742C105.256 82.3328 105.389 82.6914 105.527 83.0617C105.772 83.718 106.035 84.4003 106.321 85.1103C106.462 85.4627 106.609 85.8204 106.761 86.1862C106.916 86.5663 107.082 86.9581 107.251 87.3517C107.401 87.6987 107.552 88.051 107.71 88.4114C108.123 89.3588 108.569 90.351 109.051 91.388V91.388Z" fill="#A7FF83"/>
<path d="M101.26 59.4922C100.297 62.1308 97.6741 63.5984 96.0648 63.0094C94.4555 62.4204 94.4572 59.9979 95.421 57.3611C96.3848 54.7243 98.1824 53.8574 99.7944 54.4464C101.406 55.0354 102.227 56.8528 101.26 59.4922V59.4922Z" fill="white"/>
<path d="M96.8403 59.8437L99.7765 59.5568C99.816 59.9584 100.124 63.7867 99.9747 65.2293C99.8671 65.6775 99.1346 65.8775 98.3394 65.6847C97.6221 65.5117 97.1066 65.0768 97.0842 64.6671C97.1721 63.8019 96.9766 61.2486 96.8403 59.8437Z" fill="white"/>
<path d="M102.26 57.951C102.26 57.951 102.32 56.0575 101.221 54.9637C100.122 53.8699 97.5352 53.0451 96.1303 55.1825C96.1303 55.1825 95.2714 56.7963 97.3012 57.6641C99.331 58.532 99.2736 57.319 100.005 58.6503C100.737 59.9817 101.888 59.4752 102.008 59.7701L102.26 57.951Z" fill="#071A52"/>
<path d="M102.278 60.1368C102.054 60.751 101.157 61.314 100.713 61.1508C100.268 60.9877 100.339 60.4497 100.563 59.8356C100.787 59.2215 101.357 58.7786 101.802 58.939C102.247 59.0995 102.502 59.5227 102.278 60.1368V60.1368Z" fill="white"/>
<path d="M100.654 60.7088C100.654 60.7088 100.089 60.4219 99.5533 61.1795C99.0181 61.9371 98.369 62.536 97.4957 62.4347C96.6225 62.3334 96.4449 62.1352 95.7411 62.0474C95.0374 61.9595 94.8563 60.0301 94.8948 59.6715C94.9907 58.7938 94.6034 59.4797 94.4367 60.0445C94.2699 60.6093 93.662 62.2608 95.0705 63.1385C96.479 64.0162 97.008 64.1247 97.9942 63.6639C98.9804 63.203 100.459 62.6517 100.654 60.7088V60.7088Z" fill="#071A52"/>
<path d="M106.498 93.182C105.662 94.5483 98.4881 96.4392 97.7736 95.8412C97.449 95.5722 96.3391 93.1309 95.1924 89.6675C94.9584 88.9449 94.7163 88.1756 94.4815 87.375C94.2905 86.7187 94.1022 86.0392 93.9229 85.3443C93.7239 84.5867 93.5365 83.8058 93.3644 83.0133C92.7789 80.3541 92.345 77.538 92.2472 74.8394C91.8994 65.3691 96.3517 63.8235 97.1057 64.1005C97.1057 64.1005 95.4811 64.7917 96.5785 65.4866C97.6759 66.1814 100.206 66.6969 100.386 68.6613C100.566 70.6256 100.738 78.613 101.777 81.7007C101.823 81.8415 101.878 81.9858 101.937 82.1418C102.179 82.7587 102.519 83.4867 102.914 84.2819C103.144 84.7508 103.394 85.2421 103.648 85.7388C103.999 86.4301 104.365 87.1365 104.71 87.8278C105.922 90.244 106.932 92.4746 106.498 93.182V93.182Z" fill="#667475"/>
<path d="M108.65 92.3581C107.912 92.4477 106.826 90.3121 105.787 87.7856C105.494 87.0747 105.202 86.3332 104.924 85.599C104.744 85.1112 104.561 84.6262 104.393 84.1582C104.093 83.3459 103.819 82.5847 103.586 81.9365C103.301 81.1556 103.074 80.5424 102.93 80.2107C102.123 78.3593 101.899 69.4673 102.033 67.9682C102.168 66.4692 100.014 64.5703 100.014 64.5703C100.702 64.4179 102.517 65.8084 102.927 66.6709C103.734 68.3654 103.728 73.0598 104.258 77.2619C104.426 78.5897 104.832 80.078 105.341 81.542C105.598 82.2916 105.883 83.0375 106.18 83.7521C106.359 84.2003 106.551 84.6307 106.738 85.0404C107.09 85.8294 107.441 86.5592 107.761 87.1805C108.099 87.8625 108.473 88.526 108.881 89.1681C109.747 90.4484 110.267 92.1662 108.65 92.3581Z" fill="#667475"/>
<path d="M107.58 83.0223C107.58 83.0223 112.219 84.2048 112.716 85.304C113.212 86.4032 108.669 85.7765 106.632 83.7225L107.58 83.0223Z" fill="white"/>
<path d="M107.767 82.5803C107.811 83.4562 108.101 84.194 108.321 84.8727C93.5365 88.0663 82.6927 82.8349 92.5951 68.23C94.1094 65.9958 97.8346 68.2722 95.1637 71.2299C84.8381 82.6681 98.6101 83.3334 107.767 82.5803Z" fill="#525D5E"/>
<path d="M163.84 105.646L160.965 106.722C163.863 113.467 166.762 120.196 169.87 126.051C170.625 125.513 170.455 124.837 171.139 124.21C167.636 117.888 165.534 111.7 163.84 105.646Z" fill="white"/>
<path d="M171.537 124.209C171.537 124.209 173.126 126.476 176.378 126.649C176.378 126.649 177.858 126.865 176.109 127.393C174.36 127.921 171.458 127.779 170.437 126.999C170.437 126.999 170.236 128.985 169.961 128.442C169.687 127.898 168.453 125.413 168.453 125.413L171.537 124.209Z" fill="#2D344A"/>
<path d="M161.805 105.589L158.75 105.899C159.831 113.161 160.919 120.406 162.426 126.859C163.294 126.53 163.301 125.834 164.123 125.403C162.352 118.396 161.899 111.876 161.805 105.589V105.589Z" fill="white"/>
<path d="M164.513 125.501C164.513 125.501 165.472 128.101 168.573 129.095C168.573 129.095 169.949 129.682 168.124 129.746C166.3 129.811 163.529 128.933 162.741 127.919C162.741 127.919 162.039 129.788 161.913 129.193C161.787 128.598 161.227 125.876 161.227 125.876L164.513 125.501Z" fill="#2D344A"/>
<path d="M185.728 103.594H208.821V107.055C208.821 107.341 208.707 107.614 208.506 107.816C208.304 108.018 208.03 108.131 207.745 108.131H186.807C186.521 108.131 186.248 108.018 186.046 107.816C185.844 107.614 185.731 107.341 185.731 107.055V103.594H185.728Z" fill="#B3B3B3"/>
<path d="M191.635 106.331H202.913V109.792C202.913 110.078 202.8 110.351 202.598 110.553C202.397 110.755 202.123 110.868 201.838 110.868H192.713C192.428 110.868 192.154 110.755 191.953 110.553C191.751 110.351 191.637 110.078 191.637 109.792V106.331H191.635Z" fill="#B3B3B3"/>
<path d="M196.179 106.331H198.37V125.141H196.179V106.331Z" fill="#899186"/>
<path d="M202.286 125.141H192.179C191.625 125.141 191.093 125.362 190.701 125.754C190.309 126.145 190.089 126.677 190.089 127.231V128.867H204.375V127.231C204.375 126.677 204.155 126.146 203.763 125.754C203.371 125.362 202.84 125.142 202.286 125.141V125.141Z" fill="#899186"/>
<path d="M187.476 98.8733H207.072C208.03 98.8733 208.949 99.2538 209.626 99.9311C210.303 100.608 210.684 101.527 210.684 102.485C210.684 103.167 210.413 103.822 209.93 104.305C209.447 104.787 208.792 105.059 208.11 105.059H186.438C185.756 105.059 185.101 104.787 184.618 104.305C184.135 103.822 183.864 103.167 183.864 102.485C183.864 101.527 184.245 100.608 184.922 99.9311C185.599 99.2538 186.518 98.8733 187.476 98.8733V98.8733Z" fill="#576667"/>
<path d="M136.442 103.594H159.535V107.055C159.535 107.341 159.421 107.614 159.219 107.816C159.018 108.018 158.744 108.131 158.459 108.131H137.521C137.235 108.131 136.962 108.018 136.76 107.816C136.558 107.614 136.445 107.341 136.445 107.055V103.594H136.442Z" fill="#B3B3B3"/>
<path d="M142.349 106.331H153.628V109.792C153.628 110.078 153.515 110.351 153.313 110.553C153.111 110.755 152.837 110.868 152.552 110.868H143.427C143.142 110.868 142.868 110.755 142.666 110.553C142.465 110.351 142.351 110.078 142.351 109.792V106.331H142.349Z" fill="#B3B3B3"/>
<path d="M146.893 106.331H149.083V125.141H146.893V106.331Z" fill="#899186"/>
<path d="M153 125.141H142.894C142.339 125.141 141.808 125.362 141.416 125.754C141.024 126.145 140.804 126.677 140.804 127.231V128.867H155.089V127.231C155.089 126.677 154.869 126.145 154.477 125.754C154.085 125.362 153.554 125.141 153 125.141V125.141Z" fill="#899186"/>
<path d="M138.189 98.8733H157.786C158.744 98.8733 159.663 99.2538 160.34 99.9311C161.017 100.608 161.397 101.527 161.397 102.485C161.398 102.823 161.331 103.157 161.202 103.47C161.073 103.782 160.883 104.066 160.644 104.305C160.405 104.544 160.122 104.734 159.809 104.863C159.497 104.993 159.162 105.059 158.824 105.06H137.152C136.469 105.06 135.815 104.788 135.332 104.306C134.849 103.823 134.578 103.168 134.578 102.486C134.578 101.528 134.958 100.609 135.636 99.9319C136.313 99.2547 137.232 98.8742 138.189 98.8742V98.8733Z" fill="#576667"/>
<path d="M95.0105 103.594H118.103V107.055C118.103 107.341 117.99 107.614 117.788 107.816C117.586 108.018 117.313 108.131 117.027 108.131H96.0891C95.8037 108.131 95.5301 108.018 95.3283 107.816C95.1265 107.614 95.0132 107.341 95.0132 107.055V103.594H95.0105Z" fill="#B3B3B3"/>
<path d="M100.918 106.331H112.196V109.792C112.196 110.078 112.083 110.351 111.881 110.553C111.68 110.755 111.406 110.868 111.121 110.868H101.996C101.711 110.868 101.437 110.755 101.236 110.553C101.034 110.351 100.921 110.078 100.921 109.792V106.331H100.918Z" fill="#B3B3B3"/>
<path d="M105.462 106.331H107.652V125.141H105.462V106.331Z" fill="#899186"/>
<path d="M111.571 125.141H101.462C100.908 125.141 100.376 125.362 99.9843 125.754C99.5924 126.145 99.3722 126.677 99.3722 127.231V128.867H113.658V127.231C113.658 126.678 113.438 126.146 113.047 125.754C112.655 125.363 112.125 125.142 111.571 125.141V125.141Z" fill="#899186"/>
<path d="M96.7588 98.8733H116.356C117.313 98.8733 118.232 99.2538 118.909 99.9311C119.586 100.608 119.967 101.527 119.967 102.485C119.967 103.167 119.696 103.822 119.213 104.305C118.73 104.787 118.076 105.059 117.393 105.059H95.7215C95.0388 105.059 94.3841 104.787 93.9014 104.305C93.4187 103.822 93.1475 103.167 93.1475 102.485C93.1475 101.527 93.5279 100.608 94.2052 99.9311C94.8824 99.2538 95.801 98.8733 96.7588 98.8733V98.8733Z" fill="#576667"/>
<path d="M185.613 128.911C185.749 128.91 185.883 128.88 186.005 128.821C186.128 128.763 186.236 128.678 186.322 128.573C186.407 128.468 186.469 128.345 186.501 128.213C186.534 128.082 186.537 127.944 186.51 127.811L185.196 121.356C185.177 121.233 185.134 121.115 185.068 121.009C185.003 120.904 184.917 120.812 184.815 120.741C184.713 120.67 184.597 120.62 184.476 120.595C184.354 120.57 184.228 120.569 184.106 120.594C183.984 120.619 183.869 120.669 183.767 120.739C183.665 120.81 183.578 120.901 183.512 121.007C183.446 121.112 183.403 121.23 183.384 121.353C183.365 121.476 183.371 121.602 183.402 121.722L184.717 128.177C184.759 128.384 184.871 128.57 185.035 128.703C185.198 128.837 185.402 128.91 185.613 128.911V128.911Z" fill="white"/>
<path d="M186.759 127.694C186.759 127.694 187.327 130.049 186.759 130.115C186.192 130.18 178.029 130.428 177.98 130.049C177.817 128.756 184.491 127.563 185.145 127.694C185.8 127.825 186.685 127.351 186.759 127.694ZM180.792 106.792C181.651 113.637 182.71 120.133 183.678 125.544C184.69 125.496 185.7 125.396 186.702 125.245C185.352 119.803 184.467 113.434 184.102 106.792H180.792Z" fill="#2D344A"/>
<path d="M208.152 128.911C208.016 128.91 207.882 128.88 207.76 128.821C207.637 128.763 207.529 128.678 207.443 128.573C207.358 128.468 207.296 128.345 207.264 128.213C207.231 128.082 207.228 127.944 207.255 127.811L208.57 121.356C208.629 121.129 208.772 120.933 208.971 120.809C209.171 120.685 209.41 120.641 209.64 120.688C209.87 120.735 210.073 120.869 210.207 121.061C210.342 121.253 210.398 121.49 210.363 121.722L209.048 128.177C209.006 128.384 208.894 128.57 208.731 128.703C208.567 128.837 208.363 128.91 208.152 128.911V128.911Z" fill="white"/>
<path d="M207.005 127.694C207.005 127.694 206.438 130.049 207.005 130.115C207.573 130.18 215.736 130.428 215.784 130.049C215.947 128.756 209.273 127.563 208.619 127.694C207.964 127.825 207.08 127.351 207.005 127.694ZM212.971 106.792C212.112 113.637 211.053 120.133 210.085 125.544C209.072 125.496 208.063 125.396 207.061 125.245C208.411 119.803 209.296 113.434 209.661 106.792H212.971Z" fill="#2D344A"/>
<path d="M119.971 129.327C119.838 129.354 119.701 129.351 119.569 129.319C119.436 129.287 119.313 129.225 119.208 129.14C119.102 129.054 119.017 128.946 118.959 128.823C118.9 128.7 118.87 128.566 118.869 128.43L118.857 121.841C118.857 121.598 118.953 121.365 119.125 121.193C119.297 121.021 119.53 120.925 119.773 120.925C120.016 120.925 120.249 121.021 120.421 121.193C120.593 121.365 120.689 121.598 120.689 121.841L120.702 128.43C120.702 128.641 120.629 128.845 120.496 129.008C120.363 129.171 120.178 129.284 119.971 129.327Z" fill="white"/>
<path d="M118.604 128.365C118.604 128.365 118.523 130.785 119.092 130.736C119.66 130.687 127.707 129.284 127.678 128.904C127.578 127.605 120.8 127.78 120.186 128.04C119.571 128.3 118.608 128.015 118.604 128.365V128.365ZM120.24 106.689C120.778 113.567 121.047 120.144 121.19 125.639C120.188 125.795 119.18 125.901 118.167 125.956C118.393 120.353 117.978 113.936 117.002 107.357L120.24 106.689Z" fill="#2D344A"/>
<path d="M129.771 128.028C129.654 128.098 129.523 128.141 129.388 128.154C129.253 128.167 129.117 128.15 128.989 128.103C128.861 128.057 128.745 127.983 128.65 127.887C128.554 127.79 128.481 127.674 128.436 127.546L126.252 121.33C126.178 121.103 126.196 120.855 126.302 120.641C126.408 120.427 126.594 120.262 126.82 120.183C127.045 120.104 127.293 120.116 127.51 120.217C127.727 120.318 127.896 120.5 127.98 120.723L130.164 126.939C130.234 127.138 130.233 127.355 130.161 127.554C130.09 127.752 129.952 127.92 129.771 128.028V128.028Z" fill="white"/>
<path d="M128.166 127.572C128.166 127.572 128.888 129.885 129.408 129.65C129.928 129.415 137.062 125.436 136.909 125.089C136.386 123.895 130.045 126.295 129.55 126.744C129.055 127.192 128.054 127.24 128.166 127.572V127.572ZM122.563 106.569C125.343 112.886 127.763 119.005 129.707 124.142C128.813 124.619 127.896 125.051 126.958 125.436C125.325 120.072 122.816 114.151 119.724 108.262L122.563 106.569Z" fill="#2D344A"/>
<path d="M82.4722 87.7327H85.8002V130.985H82.4722V87.7327ZM217.819 87.7327H221.147V130.985H217.819V87.7327Z" fill="#DEDEDE"/>
<path d="M79.7404 87.7327H224.092V117.539H79.7404V87.7327Z" fill="#F2F2F2"/>
<path d="M79.7404 87.7327H224.092V91.8452H79.7404V87.7327Z" fill="#DEDEDE"/>
<path d="M76.5316 85.8186H227.301V89.6245H76.5316V85.8186ZM117.039 35.0387H118.109V68.7877H117.039V35.0387Z" fill="white"/>
<path d="M117.574 39.3458C124.088 39.3458 129.368 34.0653 129.368 27.5516C129.368 21.0379 124.088 15.7574 117.574 15.7574C111.06 15.7574 105.78 21.0379 105.78 27.5516C105.78 34.0653 111.06 39.3458 117.574 39.3458Z" fill="#17B978"/>
<path d="M115.257 23.1719V31.9322H112.304V25.3999H110.802V23.1719H115.257ZM116.334 27.5525C116.334 24.6486 117.986 22.972 120.301 22.972C122.616 22.972 124.269 24.6495 124.269 27.5525C124.269 30.4555 122.616 32.133 120.301 32.133C117.986 32.133 116.334 30.4555 116.334 27.5525ZM121.303 27.5525C121.303 25.8625 120.877 25.3371 120.301 25.3371C119.726 25.3371 119.3 25.8625 119.3 27.5525C119.3 29.2425 119.726 29.7679 120.301 29.7679C120.877 29.7679 121.303 29.2416 121.303 27.5525V27.5525Z" fill="#086972"/>
<path d="M155.003 28.5772L156.037 28.3001L164.771 60.8991L163.737 61.1762L155.003 28.5772Z" fill="white"/>
<path d="M156.635 32.5985C162.926 30.9126 166.66 24.4454 164.974 18.1536C163.289 11.8618 156.821 8.12801 150.53 9.81389C144.238 11.4998 140.504 17.9669 142.19 24.2587C143.876 30.5505 150.343 34.2843 156.635 32.5985Z" fill="#17B978"/>
<path d="M157.258 19.9363C158.052 22.8949 156.617 25.1363 153.824 25.8831C152.821 26.1521 151.777 26.1727 151.023 25.9208L151.516 23.6507C152.106 23.8686 152.639 23.83 153.171 23.6866C154.138 23.4275 154.682 22.7506 154.623 21.7554C154.281 22.1714 153.782 22.4861 153.069 22.677C151.522 23.0913 149.887 22.4027 149.443 20.7468C148.957 18.933 150.173 17.3766 152.082 16.8647C154.5 16.2183 156.517 17.1677 157.258 19.9363V19.9363ZM153.904 19.41C153.762 18.8784 153.312 18.6488 152.804 18.7824C152.297 18.916 152.021 19.3419 152.164 19.8735C152.306 20.4052 152.76 20.6464 153.268 20.511C153.775 20.3756 154.047 19.9417 153.904 19.41V19.41Z" fill="#086972"/>
<path d="M185.722 35.0387H186.792V68.7877H185.722V35.0387Z" fill="white"/>
<path d="M186.257 39.3458C192.771 39.3458 198.051 34.0653 198.051 27.5516C198.051 21.0379 192.771 15.7574 186.257 15.7574C179.743 15.7574 174.463 21.0379 174.463 27.5516C174.463 34.0653 179.743 39.3458 186.257 39.3458Z" fill="#17B978"/>
<path d="M190.065 29.0542C190.065 30.6187 188.863 32.133 186.06 32.133C184.859 32.133 183.544 31.8703 182.605 31.3449L183.607 29.1672C184.319 29.5788 185.125 29.7988 185.947 29.8055C186.61 29.8055 187.098 29.5679 187.098 29.117C187.098 28.7413 186.835 28.4894 185.771 28.4894H183.23L183.669 23.1701H189.488V25.3981H186.097L186.034 26.2615H186.482C189.076 26.2632 190.065 27.5023 190.065 29.0542V29.0542Z" fill="#086972"/>
<path d="M143.456 19.6485C143.808 19.6485 144.157 19.5791 144.483 19.4442C144.808 19.3094 145.104 19.1117 145.353 18.8625C145.602 18.6134 145.8 18.3176 145.935 17.992C146.07 17.6664 146.139 17.3175 146.139 16.9651C146.139 17.6768 146.422 18.3593 146.925 18.8625C147.428 19.3658 148.111 19.6485 148.822 19.6485C148.111 19.6485 147.428 19.9312 146.925 20.4344C146.422 20.9377 146.139 21.6202 146.139 22.3319C146.139 21.9795 146.07 21.6305 145.935 21.305C145.8 20.9794 145.602 20.6836 145.353 20.4344C145.104 20.1853 144.808 19.9876 144.483 19.8527C144.157 19.7179 143.808 19.6485 143.456 19.6485Z" fill="white"/>
</svg>
